<svg width="1342" height="716" viewBox="0 0 1342 716" fill="none" xmlns="http://www.w3.org/2000/svg">
<path fill-rule="evenodd" clip-rule="evenodd" d="M1441.55 283.378C1440.38 274.086 1434.62 266.158 1426.14 262.175L610.219 -121.154C603.644 -124.246 596.249 -124.595 589.401 -122.141C582.558 -119.684 577.077 -114.718 573.978 -108.154L189.117 705.915C186.91 710.584 186.08 715.751 186.72 720.85C187.887 730.143 193.649 738.068 202.129 742.057L1018.05 1125.38C1024.63 1128.48 1032.01 1128.83 1038.87 1126.37C1045.71 1123.91 1051.19 1118.95 1054.29 1112.38L1439.15 298.318C1441.36 293.646 1442.19 288.477 1441.55 283.378ZM184.368 721.146C183.674 715.6 184.577 709.987 186.977 704.909L571.833 -109.16C575.205 -116.294 581.162 -121.693 588.604 -124.364C596.046 -127.033 604.081 -126.652 611.232 -123.293L1427.15 260.037C1436.37 264.37 1442.63 272.984 1443.9 283.086C1444.59 288.63 1443.69 294.244 1441.29 299.325L1056.43 1113.39C1053.06 1120.52 1047.11 1125.92 1039.67 1128.59C1032.23 1131.26 1024.19 1130.88 1017.03 1127.52L201.12 744.19C191.901 739.861 185.635 731.245 184.368 721.146Z" fill="#AEBECF" fill-opacity="0.1"/>
<path fill-rule="evenodd" clip-rule="evenodd" d="M1406.41 281.808C1405.29 272.892 1399.79 265.228 1391.71 261.305L601.198 -122.412C594.835 -125.505 587.641 -125.937 580.944 -123.632C574.247 -121.325 568.853 -116.556 565.748 -110.204L180.518 678.52C178.259 683.151 177.4 688.284 178.039 693.367C179.158 702.284 184.653 709.949 192.74 713.867L983.249 1097.59C996.395 1103.96 1012.29 1098.49 1018.7 1085.38L1403.93 296.656C1406.19 292.026 1407.05 286.889 1406.41 281.808ZM175.689 693.659C174.992 688.124 175.928 682.53 178.391 677.486L563.622 -111.236C567.001 -118.156 572.88 -123.349 580.172 -125.863C587.466 -128.374 595.301 -127.903 602.236 -124.538L1392.75 259.182C1401.56 263.456 1407.54 271.802 1408.76 281.511C1409.45 287.051 1408.52 292.647 1406.06 297.689L1020.82 1086.41C1013.85 1100.69 996.523 1106.66 982.21 1099.72L191.701 715.994C182.895 711.721 176.907 703.373 175.689 693.659Z" fill="#AEBECF" fill-opacity="0.1"/>
<path fill-rule="evenodd" clip-rule="evenodd" d="M1371.27 280.232C1370.2 271.698 1364.97 264.295 1357.28 260.432L592.178 -123.673C579.474 -130.051 563.928 -124.927 557.523 -112.252L171.923 651.128C169.605 655.711 168.716 660.818 169.353 665.89C170.424 674.425 175.656 681.825 183.347 685.684L948.443 1069.8C954.603 1072.89 961.593 1073.4 968.14 1071.24C974.69 1069.08 980.003 1064.51 983.104 1058.37L1368.7 294.99C1371.02 290.408 1371.91 285.303 1371.27 280.232ZM167.003 666.18C166.308 660.643 167.276 655.072 169.807 650.069L555.409 -113.313C562.401 -127.153 579.373 -132.747 593.242 -125.784L1358.34 258.322C1366.74 262.541 1372.45 270.623 1373.62 279.94C1374.32 285.476 1373.35 291.047 1370.82 296.054L985.219 1059.43C981.83 1066.14 976.032 1071.13 968.883 1073.48C961.737 1075.84 954.101 1075.28 947.384 1071.91L182.282 687.797C173.886 683.58 168.173 675.501 167.003 666.18Z" fill="#AEBECF" fill-opacity="0.1"/>
<path fill-rule="evenodd" clip-rule="evenodd" d="M1336.15 278.656C1335.12 270.495 1330.15 263.359 1322.85 259.563L583.156 -124.933C577.21 -128.022 570.417 -128.618 564.02 -126.609C557.629 -124.603 552.397 -120.23 549.298 -114.3L163.319 623.741C160.947 628.284 160.025 633.354 160.66 638.412C161.684 646.571 166.653 653.707 173.955 657.504L913.652 1042C925.913 1048.37 941.102 1043.6 947.507 1031.37L1333.49 293.328C1335.86 288.788 1336.78 283.715 1336.15 278.656ZM158.313 638.703C157.615 633.168 158.623 627.613 161.222 622.648L547.197 -115.391C550.592 -121.881 556.316 -126.664 563.312 -128.864C570.309 -131.06 577.744 -130.408 584.251 -127.029L1323.94 257.469C1331.93 261.622 1337.37 269.432 1338.49 278.363C1339.18 283.899 1338.19 289.452 1335.58 294.421L949.606 1032.46C942.597 1045.85 925.978 1051.07 912.553 1044.09L172.862 659.595C164.871 655.442 159.433 647.637 158.313 638.703Z" fill="#AEBECF" fill-opacity="0.1"/>
<path fill-rule="evenodd" clip-rule="evenodd" d="M1301.02 277.083C1300.04 269.291 1295.33 262.417 1288.41 258.691L574.132 -126.195C568.401 -129.281 561.805 -129.959 555.561 -128.099C549.313 -126.238 544.17 -122.066 541.07 -116.347L154.719 596.349C152.282 600.839 151.331 605.878 151.965 610.928C152.942 618.718 157.656 625.593 164.569 629.32L878.85 1014.21C884.584 1017.29 891.175 1017.97 897.422 1016.11C903.667 1014.25 908.813 1010.07 911.915 1004.36L1298.26 291.662C1300.7 287.173 1301.65 282.13 1301.02 277.083ZM149.614 611.221C148.921 605.679 149.964 600.154 152.635 595.22L538.987 -117.47C542.388 -123.743 548.036 -128.321 554.883 -130.36C561.735 -132.402 568.969 -131.66 575.26 -128.272L1289.54 256.614C1297.12 260.7 1302.29 268.242 1303.37 276.787C1304.06 282.327 1303.02 287.859 1300.35 292.787L913.997 1005.48C910.596 1011.76 904.948 1016.34 898.098 1018.37C891.248 1020.42 884.011 1019.67 877.727 1016.28L163.441 631.399C155.857 627.311 150.689 619.768 149.614 611.221Z" fill="#AEBECF" fill-opacity="0.1"/>
<path fill-rule="evenodd" clip-rule="evenodd" d="M1265.9 275.506C1264.97 268.084 1260.51 261.474 1253.98 257.822L565.107 -127.455C553.712 -133.827 539.237 -129.763 532.842 -118.394L146.115 568.963C143.62 573.396 142.63 578.41 143.261 583.449C144.192 590.874 148.65 597.481 155.179 601.134L844.052 986.408C849.575 989.5 855.971 990.254 862.061 988.546C868.158 986.83 873.222 982.856 876.318 977.35L1263.05 289.998C1265.55 285.557 1266.53 280.544 1265.9 275.506ZM140.914 583.745C140.216 578.201 141.304 572.69 144.052 567.805L530.776 -119.548C537.81 -132.053 553.731 -136.524 566.265 -129.516L1255.14 255.762C1262.32 259.775 1267.22 267.048 1268.25 275.21C1268.94 280.752 1267.86 286.265 1265.11 291.154L878.384 978.502C874.979 984.563 869.405 988.935 862.705 990.816C856 992.701 848.966 991.87 842.895 988.469L154.021 603.195C146.837 599.179 141.937 591.907 140.914 583.745Z" fill="#AEBECF" fill-opacity="0.1"/>
<path fill-rule="evenodd" clip-rule="evenodd" d="M1230.78 273.927C1229.89 266.768 1225.79 260.578 1219.55 256.948L556.084 -128.718C550.772 -131.801 544.579 -132.642 538.633 -131.077C532.688 -129.514 527.711 -125.735 524.614 -120.438L137.514 541.571C134.945 545.964 133.921 550.94 134.553 555.968C135.453 563.131 139.554 569.323 145.794 572.95L809.26 958.618C820.22 964.988 834.335 961.275 840.727 950.338L1227.82 288.33C1230.39 283.94 1231.42 278.959 1230.78 273.927ZM132.206 556.261C131.508 550.718 132.636 545.225 135.467 540.38L522.566 -121.627C525.984 -127.471 531.474 -131.638 538.031 -133.36C544.587 -135.086 551.422 -134.16 557.276 -130.757L1220.74 254.905C1227.63 258.909 1232.14 265.732 1233.14 273.634C1233.83 279.186 1232.7 284.675 1229.87 289.517L842.773 951.527C835.719 963.589 820.151 967.681 808.063 960.66L144.6 574.997C137.713 570.992 133.195 564.165 132.206 556.261Z" fill="#AEBECF" fill-opacity="0.1"/>
<path fill-rule="evenodd" clip-rule="evenodd" d="M1195.68 272.35C1194.83 265.551 1190.98 259.622 1185.11 256.071L547.059 -129.977C541.961 -133.065 535.963 -133.985 530.166 -132.567C524.372 -131.151 519.478 -127.572 516.38 -122.485L128.913 514.18C126.27 518.522 125.208 523.468 125.839 528.494C126.692 535.292 130.545 541.224 136.406 544.773L774.46 930.826C779.561 933.908 785.559 934.826 791.354 933.411C797.145 931.999 802.039 928.419 805.137 923.332L1192.6 286.664C1195.25 282.326 1196.31 277.375 1195.68 272.35ZM123.489 528.79C122.791 523.231 123.969 517.756 126.89 512.958L514.357 -123.708C517.781 -129.336 523.197 -133.297 529.605 -134.861C536.015 -136.429 542.651 -135.411 548.287 -131.999L1186.34 254.052C1192.83 257.978 1197.08 264.54 1198.03 272.055C1198.73 277.612 1197.55 283.087 1194.63 287.892L807.159 924.552C803.739 930.183 798.323 934.142 791.916 935.71C785.505 937.271 778.87 936.258 773.235 932.843L135.177 546.791C128.691 542.866 124.434 536.307 123.489 528.79Z" fill="#AEBECF" fill-opacity="0.1"/>
<path fill-rule="evenodd" clip-rule="evenodd" d="M1160.58 270.77C1159.78 264.335 1156.16 258.66 1150.68 255.197L538.028 -131.245C533.144 -134.328 527.345 -135.326 521.701 -134.056C516.058 -132.789 511.244 -129.405 508.152 -124.529L120.308 486.795C117.626 491.016 116.494 496.071 117.114 501.019C117.924 507.452 121.535 513.129 127.021 516.589L739.668 903.035C744.55 906.115 750.35 907.115 755.999 905.848C761.638 904.58 766.451 901.197 769.548 896.323L1157.39 284.997C1160.07 280.774 1161.21 275.718 1160.58 270.77ZM114.765 501.316C114.078 495.823 115.331 490.216 118.308 485.534L506.151 -125.79C509.581 -131.198 514.921 -134.955 521.184 -136.362C527.445 -137.77 533.878 -136.659 539.299 -133.24L1151.94 253.203C1158.03 257.041 1162.04 263.338 1162.93 270.475C1163.62 275.967 1162.36 281.569 1159.39 286.259L771.547 897.584C768.116 902.988 762.777 906.746 756.515 908.152C750.257 909.559 743.822 908.453 738.401 905.029L125.753 518.582C119.665 514.748 115.663 508.45 114.765 501.316Z" fill="#AEBECF" fill-opacity="0.1"/>
<path fill-rule="evenodd" clip-rule="evenodd" d="M1125.5 269.188C1124.73 263.111 1121.36 257.693 1116.24 254.32L529.004 -132.509C524.328 -135.59 518.724 -136.67 513.234 -135.547C507.742 -134.425 503.011 -131.238 499.917 -126.57L111.703 459.409C108.941 463.576 107.763 468.597 108.384 473.547C109.148 479.625 112.52 485.042 117.633 488.415L704.873 875.241C714.525 881.604 727.575 878.941 733.958 869.308L1122.18 283.327C1124.94 279.158 1126.12 274.138 1125.5 269.188ZM106.034 473.844C105.344 468.334 106.656 462.745 109.726 458.108L497.944 -127.871C501.384 -133.065 506.644 -136.612 512.757 -137.86C518.871 -139.108 525.104 -137.909 530.31 -134.479L1117.55 252.352C1123.24 256.102 1126.99 262.13 1127.84 268.893C1128.53 274.4 1127.22 279.987 1124.15 284.63L735.931 870.61C728.828 881.33 714.307 884.293 703.568 877.214L116.329 490.384C110.636 486.634 106.884 480.601 106.034 473.844Z" fill="#AEBECF" fill-opacity="0.1"/>
<path fill-rule="evenodd" clip-rule="evenodd" d="M1090.41 267.605C1089.69 261.885 1086.56 256.721 1081.81 253.446L519.976 -133.777C510.754 -140.131 498.062 -137.814 491.684 -128.612L103.094 432.024C100.246 436.128 99.0183 441.124 99.6408 446.07C100.358 451.798 103.498 456.957 108.251 460.233L670.079 847.459C679.303 853.809 691.991 851.488 698.367 842.291L1086.96 281.658C1089.8 277.549 1091.03 272.556 1090.41 267.605ZM97.2924 446.363C96.5972 440.84 97.9688 435.267 101.147 430.68L489.739 -129.957C496.86 -140.229 511.026 -142.814 521.32 -135.718L1083.15 251.502C1088.46 255.158 1091.96 260.921 1092.76 267.312C1093.46 272.838 1092.09 278.413 1088.91 283L700.314 843.634C693.195 853.906 679.028 856.495 668.731 849.398L106.906 462.173C101.599 458.518 98.0952 452.755 97.2924 446.363Z" fill="#AEBECF" fill-opacity="0.1"/>
<path fill-rule="evenodd" clip-rule="evenodd" d="M1055.34 266.021C1054.67 260.644 1051.76 255.744 1047.37 252.57L510.946 -135.043C502.157 -141.392 489.824 -139.424 483.451 -130.656L94.4875 404.634C91.5478 408.683 90.2676 413.642 90.8883 418.603C91.5646 423.977 94.4758 428.878 98.8685 432.055L635.284 819.672C644.077 826.021 656.406 824.049 662.781 815.274L1051.75 279.988C1054.69 275.94 1055.97 270.978 1055.34 266.021ZM88.5391 418.896C87.8431 413.344 89.2788 407.786 92.5717 403.25L481.533 -132.042C488.674 -141.865 502.489 -144.068 512.335 -136.957L1048.76 250.655C1053.68 254.211 1056.94 259.704 1057.69 265.725C1058.39 271.282 1056.96 276.837 1053.66 281.373L664.701 816.666C657.566 826.487 643.744 828.694 633.899 821.583L97.4773 433.972C92.5558 430.413 89.2955 424.916 88.5391 418.896Z" fill="#AEBECF" fill-opacity="0.1"/>
<path fill-rule="evenodd" clip-rule="evenodd" d="M1020.28 264.436C1019.64 259.33 1017.03 254.801 1012.92 251.685L501.912 -136.311C497.87 -139.384 492.861 -140.702 487.821 -140.019C482.776 -139.336 478.3 -136.734 475.215 -132.696L85.8817 377.251C82.8381 381.237 81.507 386.165 82.1299 391.132C82.771 396.238 85.3819 400.767 89.4846 403.884L600.498 791.88C608.854 798.223 620.827 796.597 627.197 788.262L1016.53 278.315C1019.58 274.331 1020.91 269.402 1020.28 264.436ZM79.7791 391.423C79.0784 385.837 80.5754 380.304 83.9926 375.826L473.332 -134.125C476.8 -138.668 481.83 -141.591 487.504 -142.358C493.173 -143.127 498.799 -141.646 503.353 -138.192L1014.36 249.806C1018.98 253.309 1021.91 258.401 1022.64 264.141C1023.34 269.726 1021.84 275.269 1018.41 279.745L629.079 789.696C621.925 799.065 608.457 800.894 599.062 793.764L88.0509 405.762C83.4392 402.256 80.4986 397.17 79.7791 391.423Z" fill="#AEBECF" fill-opacity="0.1"/>
<path fill-rule="evenodd" clip-rule="evenodd" d="M985.234 262.849C984.638 258.082 982.241 253.81 978.486 250.806L492.884 -137.581C484.958 -143.919 473.336 -142.643 466.976 -134.737L77.266 349.872C74.117 353.786 72.7277 358.682 73.3539 363.663C73.9525 368.425 76.3495 372.706 80.1044 375.707L565.707 764.096C573.632 770.435 585.25 769.161 591.616 761.248L981.322 276.643C984.473 272.728 985.862 267.827 985.234 262.849ZM71.0028 363.958C70.2992 358.342 71.8687 352.812 75.4232 348.394L465.13 -136.214C472.306 -145.136 485.422 -146.577 494.365 -139.426L979.971 248.964C984.205 252.351 986.913 257.176 987.587 262.553C988.292 268.174 986.722 273.7 983.172 278.119L593.462 762.733C586.281 771.649 573.167 773.093 564.221 765.939L78.622 377.555C74.3847 374.164 71.6786 369.336 71.0028 363.958Z" fill="#AEBECF" fill-opacity="0.1"/>
<path fill-rule="evenodd" clip-rule="evenodd" d="M950.204 261.26C949.649 256.833 947.46 252.805 944.047 249.921L483.852 -138.854C480.224 -141.922 475.61 -143.395 470.869 -143C466.124 -142.607 461.815 -140.397 458.738 -136.773L68.6554 322.494C65.4399 326.277 63.9519 331.272 64.5687 336.197C65.1251 340.625 67.3083 344.651 70.7241 347.538L530.918 736.315C538.41 742.644 549.679 741.709 556.032 734.23L946.116 274.969C949.331 271.183 950.822 266.185 950.204 261.26ZM62.2177 336.494C61.5175 330.91 63.2061 325.252 66.8467 320.967L456.931 -138.299C460.421 -142.403 465.298 -144.91 470.673 -145.355C476.048 -145.8 481.272 -144.131 485.383 -140.658L945.575 248.12C949.445 251.389 951.921 255.95 952.552 260.963C953.253 266.544 951.564 272.205 947.922 276.496L557.837 735.758C550.64 744.232 537.875 745.289 529.388 738.118L69.1952 349.337C65.3253 346.07 62.8477 341.509 62.2177 336.494Z" fill="#AEBECF" fill-opacity="0.1"/>
<path fill-rule="evenodd" clip-rule="evenodd" d="M915.183 259.669C914.667 255.57 912.687 251.796 909.605 249.035L474.818 -140.127C471.395 -143.19 466.98 -144.742 462.385 -144.493C457.792 -144.245 453.571 -142.226 450.499 -138.813L60.0391 295.111C56.7027 298.82 55.1459 303.783 55.7662 308.736C56.2826 312.828 58.2623 316.604 61.3447 319.368L496.127 708.533C503.194 714.859 514.104 714.268 520.452 707.214L910.907 273.297C914.246 269.587 915.805 264.617 915.183 259.669ZM53.4156 309.028C52.7058 303.4 54.4811 297.754 58.2807 293.532L448.734 -140.389C452.231 -144.274 457.033 -146.569 462.259 -146.851C467.485 -147.134 472.507 -145.371 476.401 -141.885L911.185 247.279C914.691 250.417 916.947 254.714 917.532 259.375C918.237 265.003 916.47 270.652 912.67 274.87L522.208 708.795C515.001 716.812 502.585 717.485 494.548 710.292L59.762 321.13C56.2566 317.984 54.0009 313.687 53.4156 309.028Z" fill="#AEBECF" fill-opacity="0.1"/>
<path fill-rule="evenodd" clip-rule="evenodd" d="M880.18 258.079C879.706 254.304 877.923 250.779 875.161 248.147L465.784 -141.405C459.145 -147.72 448.59 -147.471 442.249 -140.847L51.4276 267.732C47.9545 271.358 46.3209 276.294 46.9461 281.269C47.4219 285.042 49.2051 288.565 51.9662 291.202L461.346 680.757C467.981 687.072 478.537 686.82 484.873 680.197L875.705 271.619C879.176 267.991 880.803 263.058 880.18 258.079ZM44.5962 281.565C43.8816 275.878 45.7499 270.243 49.7126 266.096L440.538 -142.477C447.777 -150.044 459.837 -150.329 467.42 -143.114L876.794 246.44C879.949 249.443 881.991 253.471 882.53 257.783C883.244 263.47 881.379 269.105 877.415 273.252L486.588 681.825C479.348 689.392 467.29 689.674 459.709 682.465L50.331 292.91C47.1755 289.903 45.1379 285.875 44.5962 281.565Z" fill="#AEBECF" fill-opacity="0.1"/>
<path fill-rule="evenodd" clip-rule="evenodd" d="M845.194 256.486C844.752 252.979 843.206 249.788 840.718 247.259L456.75 -142.685C450.539 -148.993 440.337 -149.081 434.004 -142.883L42.8031 240.353C39.1923 243.892 37.481 248.794 38.1107 253.807C38.5529 257.315 40.1013 260.503 42.5895 263.03L426.555 652.979C432.766 659.292 442.967 659.378 449.3 653.176L840.504 269.942C844.115 266.406 845.822 261.498 845.194 256.486ZM35.7624 254.101C35.0395 248.353 37.0031 242.725 41.1482 238.666L432.346 -144.566C439.609 -151.678 451.314 -151.577 458.437 -144.341L842.406 245.604C845.261 248.504 847.039 252.163 847.542 256.19C848.265 261.941 846.304 267.567 842.166 271.627L450.957 654.864C443.697 661.975 431.991 661.874 424.868 654.637L40.9006 264.69C38.044 261.791 36.2682 258.131 35.7624 254.101Z" fill="#AEBECF" fill-opacity="0.1"/>
<path fill-rule="evenodd" clip-rule="evenodd" d="M810.23 254.89C809.829 251.694 808.464 248.748 806.272 246.367L447.713 -143.969C441.927 -150.263 432.078 -150.692 425.757 -144.917L34.1814 212.971C30.473 216.366 28.6291 221.366 29.2569 226.35C29.6584 229.544 31.0275 232.487 33.2168 234.869L391.774 625.21C397.559 631.503 407.406 631.929 413.728 626.152L805.305 268.263C809.012 264.873 810.852 259.874 810.23 254.89ZM26.9076 226.644C26.1863 220.899 28.3095 215.138 32.5845 211.234L424.158 -146.658C431.439 -153.314 442.791 -152.82 449.46 -145.563L808.017 244.771C810.54 247.515 812.116 250.912 812.579 254.595C813.301 260.337 811.179 266.1 806.9 270.003L415.327 627.894C408.045 634.548 396.694 634.059 390.028 626.803L31.466 236.471C28.9484 233.722 27.3692 230.327 26.9076 226.644Z" fill="#AEBECF" fill-opacity="0.1"/>
<path fill-rule="evenodd" clip-rule="evenodd" d="M775.281 253.289C774.92 250.404 773.723 247.699 771.828 245.472L438.679 -145.253C433.314 -151.541 423.815 -152.304 417.506 -146.952L25.5597 185.596C21.6846 188.882 19.747 193.854 20.3797 198.891C20.7421 201.781 21.9389 204.484 23.8377 206.713L356.987 597.437C362.352 603.726 371.848 604.489 378.154 599.133L770.106 266.586C773.981 263.299 775.914 258.329 775.281 253.289ZM18.0316 199.186C17.2997 193.354 19.5384 187.6 24.0236 183.799L415.97 -148.75C423.278 -154.948 434.272 -154.063 440.478 -146.782L773.627 243.938C775.828 246.519 777.21 249.648 777.633 252.998C778.364 258.829 776.123 264.581 771.64 268.388L379.689 600.936C372.386 607.13 361.39 606.249 355.183 598.969L22.0325 208.244C19.8351 205.666 18.4513 202.53 18.0316 199.186Z" fill="#AEBECF" fill-opacity="0.1"/>
<path fill-rule="evenodd" clip-rule="evenodd" d="M740.361 251.693C740.036 249.101 739.006 246.637 737.377 244.573L429.638 -146.54C424.696 -152.82 415.551 -153.918 409.247 -148.984L16.9268 158.217C12.8759 161.391 10.8396 166.331 11.4804 171.434C11.8051 174.027 12.8351 176.491 14.4615 178.557L322.204 569.669C327.146 575.949 336.29 577.047 342.593 572.112L734.914 264.907C738.966 261.735 741.003 256.797 740.361 251.693ZM9.13161 171.731C8.39742 165.886 10.8242 159.999 15.4679 156.364L407.789 -150.842C415.117 -156.578 425.756 -155.303 431.503 -147.997L739.243 243.113C741.135 245.52 742.329 248.38 742.712 251.398C743.443 257.242 741.014 263.131 736.378 266.767L344.053 573.972C336.725 579.709 326.088 578.434 320.339 571.126L12.6017 180.016C10.7088 177.609 9.50906 174.746 9.13161 171.731Z" fill="#AEBECF" fill-opacity="0.1"/>
<path fill-rule="evenodd" clip-rule="evenodd" d="M705.469 250.089C705.179 247.786 704.301 245.567 702.929 243.671L420.599 -147.831C416.081 -154.102 407.283 -155.533 400.992 -151.018L8.29534 130.845C4.11243 133.847 1.91531 138.88 2.55551 143.981C2.8451 146.286 3.71956 148.507 5.08972 150.405L287.42 541.907C291.944 548.175 300.736 549.607 307.028 545.09L699.726 263.232C703.906 260.228 706.108 255.193 705.469 250.089ZM0.204367 144.276C-0.54412 138.315 2.02833 132.432 6.91054 128.929L399.608 -152.935C406.958 -158.208 417.24 -156.54 422.525 -149.212L704.859 242.289C706.456 244.506 707.48 247.101 707.819 249.795C708.567 255.757 705.998 261.641 701.107 265.146L308.411 547.006C301.059 552.286 290.782 550.615 285.497 543.287L3.16215 151.784C1.56476 149.57 0.542293 146.971 0.204367 144.276Z" fill="#AEBECF" fill-opacity="0.1"/>
</svg>
