<svg width="134" height="96" viewBox="0 0 134 96" fill="none" xmlns="http://www.w3.org/2000/svg">
<path fill-rule="evenodd" clip-rule="evenodd" d="M2.63723 5.28764H2.65041C4.10748 5.28764 5.28764 4.10453 5.28764 2.64382C5.28764 1.18443 4.10748 0 2.65041 0H2.63723C1.18148 0 0 1.18443 0 2.64382C0 4.10453 1.18148 5.28764 2.63723 5.28764Z" fill="#130D3A"/>
<path fill-rule="evenodd" clip-rule="evenodd" d="M2.63723 16.5753H2.65041C4.10748 16.5753 5.28764 15.3922 5.28764 13.9315C5.28764 12.4721 4.10748 11.2876 2.65041 11.2876H2.63723C1.18148 11.2876 0 12.4721 0 13.9315C0 15.3922 1.18148 16.5753 2.63723 16.5753Z" fill="#130D3A"/>
<path fill-rule="evenodd" clip-rule="evenodd" d="M2.63723 27.8629H2.65041C4.10748 27.8629 5.28764 26.6798 5.28764 25.2191C5.28764 23.7597 4.10748 22.5753 2.65041 22.5753H2.63723C1.18148 22.5753 0 23.7597 0 25.2191C0 26.6798 1.18148 27.8629 2.63723 27.8629Z" fill="#130D3A"/>
<path fill-rule="evenodd" clip-rule="evenodd" d="M2.63723 39.1506H2.65041C4.10748 39.1506 5.28764 37.9674 5.28764 36.5067C5.28764 35.0473 4.10748 33.8629 2.65041 33.8629H2.63723C1.18148 33.8629 0 35.0473 0 36.5067C0 37.9674 1.18148 39.1506 2.63723 39.1506Z" fill="#130D3A"/>
<path fill-rule="evenodd" clip-rule="evenodd" d="M2.63723 50.4382H2.65041C4.10748 50.4382 5.28764 49.2551 5.28764 47.7944C5.28764 46.335 4.10748 45.1506 2.65041 45.1506H2.63723C1.18148 45.1506 0 46.335 0 47.7944C0 49.2551 1.18148 50.4382 2.63723 50.4382Z" fill="#130D3A"/>
<path fill-rule="evenodd" clip-rule="evenodd" d="M2.63723 61.7258H2.65041C4.10748 61.7258 5.28764 60.5427 5.28764 59.082C5.28764 57.6226 4.10748 56.4382 2.65041 56.4382H2.63723C1.18148 56.4382 0 57.6226 0 59.082C0 60.5427 1.18148 61.7258 2.63723 61.7258Z" fill="#130D3A"/>
<path fill-rule="evenodd" clip-rule="evenodd" d="M2.63723 73.0135H2.65041C4.10748 73.0135 5.28764 71.8304 5.28764 70.3696C5.28764 68.9103 4.10748 67.7258 2.65041 67.7258H2.63723C1.18148 67.7258 0 68.9103 0 70.3696C0 71.8304 1.18148 73.0135 2.63723 73.0135Z" fill="#130D3A"/>
<path fill-rule="evenodd" clip-rule="evenodd" d="M2.63723 84.3011H2.65041C4.10748 84.3011 5.28764 83.118 5.28764 81.6573C5.28764 80.1979 4.10748 79.0135 2.65041 79.0135H2.63723C1.18148 79.0135 0 80.1979 0 81.6573C0 83.118 1.18148 84.3011 2.63723 84.3011Z" fill="#130D3A"/>
<path fill-rule="evenodd" clip-rule="evenodd" d="M2.63723 95.5887H2.65041C4.10748 95.5887 5.28764 94.4056 5.28764 92.9449C5.28764 91.4855 4.10748 90.3011 2.65041 90.3011H2.63723C1.18148 90.3011 0 91.4855 0 92.9449C0 94.4056 1.18148 95.5887 2.63723 95.5887Z" fill="#130D3A"/>
<path fill-rule="evenodd" clip-rule="evenodd" d="M23.9249 5.28764H23.938C25.3951 5.28764 26.5753 4.10453 26.5753 2.64382C26.5753 1.18443 25.3951 0 23.938 0H23.9249C22.4691 0 21.2876 1.18443 21.2876 2.64382C21.2876 4.10453 22.4691 5.28764 23.9249 5.28764Z" fill="#130D3A"/>
<path fill-rule="evenodd" clip-rule="evenodd" d="M23.9249 16.5753H23.938C25.3951 16.5753 26.5753 15.3922 26.5753 13.9315C26.5753 12.4721 25.3951 11.2876 23.938 11.2876H23.9249C22.4691 11.2876 21.2876 12.4721 21.2876 13.9315C21.2876 15.3922 22.4691 16.5753 23.9249 16.5753Z" fill="#130D3A"/>
<path fill-rule="evenodd" clip-rule="evenodd" d="M23.9249 27.8629H23.938C25.3951 27.8629 26.5753 26.6798 26.5753 25.2191C26.5753 23.7597 25.3951 22.5753 23.938 22.5753H23.9249C22.4691 22.5753 21.2876 23.7597 21.2876 25.2191C21.2876 26.6798 22.4691 27.8629 23.9249 27.8629Z" fill="#130D3A"/>
<path fill-rule="evenodd" clip-rule="evenodd" d="M23.9249 39.1506H23.938C25.3951 39.1506 26.5753 37.9674 26.5753 36.5067C26.5753 35.0473 25.3951 33.8629 23.938 33.8629H23.9249C22.4691 33.8629 21.2876 35.0473 21.2876 36.5067C21.2876 37.9674 22.4691 39.1506 23.9249 39.1506Z" fill="#130D3A"/>
<path fill-rule="evenodd" clip-rule="evenodd" d="M23.9249 50.4382H23.938C25.3951 50.4382 26.5753 49.2551 26.5753 47.7944C26.5753 46.335 25.3951 45.1506 23.938 45.1506H23.9249C22.4691 45.1506 21.2876 46.335 21.2876 47.7944C21.2876 49.2551 22.4691 50.4382 23.9249 50.4382Z" fill="#130D3A"/>
<path fill-rule="evenodd" clip-rule="evenodd" d="M23.9249 61.7258H23.938C25.3951 61.7258 26.5753 60.5427 26.5753 59.082C26.5753 57.6226 25.3951 56.4382 23.938 56.4382H23.9249C22.4691 56.4382 21.2876 57.6226 21.2876 59.082C21.2876 60.5427 22.4691 61.7258 23.9249 61.7258Z" fill="#130D3A"/>
<path fill-rule="evenodd" clip-rule="evenodd" d="M23.9249 73.0135H23.938C25.3951 73.0135 26.5753 71.8304 26.5753 70.3696C26.5753 68.9103 25.3951 67.7258 23.938 67.7258H23.9249C22.4691 67.7258 21.2876 68.9103 21.2876 70.3696C21.2876 71.8304 22.4691 73.0135 23.9249 73.0135Z" fill="#130D3A"/>
<path fill-rule="evenodd" clip-rule="evenodd" d="M23.9249 84.3011H23.938C25.3951 84.3011 26.5753 83.118 26.5753 81.6573C26.5753 80.1979 25.3951 79.0135 23.938 79.0135H23.9249C22.4691 79.0135 21.2876 80.1979 21.2876 81.6573C21.2876 83.118 22.4691 84.3011 23.9249 84.3011Z" fill="#130D3A"/>
<path fill-rule="evenodd" clip-rule="evenodd" d="M23.9249 95.5887H23.938C25.3951 95.5887 26.5753 94.4056 26.5753 92.9449C26.5753 91.4855 25.3951 90.3011 23.938 90.3011H23.9249C22.4691 90.3011 21.2876 91.4855 21.2876 92.9449C21.2876 94.4056 22.4691 95.5887 23.9249 95.5887Z" fill="#130D3A"/>
<path fill-rule="evenodd" clip-rule="evenodd" d="M45.2125 5.28764H45.2257C46.6828 5.28764 47.8629 4.10453 47.8629 2.64382C47.8629 1.18443 46.6828 0 45.2257 0H45.2125C43.7568 0 42.5753 1.18443 42.5753 2.64382C42.5753 4.10453 43.7568 5.28764 45.2125 5.28764Z" fill="#130D3A"/>
<path fill-rule="evenodd" clip-rule="evenodd" d="M45.2125 16.5753H45.2257C46.6828 16.5753 47.8629 15.3922 47.8629 13.9315C47.8629 12.4721 46.6828 11.2876 45.2257 11.2876H45.2125C43.7568 11.2876 42.5753 12.4721 42.5753 13.9315C42.5753 15.3922 43.7568 16.5753 45.2125 16.5753Z" fill="#130D3A"/>
<path fill-rule="evenodd" clip-rule="evenodd" d="M45.2125 27.8629H45.2257C46.6828 27.8629 47.8629 26.6798 47.8629 25.2191C47.8629 23.7597 46.6828 22.5753 45.2257 22.5753H45.2125C43.7568 22.5753 42.5753 23.7597 42.5753 25.2191C42.5753 26.6798 43.7568 27.8629 45.2125 27.8629Z" fill="#130D3A"/>
<path fill-rule="evenodd" clip-rule="evenodd" d="M45.2125 39.1506H45.2257C46.6828 39.1506 47.8629 37.9674 47.8629 36.5067C47.8629 35.0473 46.6828 33.8629 45.2257 33.8629H45.2125C43.7568 33.8629 42.5753 35.0473 42.5753 36.5067C42.5753 37.9674 43.7568 39.1506 45.2125 39.1506Z" fill="#130D3A"/>
<path fill-rule="evenodd" clip-rule="evenodd" d="M45.2125 50.4382H45.2257C46.6828 50.4382 47.8629 49.2551 47.8629 47.7944C47.8629 46.335 46.6828 45.1506 45.2257 45.1506H45.2125C43.7568 45.1506 42.5753 46.335 42.5753 47.7944C42.5753 49.2551 43.7568 50.4382 45.2125 50.4382Z" fill="#130D3A"/>
<path fill-rule="evenodd" clip-rule="evenodd" d="M45.2125 61.7258H45.2257C46.6828 61.7258 47.8629 60.5427 47.8629 59.082C47.8629 57.6226 46.6828 56.4382 45.2257 56.4382H45.2125C43.7568 56.4382 42.5753 57.6226 42.5753 59.082C42.5753 60.5427 43.7568 61.7258 45.2125 61.7258Z" fill="#130D3A"/>
<path fill-rule="evenodd" clip-rule="evenodd" d="M45.2125 73.0135H45.2257C46.6828 73.0135 47.8629 71.8304 47.8629 70.3696C47.8629 68.9103 46.6828 67.7258 45.2257 67.7258H45.2125C43.7568 67.7258 42.5753 68.9103 42.5753 70.3696C42.5753 71.8304 43.7568 73.0135 45.2125 73.0135Z" fill="#130D3A"/>
<path fill-rule="evenodd" clip-rule="evenodd" d="M45.2125 84.3011H45.2257C46.6828 84.3011 47.8629 83.118 47.8629 81.6573C47.8629 80.1979 46.6828 79.0135 45.2257 79.0135H45.2125C43.7568 79.0135 42.5753 80.1979 42.5753 81.6573C42.5753 83.118 43.7568 84.3011 45.2125 84.3011Z" fill="#130D3A"/>
<path fill-rule="evenodd" clip-rule="evenodd" d="M45.2125 95.5887H45.2257C46.6828 95.5887 47.8629 94.4056 47.8629 92.9449C47.8629 91.4855 46.6828 90.3011 45.2257 90.3011H45.2125C43.7568 90.3011 42.5753 91.4855 42.5753 92.9449C42.5753 94.4056 43.7568 95.5887 45.2125 95.5887Z" fill="#130D3A"/>
<path fill-rule="evenodd" clip-rule="evenodd" d="M66.5001 5.28764H66.5133C67.9704 5.28764 69.1506 4.10453 69.1506 2.64382C69.1506 1.18443 67.9704 0 66.5133 0H66.5001C65.0444 0 63.8629 1.18443 63.8629 2.64382C63.8629 4.10453 65.0444 5.28764 66.5001 5.28764Z" fill="#130D3A"/>
<path fill-rule="evenodd" clip-rule="evenodd" d="M66.5001 16.5753H66.5133C67.9704 16.5753 69.1506 15.3922 69.1506 13.9315C69.1506 12.4721 67.9704 11.2876 66.5133 11.2876H66.5001C65.0444 11.2876 63.8629 12.4721 63.8629 13.9315C63.8629 15.3922 65.0444 16.5753 66.5001 16.5753Z" fill="#130D3A"/>
<path fill-rule="evenodd" clip-rule="evenodd" d="M66.5001 27.8629H66.5133C67.9704 27.8629 69.1506 26.6798 69.1506 25.2191C69.1506 23.7597 67.9704 22.5753 66.5133 22.5753H66.5001C65.0444 22.5753 63.8629 23.7597 63.8629 25.2191C63.8629 26.6798 65.0444 27.8629 66.5001 27.8629Z" fill="#130D3A"/>
<path fill-rule="evenodd" clip-rule="evenodd" d="M66.5001 39.1506H66.5133C67.9704 39.1506 69.1506 37.9674 69.1506 36.5067C69.1506 35.0473 67.9704 33.8629 66.5133 33.8629H66.5001C65.0444 33.8629 63.8629 35.0473 63.8629 36.5067C63.8629 37.9674 65.0444 39.1506 66.5001 39.1506Z" fill="#130D3A"/>
<path fill-rule="evenodd" clip-rule="evenodd" d="M66.5001 50.4382H66.5133C67.9704 50.4382 69.1506 49.2551 69.1506 47.7944C69.1506 46.335 67.9704 45.1506 66.5133 45.1506H66.5001C65.0444 45.1506 63.8629 46.335 63.8629 47.7944C63.8629 49.2551 65.0444 50.4382 66.5001 50.4382Z" fill="#130D3A"/>
<path fill-rule="evenodd" clip-rule="evenodd" d="M66.5001 61.7258H66.5133C67.9704 61.7258 69.1506 60.5427 69.1506 59.082C69.1506 57.6226 67.9704 56.4382 66.5133 56.4382H66.5001C65.0444 56.4382 63.8629 57.6226 63.8629 59.082C63.8629 60.5427 65.0444 61.7258 66.5001 61.7258Z" fill="#130D3A"/>
<path fill-rule="evenodd" clip-rule="evenodd" d="M66.5001 73.0135H66.5133C67.9704 73.0135 69.1506 71.8304 69.1506 70.3696C69.1506 68.9103 67.9704 67.7258 66.5133 67.7258H66.5001C65.0444 67.7258 63.8629 68.9103 63.8629 70.3696C63.8629 71.8304 65.0444 73.0135 66.5001 73.0135Z" fill="#130D3A"/>
<path fill-rule="evenodd" clip-rule="evenodd" d="M66.5001 84.3011H66.5133C67.9704 84.3011 69.1506 83.118 69.1506 81.6573C69.1506 80.1979 67.9704 79.0135 66.5133 79.0135H66.5001C65.0444 79.0135 63.8629 80.1979 63.8629 81.6573C63.8629 83.118 65.0444 84.3011 66.5001 84.3011Z" fill="#130D3A"/>
<path fill-rule="evenodd" clip-rule="evenodd" d="M66.5001 95.5887H66.5133C67.9704 95.5887 69.1506 94.4056 69.1506 92.9449C69.1506 91.4855 67.9704 90.3011 66.5133 90.3011H66.5001C65.0444 90.3011 63.8629 91.4855 63.8629 92.9449C63.8629 94.4056 65.0444 95.5887 66.5001 95.5887Z" fill="#130D3A"/>
<path fill-rule="evenodd" clip-rule="evenodd" d="M87.7878 5.28764H87.801C89.258 5.28764 90.4382 4.10453 90.4382 2.64382C90.4382 1.18443 89.258 0 87.801 0H87.7878C86.332 0 85.1506 1.18443 85.1506 2.64382C85.1506 4.10453 86.332 5.28764 87.7878 5.28764Z" fill="#130D3A"/>
<path fill-rule="evenodd" clip-rule="evenodd" d="M87.7878 16.5753H87.801C89.258 16.5753 90.4382 15.3922 90.4382 13.9315C90.4382 12.4721 89.258 11.2876 87.801 11.2876H87.7878C86.332 11.2876 85.1506 12.4721 85.1506 13.9315C85.1506 15.3922 86.332 16.5753 87.7878 16.5753Z" fill="#130D3A"/>
<path fill-rule="evenodd" clip-rule="evenodd" d="M87.7878 27.8629H87.801C89.258 27.8629 90.4382 26.6798 90.4382 25.2191C90.4382 23.7597 89.258 22.5753 87.801 22.5753H87.7878C86.332 22.5753 85.1506 23.7597 85.1506 25.2191C85.1506 26.6798 86.332 27.8629 87.7878 27.8629Z" fill="#130D3A"/>
<path fill-rule="evenodd" clip-rule="evenodd" d="M87.7878 39.1506H87.801C89.258 39.1506 90.4382 37.9674 90.4382 36.5067C90.4382 35.0473 89.258 33.8629 87.801 33.8629H87.7878C86.332 33.8629 85.1506 35.0473 85.1506 36.5067C85.1506 37.9674 86.332 39.1506 87.7878 39.1506Z" fill="#130D3A"/>
<path fill-rule="evenodd" clip-rule="evenodd" d="M87.7878 50.4382H87.801C89.258 50.4382 90.4382 49.2551 90.4382 47.7944C90.4382 46.335 89.258 45.1506 87.801 45.1506H87.7878C86.332 45.1506 85.1506 46.335 85.1506 47.7944C85.1506 49.2551 86.332 50.4382 87.7878 50.4382Z" fill="#130D3A"/>
<path fill-rule="evenodd" clip-rule="evenodd" d="M87.7878 61.7258H87.801C89.258 61.7258 90.4382 60.5427 90.4382 59.082C90.4382 57.6226 89.258 56.4382 87.801 56.4382H87.7878C86.332 56.4382 85.1506 57.6226 85.1506 59.082C85.1506 60.5427 86.332 61.7258 87.7878 61.7258Z" fill="#130D3A"/>
<path fill-rule="evenodd" clip-rule="evenodd" d="M87.7878 73.0135H87.801C89.258 73.0135 90.4382 71.8304 90.4382 70.3696C90.4382 68.9103 89.258 67.7258 87.801 67.7258H87.7878C86.332 67.7258 85.1506 68.9103 85.1506 70.3696C85.1506 71.8304 86.332 73.0135 87.7878 73.0135Z" fill="#130D3A"/>
<path fill-rule="evenodd" clip-rule="evenodd" d="M87.7878 84.3011H87.801C89.258 84.3011 90.4382 83.118 90.4382 81.6573C90.4382 80.1979 89.258 79.0135 87.801 79.0135H87.7878C86.332 79.0135 85.1506 80.1979 85.1506 81.6573C85.1506 83.118 86.332 84.3011 87.7878 84.3011Z" fill="#130D3A"/>
<path fill-rule="evenodd" clip-rule="evenodd" d="M87.7878 95.5887H87.801C89.258 95.5887 90.4382 94.4056 90.4382 92.9449C90.4382 91.4855 89.258 90.3011 87.801 90.3011H87.7878C86.332 90.3011 85.1506 91.4855 85.1506 92.9449C85.1506 94.4056 86.332 95.5887 87.7878 95.5887Z" fill="#130D3A"/>
<path fill-rule="evenodd" clip-rule="evenodd" d="M109.075 5.28764H109.089C110.546 5.28764 111.726 4.10453 111.726 2.64382C111.726 1.18443 110.546 0 109.089 0H109.075C107.62 0 106.438 1.18443 106.438 2.64382C106.438 4.10453 107.62 5.28764 109.075 5.28764Z" fill="#130D3A"/>
<path fill-rule="evenodd" clip-rule="evenodd" d="M109.075 16.5753H109.089C110.546 16.5753 111.726 15.3922 111.726 13.9315C111.726 12.4721 110.546 11.2876 109.089 11.2876H109.075C107.62 11.2876 106.438 12.4721 106.438 13.9315C106.438 15.3922 107.62 16.5753 109.075 16.5753Z" fill="#130D3A"/>
<path fill-rule="evenodd" clip-rule="evenodd" d="M109.075 27.8629H109.089C110.546 27.8629 111.726 26.6798 111.726 25.2191C111.726 23.7597 110.546 22.5753 109.089 22.5753H109.075C107.62 22.5753 106.438 23.7597 106.438 25.2191C106.438 26.6798 107.62 27.8629 109.075 27.8629Z" fill="#130D3A"/>
<path fill-rule="evenodd" clip-rule="evenodd" d="M109.075 39.1506H109.089C110.546 39.1506 111.726 37.9674 111.726 36.5067C111.726 35.0473 110.546 33.8629 109.089 33.8629H109.075C107.62 33.8629 106.438 35.0473 106.438 36.5067C106.438 37.9674 107.62 39.1506 109.075 39.1506Z" fill="#130D3A"/>
<path fill-rule="evenodd" clip-rule="evenodd" d="M109.075 50.4382H109.089C110.546 50.4382 111.726 49.2551 111.726 47.7944C111.726 46.335 110.546 45.1506 109.089 45.1506H109.075C107.62 45.1506 106.438 46.335 106.438 47.7944C106.438 49.2551 107.62 50.4382 109.075 50.4382Z" fill="#130D3A"/>
<path fill-rule="evenodd" clip-rule="evenodd" d="M109.075 61.7258H109.089C110.546 61.7258 111.726 60.5427 111.726 59.082C111.726 57.6226 110.546 56.4382 109.089 56.4382H109.075C107.62 56.4382 106.438 57.6226 106.438 59.082C106.438 60.5427 107.62 61.7258 109.075 61.7258Z" fill="#130D3A"/>
<path fill-rule="evenodd" clip-rule="evenodd" d="M109.075 73.0135H109.089C110.546 73.0135 111.726 71.8304 111.726 70.3696C111.726 68.9103 110.546 67.7258 109.089 67.7258H109.075C107.62 67.7258 106.438 68.9103 106.438 70.3696C106.438 71.8304 107.62 73.0135 109.075 73.0135Z" fill="#130D3A"/>
<path fill-rule="evenodd" clip-rule="evenodd" d="M109.075 84.3011H109.089C110.546 84.3011 111.726 83.118 111.726 81.6573C111.726 80.1979 110.546 79.0135 109.089 79.0135H109.075C107.62 79.0135 106.438 80.1979 106.438 81.6573C106.438 83.118 107.62 84.3011 109.075 84.3011Z" fill="#130D3A"/>
<path fill-rule="evenodd" clip-rule="evenodd" d="M109.075 95.5887H109.089C110.546 95.5887 111.726 94.4056 111.726 92.9449C111.726 91.4855 110.546 90.3011 109.089 90.3011H109.075C107.62 90.3011 106.438 91.4855 106.438 92.9449C106.438 94.4056 107.62 95.5887 109.075 95.5887Z" fill="#130D3A"/>
<path fill-rule="evenodd" clip-rule="evenodd" d="M130.363 5.28764H130.376C131.833 5.28764 133.013 4.10453 133.013 2.64382C133.013 1.18443 131.833 0 130.376 0H130.363C128.907 0 127.726 1.18443 127.726 2.64382C127.726 4.10453 128.907 5.28764 130.363 5.28764Z" fill="#130D3A"/>
<path fill-rule="evenodd" clip-rule="evenodd" d="M130.363 16.5753H130.376C131.833 16.5753 133.013 15.3922 133.013 13.9315C133.013 12.4721 131.833 11.2876 130.376 11.2876H130.363C128.907 11.2876 127.726 12.4721 127.726 13.9315C127.726 15.3922 128.907 16.5753 130.363 16.5753Z" fill="#130D3A"/>
<path fill-rule="evenodd" clip-rule="evenodd" d="M130.363 27.8629H130.376C131.833 27.8629 133.013 26.6798 133.013 25.2191C133.013 23.7597 131.833 22.5753 130.376 22.5753H130.363C128.907 22.5753 127.726 23.7597 127.726 25.2191C127.726 26.6798 128.907 27.8629 130.363 27.8629Z" fill="#130D3A"/>
<path fill-rule="evenodd" clip-rule="evenodd" d="M130.363 39.1506H130.376C131.833 39.1506 133.013 37.9674 133.013 36.5067C133.013 35.0473 131.833 33.8629 130.376 33.8629H130.363C128.907 33.8629 127.726 35.0473 127.726 36.5067C127.726 37.9674 128.907 39.1506 130.363 39.1506Z" fill="#130D3A"/>
<path fill-rule="evenodd" clip-rule="evenodd" d="M130.363 50.4382H130.376C131.833 50.4382 133.013 49.2551 133.013 47.7944C133.013 46.335 131.833 45.1506 130.376 45.1506H130.363C128.907 45.1506 127.726 46.335 127.726 47.7944C127.726 49.2551 128.907 50.4382 130.363 50.4382Z" fill="#130D3A"/>
<path fill-rule="evenodd" clip-rule="evenodd" d="M130.363 61.7258H130.376C131.833 61.7258 133.013 60.5427 133.013 59.082C133.013 57.6226 131.833 56.4382 130.376 56.4382H130.363C128.907 56.4382 127.726 57.6226 127.726 59.082C127.726 60.5427 128.907 61.7258 130.363 61.7258Z" fill="#130D3A"/>
<path fill-rule="evenodd" clip-rule="evenodd" d="M130.363 73.0135H130.376C131.833 73.0135 133.013 71.8304 133.013 70.3696C133.013 68.9103 131.833 67.7258 130.376 67.7258H130.363C128.907 67.7258 127.726 68.9103 127.726 70.3696C127.726 71.8304 128.907 73.0135 130.363 73.0135Z" fill="#130D3A"/>
<path fill-rule="evenodd" clip-rule="evenodd" d="M130.363 84.3011H130.376C131.833 84.3011 133.013 83.118 133.013 81.6573C133.013 80.1979 131.833 79.0135 130.376 79.0135H130.363C128.907 79.0135 127.726 80.1979 127.726 81.6573C127.726 83.118 128.907 84.3011 130.363 84.3011Z" fill="#130D3A"/>
<path fill-rule="evenodd" clip-rule="evenodd" d="M130.363 95.5887H130.376C131.833 95.5887 133.013 94.4056 133.013 92.9449C133.013 91.4855 131.833 90.3011 130.376 90.3011H130.363C128.907 90.3011 127.726 91.4855 127.726 92.9449C127.726 94.4056 128.907 95.5887 130.363 95.5887Z" fill="#130D3A"/>
</svg>
