<svg width="152" height="148" viewBox="0 0 152 148" fill="none" xmlns="http://www.w3.org/2000/svg">
<path d="M11.5586 4.61035V6.47949H0.837891V4.61035H11.5586ZM7.19727 0.0449219V11.4316H5.20996V0.0449219H7.19727Z" fill="url(#paint0_linear_2464_3037)"/>
<path d="M11.5586 38.6104V40.4795H0.837891V38.6104H11.5586ZM7.19727 34.0449V45.4316H5.20996V34.0449H7.19727Z" fill="#E8EFFA"/>
<path d="M11.5586 72.6104V74.4795H0.837891V72.6104H11.5586ZM7.19727 68.0449V79.4316H5.20996V68.0449H7.19727Z" fill="#E8EFFA"/>
<path d="M46.5586 4.61035V6.47949H35.8379V4.61035H46.5586ZM42.1973 0.0449219V11.4316H40.21V0.0449219H42.1973Z" fill="#E8EFFA"/>
<path d="M46.5586 38.6104V40.4795H35.8379V38.6104H46.5586ZM42.1973 34.0449V45.4316H40.21V34.0449H42.1973Z" fill="#E8EFFA"/>
<path d="M46.5586 72.6104V74.4795H35.8379V72.6104H46.5586ZM42.1973 68.0449V79.4316H40.21V68.0449H42.1973Z" fill="#E8EFFA"/>
<path d="M46.5586 106.61V108.479H35.8379V106.61H46.5586ZM42.1973 102.045V113.432H40.21V102.045H42.1973Z" fill="#E8EFFA"/>
<path d="M81.5586 4.61035V6.47949H70.8379V4.61035H81.5586ZM77.1973 0.0449219V11.4316H75.21V0.0449219H77.1973Z" fill="#E8EFFA"/>
<path d="M81.5586 38.6104V40.4795H70.8379V38.6104H81.5586ZM77.1973 34.0449V45.4316H75.21V34.0449H77.1973Z" fill="#E8EFFA"/>
<path d="M81.5586 72.6104V74.4795H70.8379V72.6104H81.5586ZM77.1973 68.0449V79.4316H75.21V68.0449H77.1973Z" fill="url(#paint1_linear_2464_3037)"/>
<path d="M81.5586 106.61V108.479H70.8379V106.61H81.5586ZM77.1973 102.045V113.432H75.21V102.045H77.1973Z" fill="#E8EFFA"/>
<path d="M81.5586 140.61V142.479H70.8379V140.61H81.5586ZM77.1973 136.045V147.432H75.21V136.045H77.1973Z" fill="#E8EFFA"/>
<path d="M116.559 4.61035V6.47949H105.838V4.61035H116.559ZM112.197 0.0449219V11.4316H110.21V0.0449219H112.197Z" fill="#E8EFFA"/>
<path d="M116.559 38.6104V40.4795H105.838V38.6104H116.559ZM112.197 34.0449V45.4316H110.21V34.0449H112.197Z" fill="#E8EFFA"/>
<path d="M116.559 72.6104V74.4795H105.838V72.6104H116.559ZM112.197 68.0449V79.4316H110.21V68.0449H112.197Z" fill="#E8EFFA"/>
<path d="M116.559 106.61V108.479H105.838V106.61H116.559ZM112.197 102.045V113.432H110.21V102.045H112.197Z" fill="#E8EFFA"/>
<path d="M116.559 140.61V142.479H105.838V140.61H116.559ZM112.197 136.045V147.432H110.21V136.045H112.197Z" fill="#E8EFFA"/>
<path d="M151.559 4.61035V6.47949H140.838V4.61035H151.559ZM147.197 0.0449219V11.4316H145.21V0.0449219H147.197Z" fill="#E8EFFA"/>
<path d="M151.559 38.6104V40.4795H140.838V38.6104H151.559ZM147.197 34.0449V45.4316H145.21V34.0449H147.197Z" fill="#E8EFFA"/>
<path d="M151.559 72.6104V74.4795H140.838V72.6104H151.559ZM147.197 68.0449V79.4316H145.21V68.0449H147.197Z" fill="#E8EFFA"/>
<path d="M151.559 106.61V108.479H140.838V106.61H151.559ZM147.197 102.045V113.432H145.21V102.045H147.197Z" fill="#E8EFFA"/>
<path d="M151.559 140.61V142.479H140.838V140.61H151.559ZM147.197 136.045V147.432H145.21V136.045H147.197Z" fill="#E8EFFA"/>
<defs>
<linearGradient id="paint0_linear_2464_3037" x1="11.5" y1="11.5" x2="-1.02937" y2="8.83989" gradientUnits="userSpaceOnUse">
<stop stop-color="#FCEB75"/>
<stop offset="1" stop-color="#F79022"/>
</linearGradient>
<linearGradient id="paint1_linear_2464_3037" x1="81.5" y1="79.5" x2="69.2932" y2="77.0685" gradientUnits="userSpaceOnUse">
<stop offset="0.1" stop-color="#9CBC43"/>
<stop offset="0.8" stop-color="#4C766D"/>
</linearGradient>
</defs>
</svg>
