<svg width="555" height="91" viewBox="0 0 555 91" fill="none" xmlns="http://www.w3.org/2000/svg">
<path d="M85 80V17.0945C85 11.9203 78.2391 10.0541 75.6154 14.4989L52.3391 53.993C50.3882 57.3181 45.6286 57.3181 43.6609 53.993L20.3845 14.4989C17.7609 10.0541 11 11.9203 11 17.0945V80" stroke="#364758" stroke-width="22" stroke-miterlimit="10" stroke-linecap="round"/>
<path fill-rule="evenodd" clip-rule="evenodd" d="M7.25 90.3393L7.25 3.61932C7.57437 3.40397 7.90806 3.21518 8.25 3.0293L8.25 90.6493C7.91599 90.5888 7.55779 90.4827 7.25 90.3393Z" fill="url(#paint0_linear_2_18261)"/>
<path fill-rule="evenodd" clip-rule="evenodd" d="M88.5 63.501L88.5 3.46094C88.8412 3.67309 89.174 3.89618 89.5 4.13098L89.5 63.501C89.5 64.4649 89.4154 64.7836 88.9533 65.6307L83.9092 74.8782C83.5581 75.522 83.5 75.7663 83.5 76.501L83.5 90.901C83.1645 90.8515 82.8316 90.7916 82.5 90.721L82.5 76.501C82.5 75.5758 82.56 75.2634 83 74.4568L88.0779 65.1474C88.435 64.4926 88.5 64.2462 88.5 63.501Z" fill="url(#paint1_linear_2_18261)"/>
<g clip-path="url(#clip0_2_18261)">
<rect x="105" y="1" width="90" height="90" rx="45" fill="white"/>
<path d="M195 46C195 70.8528 174.853 91 150 91C125.147 91 105 70.8528 105 46C105 21.1472 125.147 1 150 1C174.853 1 195 21.1472 195 46ZM118.5 46C118.5 63.397 132.603 77.5 150 77.5C167.397 77.5 181.5 63.397 181.5 46C181.5 28.603 167.397 14.5 150 14.5C132.603 14.5 118.5 28.603 118.5 46Z" fill="#364758"/>
<path d="M140.182 84.2908L140.183 84.291L149.849 91.3689L149.849 91.8689C149.85 91.8689 149.85 91.8689 149.851 91.8689C152.155 91.8686 154.416 91.6961 156.629 91.3675L157.056 91.3041L157.056 90.8729L157.056 87.4852C157.056 85.9745 158.07 84.6583 159.529 84.2888C177.063 79.8525 189.322 64.1193 189.324 46.0352C189.326 23.5472 171.105 6.52797 149.856 6.57982C130.023 6.58237 110.381 22.117 110.379 46.0375C110.377 64.1322 122.633 79.8633 140.182 84.2908ZM149.856 23.2295L149.856 23.2295C162.423 23.2231 172.654 33.4542 172.653 46.026C172.651 58.5978 162.423 68.826 149.851 68.8272C137.28 68.8284 127.054 58.6024 127.055 46.0307C127.056 33.4589 137.284 23.2308 149.856 23.2295Z" fill="#364758" stroke="white"/>
<g filter="url(#filter0_dd_2_18261)">
<circle cx="150" cy="46" r="24" fill="white"/>
</g>
<path d="M148.183 69.2359C148.183 67.7146 147.574 58.5871 145.749 52.5021M145.749 52.5021C144.532 46.7213 140.881 47.6341 140.273 49.4596C139.055 52.5021 142.098 54.0233 145.749 52.5021ZM145.749 52.5021C146.56 52.2993 148.717 51.1276 150.238 48.0851M150.238 48.0851C152.138 46.417 153.248 42 149.934 42C147.574 42.1575 146.966 45.2 150.238 48.0851ZM150.238 48.0851C150.617 49.1553 151.591 51.2851 154.268 52.5021M154.268 52.5021C157.615 54.0233 160.962 52.5021 159.745 49.4596C158.528 47.0256 155.181 47.9383 154.268 52.5021ZM154.268 52.5021C153.457 55.4432 151.834 62.9075 151.834 69.2359" stroke="url(#paint2_linear_2_18261)" stroke-linecap="round"/>
</g>
<g clip-path="url(#clip1_2_18261)">
<path d="M217 80V58.439C217 55.6859 219.186 53.4634 221.894 53.4634H243.915C255.17 53.4634 264.304 44.1756 264.304 32.7317C264.304 21.2878 255.17 12 243.915 12H217.816" stroke="#364758" stroke-width="22" stroke-miterlimit="10" stroke-linecap="round"/>
<path fill-rule="evenodd" clip-rule="evenodd" d="M269.4 51.25L249.548 51.25C248.469 51.25 247.989 51.3674 247.243 52.1133L241.885 57.4682C241.08 58.2733 240.911 58.25 239.806 58.25L224.5 58.25C221.262 58.25 218.75 61 218.75 64V77.385V90.86C218.45 90.9206 218.088 90.9482 217.75 90.97V64.6438C217.75 60.4449 220.346 57.25 225 57.25L239.571 57.25C240.366 57.25 240.895 57.0447 241.44 56.5L246.631 51.309C247.591 50.3492 247.964 50.25 249.356 50.25L270.08 50.25C269.867 50.5951 269.625 50.9594 269.4 51.25Z" fill="url(#paint3_linear_2_18261)"/>
<path fill-rule="evenodd" clip-rule="evenodd" d="M229.787 7H235.501H238.989H243.702C244.781 7 245.262 6.88259 246.007 6.13669C246.007 6.13669 248.637 3.50594 250.455 1.68923C250.838 1.76006 251.216 1.84837 251.591 1.95375C250.331 3.23554 249.059 4.50528 247.787 5.77512C247.398 6.16362 247.009 6.55212 246.62 6.94099C245.66 7.90084 245.286 8 243.895 8H238.99H235.5H229.595C228.203 8 227.83 7.90084 226.87 6.94099C226.481 6.55212 226.092 6.16362 225.703 5.77512C224.116 4.19095 222.529 2.60695 220.966 0.999512H222.344C224.086 2.73867 227.482 6.13669 227.482 6.13669C228.228 6.88259 228.709 7 229.787 7Z" fill="url(#paint4_linear_2_18261)"/>
</g>
<path d="M354.919 69.9259C350.385 74.4593 344.844 80 332.126 80C311.6 80 298 64.6586 298 45.7481C298 25.6 312.104 12 332.126 12C339.304 12 349.378 15.0222 354.919 21.5704" stroke="#364758" stroke-width="22" stroke-miterlimit="10" stroke-linecap="round"/>
<path fill-rule="evenodd" clip-rule="evenodd" d="M294.75 19.5391C294.408 20.0428 294.066 20.5485 293.75 21.069L293.75 54.999C293.75 55.9091 294.018 56.6362 294.5 57.386C294.5 57.386 298.943 64.2974 301.79 68.7259C302.011 69.0691 302.31 69.5369 302.31 69.5369C302.672 70.0997 302.75 70.3258 302.75 70.999C302.75 71.3895 302.75 71.6988 302.75 71.999C302.75 75.2287 302.75 80.689 302.75 80.689C303.071 80.9844 303.384 81.2603 303.75 81.509V70.999C303.75 70.0977 303.669 69.6523 303.175 68.8842L295.207 56.5431C294.876 56.0223 294.775 55.7036 294.75 54.999C294.75 54.999 294.75 31.3544 294.75 19.5391Z" fill="url(#paint5_linear_2_18261)"/>
<path fill-rule="evenodd" clip-rule="evenodd" d="M342.524 70.073C340.998 70.8381 339.766 72.0858 339.022 73.6223C338.901 73.8708 339.005 74.1699 339.253 74.2904C339.502 74.4108 339.801 74.307 339.921 74.0585C340.57 72.7202 341.643 71.6334 342.972 70.967C344.302 70.3006 345.814 70.0919 347.275 70.3732C347.546 70.4254 347.808 70.248 347.86 69.9768C347.912 69.7057 347.735 69.4435 347.464 69.3913C345.787 69.0682 344.051 69.3079 342.524 70.073ZM338.478 76.2386C338.249 76.3934 338.189 76.7043 338.344 76.9329C338.499 77.1616 338.81 77.2213 339.038 77.0665L339.044 77.0624C339.273 76.9075 339.333 76.5966 339.178 76.368C339.023 76.1394 338.712 76.0796 338.484 76.2345L338.478 76.2386ZM350.387 70.6113C350.159 70.4551 349.848 70.5131 349.692 70.7408C349.536 70.9685 349.594 71.2797 349.821 71.4359C350.696 72.0361 351.418 72.8342 351.926 73.7654C352.435 74.6965 352.717 75.7346 352.749 76.7953C352.781 77.856 352.562 78.9094 352.111 79.87C351.659 80.8306 350.988 81.6713 350.151 82.3238C349.313 82.9764 348.334 83.4224 347.292 83.6256C346.251 83.8288 345.176 83.7836 344.155 83.4935C343.134 83.2034 342.196 82.6768 341.417 81.9562C340.638 81.2357 340.04 80.3416 339.672 79.3466C339.576 79.0876 339.288 78.9554 339.029 79.0513C338.77 79.1471 338.638 79.4348 338.734 79.6938C339.157 80.8363 339.844 81.8629 340.738 82.6903C341.632 83.5176 342.709 84.1224 343.881 84.4554C345.054 84.7885 346.288 84.8404 347.484 84.6071C348.68 84.3738 349.804 83.8617 350.765 83.1125C351.727 82.3634 352.498 81.3982 353.016 80.2953C353.534 79.1924 353.785 77.9829 353.748 76.7651C353.711 75.5472 353.388 74.3552 352.804 73.286C352.22 72.2168 351.392 71.3004 350.387 70.6113ZM343.413 78.7524C342.445 77.3234 342.819 75.3802 344.248 74.4121C345.677 73.444 347.62 73.8177 348.588 75.2467C349.556 76.6758 349.182 78.619 347.753 79.587C346.324 80.5551 344.381 80.1814 343.413 78.7524ZM343.687 73.5842C341.801 74.862 341.307 77.427 342.585 79.3132C343.863 81.1995 346.428 81.6928 348.314 80.4149C350.2 79.1371 350.694 76.5722 349.416 74.6859C348.138 72.7996 345.573 72.3064 343.687 73.5842Z" fill="url(#paint6_linear_2_18261)"/>
<path fill-rule="evenodd" clip-rule="evenodd" d="M357.795 15.6453C357.101 15.3669 356.357 15.233 355.61 15.2517C354.862 15.2705 354.126 15.4416 353.447 15.7545C352.768 16.0674 352.159 16.5156 351.659 17.0716C351.159 17.6276 350.778 18.2797 350.539 18.9882C350.3 19.6966 350.207 20.4463 350.268 21.1916C350.329 21.9368 350.541 22.6618 350.891 23.3223C351.242 23.9827 351.724 24.5647 352.307 25.0326C352.522 25.2054 352.837 25.1708 353.01 24.9554C353.183 24.74 353.148 24.4253 352.933 24.2525C352.456 23.8697 352.062 23.3936 351.775 22.8534C351.488 22.3131 351.314 21.72 351.265 21.1105C351.215 20.5009 351.291 19.8876 351.486 19.3081C351.682 18.7286 351.994 18.1951 352.403 17.7403C352.812 17.2854 353.31 16.9188 353.865 16.6628C354.421 16.4067 355.023 16.2668 355.635 16.2514C356.246 16.2361 356.855 16.3456 357.423 16.5734C357.679 16.6762 357.97 16.5518 358.073 16.2955C358.176 16.0392 358.051 15.7481 357.795 15.6453ZM361.249 20.4424C361.233 20.1667 360.997 19.956 360.721 19.9717C360.445 19.9875 360.235 20.2238 360.25 20.4995C360.291 21.2123 360.161 21.9247 359.872 22.5775C359.583 23.2303 359.142 23.8048 358.586 24.2535C358.371 24.427 358.338 24.7418 358.511 24.9567C358.685 25.1715 359 25.2051 359.215 25.0316C359.894 24.4831 360.433 23.7808 360.786 22.9827C361.14 22.1847 361.299 21.3139 361.249 20.4424ZM355.76 25.25C355.484 25.25 355.26 25.4739 355.26 25.75C355.26 26.0261 355.484 26.25 355.76 26.25H355.768C356.045 26.25 356.268 26.0261 356.268 25.75C356.268 25.4739 356.045 25.25 355.768 25.25H355.76ZM355.75 22.75C356.855 22.75 357.75 21.8546 357.75 20.75C357.75 19.6454 356.855 18.75 355.75 18.75C354.645 18.75 353.75 19.6454 353.75 20.75C353.75 21.8546 354.645 22.75 355.75 22.75Z" fill="url(#paint7_linear_2_18261)"/>
<g clip-path="url(#clip2_2_18261)">
<rect x="377" y="1" width="90" height="90" rx="45" fill="white"/>
<path d="M467 46C467 70.8528 446.853 91 422 91C397.147 91 377 70.8528 377 46C377 21.1472 397.147 1 422 1C446.853 1 467 21.1472 467 46ZM392.75 46C392.75 62.1543 405.846 75.25 422 75.25C438.154 75.25 451.25 62.1543 451.25 46C451.25 29.8457 438.154 16.75 422 16.75C405.846 16.75 392.75 29.8457 392.75 46Z" fill="#364758"/>
<path d="M392.743 49.9479L392.743 49.9476C391.577 40.7383 394.645 31.7057 401.176 25.1749C406.789 19.5615 414.253 16.5 422.094 16.5C423.373 16.5 424.66 16.5756 425.949 16.7424C439.061 18.4101 449.771 29.1276 451.431 42.232C452.597 51.4413 449.529 60.4664 442.998 66.9971L392.743 49.9479ZM392.743 49.9479C394.41 63.0523 405.128 73.77 418.233 75.4298L418.233 75.4298M392.743 49.9479L418.233 75.4298M418.233 75.4298C427.449 76.5961 436.475 73.5281 442.998 66.9973L418.233 75.4298ZM399.738 49.0248L399.738 49.0247C397.865 34.2958 410.304 21.8573 425.033 23.7303L425.033 23.7303C435.063 25.0051 443.168 33.1096 444.443 43.14C446.316 57.8688 433.877 70.3001 419.155 68.4343C409.125 67.1595 401.013 59.0548 399.738 49.0248Z" fill="#364758" stroke="white"/>
<path d="M403.074 83.7651L403.074 83.7646C403.988 82.1863 405.697 81.1992 407.524 81.1992H436.439C438.275 81.1992 439.976 82.1869 440.89 83.7727L403.074 83.7651ZM403.074 83.7651L401.538 86.4258L401.272 86.8865L401.748 87.1235C408.88 90.6703 417.064 92.4131 425.702 91.7236L425.702 91.7236C431.578 91.2535 437.141 89.6159 442.194 87.0932L442.669 86.8559L442.404 86.3959L440.89 83.7731L403.074 83.7651Z" fill="#364758" stroke="white"/>
<path d="M416.07 86.625H428.07" stroke="white" stroke-width="0.75" stroke-linecap="round"/>
<circle cx="422" cy="46" r="24" fill="white"/>
<g filter="url(#filter1_ddd_2_18261)">
<path d="M421.667 68.6481C421.074 67.463 420.481 64.5 421.4 60.6333M421.4 60.6333C420.733 58.6333 419.8 56.7667 418.333 55.7C416.867 54.6333 414.733 53.9667 411 54.6333C411.933 57.7 413.4 59.4333 415 60.2333C416.733 61.1667 418.733 61.1667 421.4 60.6333ZM421.4 60.6333C420.541 57.6704 421.4 53.7346 423.444 51.463C424.644 50.1296 427.4 48.6333 431 48.5C430.867 51.5667 430.556 54.2284 429.37 56.2037C427.593 59.1667 423.77 60.6333 421.4 60.6333Z" stroke="url(#paint8_linear_2_18261)" stroke-linecap="round" stroke-linejoin="round" shape-rendering="crispEdges"/>
</g>
</g>
<path d="M490 79.4207V16.7659C490 11.8471 496.742 10.1597 499.18 14.4736L534.82 77.5264C537.258 81.8403 544 80.1529 544 75.2341V12.5793" stroke="#364758" stroke-width="22" stroke-miterlimit="10" stroke-linecap="round"/>
<path fill-rule="evenodd" clip-rule="evenodd" d="M545.5 29.9599L545.5 89.72C545.172 89.8579 544.839 89.981 544.5 90.0898L544.5 29.9599C544.5 28.996 544.585 28.6773 545.047 27.8301L550.091 18.5826C550.442 17.9388 550.5 17.6946 550.5 16.9598V3.7C550.847 3.96075 551.18 4.23677 551.5 4.53V16.9598C551.5 17.885 551.44 18.1974 551 19.004L545.922 28.3134C545.565 28.9682 545.5 29.2147 545.5 29.9599Z" fill="url(#paint9_linear_2_18261)"/>
<path d="M487.072 10.2664C486.089 11.8169 485.669 13.6581 485.883 15.4812C486.097 17.3044 486.932 18.9984 488.247 20.2793C489.562 21.5601 491.277 22.3498 493.105 22.5158C494.933 22.6819 496.763 22.2142 498.287 21.1913C499.811 20.1683 500.937 18.6523 501.476 16.8976C502.015 15.1429 501.934 13.2562 501.247 11.554C500.56 9.85182 499.308 8.43773 497.702 7.54894C496.096 6.66015 494.233 6.35073 492.426 6.6726M492.933 13.2135L489.402 7.95281M494.124 12.9588C494.991 13.1294 495.556 13.9706 495.385 14.8376C495.215 15.7046 494.374 16.2692 493.507 16.0986C492.64 15.9279 492.075 15.0868 492.246 14.2197C492.416 13.3527 493.257 12.7882 494.124 12.9588Z" stroke="url(#paint10_linear_2_18261)" stroke-linecap="round" stroke-linejoin="round"/>
<path d="M493.294 26.4567L493.41 25.1999M500.231 24.2285L499.471 23.0987M504.911 18.6443L503.713 18.2811" stroke="url(#paint11_linear_2_18261)" stroke-linecap="round" stroke-linejoin="round"/>
<path fill-rule="evenodd" clip-rule="evenodd" d="M486 89.6698L486 62.9766C486 61.898 485.883 61.4174 485.137 60.6716C484.391 59.9257 479 56.2229 479 56.2229L479 54.8998C479 54.8998 484.981 59.0995 485.941 60.0594C486.901 61.0192 487 61.3926 487 62.7843L487 90.0098C486.66 89.914 486.327 89.8047 486 89.6698Z" fill="url(#paint12_linear_2_18261)"/>
<defs>
<filter id="filter0_dd_2_18261" x="100" y="-8" width="100" height="100" filterUnits="userSpaceOnUse" color-interpolation-filters="sRGB">
<feFlood flood-opacity="0" result="BackgroundImageFix"/>
<feColorMatrix in="SourceAlpha" type="matrix" values="0 0 0 0 0 0 0 0 0 0 0 0 0 0 0 0 0 0 127 0" result="hardAlpha"/>
<feMorphology radius="1" operator="dilate" in="SourceAlpha" result="effect1_dropShadow_2_18261"/>
<feOffset dy="-2"/>
<feGaussianBlur stdDeviation="7.5"/>
<feComposite in2="hardAlpha" operator="out"/>
<feColorMatrix type="matrix" values="0 0 0 0 0.988235 0 0 0 0 0.921569 0 0 0 0 0.458824 0 0 0 0.4 0"/>
<feBlend mode="normal" in2="BackgroundImageFix" result="effect1_dropShadow_2_18261"/>
<feColorMatrix in="SourceAlpha" type="matrix" values="0 0 0 0 0 0 0 0 0 0 0 0 0 0 0 0 0 0 127 0" result="hardAlpha"/>
<feMorphology radius="6" operator="dilate" in="SourceAlpha" result="effect2_dropShadow_2_18261"/>
<feOffset dy="-4"/>
<feGaussianBlur stdDeviation="10"/>
<feComposite in2="hardAlpha" operator="out"/>
<feColorMatrix type="matrix" values="0 0 0 0 1 0 0 0 0 1 0 0 0 0 1 0 0 0 0.3 0"/>
<feBlend mode="normal" in2="effect1_dropShadow_2_18261" result="effect2_dropShadow_2_18261"/>
<feBlend mode="normal" in="SourceGraphic" in2="effect2_dropShadow_2_18261" result="shape"/>
</filter>
<filter id="filter1_ddd_2_18261" x="390.5" y="26" width="61" height="61.1484" filterUnits="userSpaceOnUse" color-interpolation-filters="sRGB">
<feFlood flood-opacity="0" result="BackgroundImageFix"/>
<feColorMatrix in="SourceAlpha" type="matrix" values="0 0 0 0 0 0 0 0 0 0 0 0 0 0 0 0 0 0 127 0" result="hardAlpha"/>
<feOffset dy="-4"/>
<feGaussianBlur stdDeviation="7.5"/>
<feComposite in2="hardAlpha" operator="out"/>
<feColorMatrix type="matrix" values="0 0 0 0 0.611765 0 0 0 0 0.737255 0 0 0 0 0.262745 0 0 0 1 0"/>
<feBlend mode="normal" in2="BackgroundImageFix" result="effect1_dropShadow_2_18261"/>
<feColorMatrix in="SourceAlpha" type="matrix" values="0 0 0 0 0 0 0 0 0 0 0 0 0 0 0 0 0 0 127 0" result="hardAlpha"/>
<feOffset dy="-2"/>
<feGaussianBlur stdDeviation="5"/>
<feComposite in2="hardAlpha" operator="out"/>
<feColorMatrix type="matrix" values="0 0 0 0 0.611765 0 0 0 0 0.737255 0 0 0 0 0.262745 0 0 0 1 0"/>
<feBlend mode="normal" in2="effect1_dropShadow_2_18261" result="effect2_dropShadow_2_18261"/>
<feColorMatrix in="SourceAlpha" type="matrix" values="0 0 0 0 0 0 0 0 0 0 0 0 0 0 0 0 0 0 127 0" result="hardAlpha"/>
<feOffset dy="-2"/>
<feGaussianBlur stdDeviation="10"/>
<feComposite in2="hardAlpha" operator="out"/>
<feColorMatrix type="matrix" values="0 0 0 0 0.988235 0 0 0 0 0.921569 0 0 0 0 0.458824 0 0 0 1 0"/>
<feBlend mode="normal" in2="effect2_dropShadow_2_18261" result="effect3_dropShadow_2_18261"/>
<feBlend mode="normal" in="SourceGraphic" in2="effect3_dropShadow_2_18261" result="shape"/>
</filter>
<linearGradient id="paint0_linear_2_18261" x1="8.5" y1="3.99927" x2="8.5" y2="89.9992" gradientUnits="userSpaceOnUse">
<stop offset="0.4" stop-color="#9DBC43"/>
<stop offset="0.905" stop-color="#FCEB75"/>
</linearGradient>
<linearGradient id="paint1_linear_2_18261" x1="86" y1="-5.04104" x2="86" y2="97.3119" gradientUnits="userSpaceOnUse">
<stop offset="0.095" stop-color="#FCEB75"/>
<stop offset="0.6" stop-color="#9DBC43"/>
</linearGradient>
<linearGradient id="paint2_linear_2_18261" x1="160" y1="69.2359" x2="137.116" y2="66.5472" gradientUnits="userSpaceOnUse">
<stop stop-color="#FCEB75"/>
<stop offset="1" stop-color="#F79022"/>
</linearGradient>
<linearGradient id="paint3_linear_2_18261" x1="276.177" y1="52" x2="210.294" y2="52" gradientUnits="userSpaceOnUse">
<stop offset="0.095" stop-color="#FCEB75"/>
<stop offset="0.6" stop-color="#9DBC43"/>
</linearGradient>
<linearGradient id="paint4_linear_2_18261" x1="239.94" y1="7.13356" x2="233.55" y2="0.743257" gradientUnits="userSpaceOnUse">
<stop offset="0.4" stop-color="#9DBC43"/>
<stop offset="0.905" stop-color="#FCEB75"/>
</linearGradient>
<linearGradient id="paint5_linear_2_18261" x1="298.75" y1="15.999" x2="298.75" y2="85.999" gradientUnits="userSpaceOnUse">
<stop offset="0.4" stop-color="#9DBC43"/>
<stop offset="0.905" stop-color="#FCEB75"/>
</linearGradient>
<linearGradient id="paint6_linear_2_18261" x1="341.157" y1="69.8496" x2="350.977" y2="84.3462" gradientUnits="userSpaceOnUse">
<stop offset="0.4" stop-color="#9DBC43"/>
<stop offset="0.905" stop-color="#FCEB75"/>
</linearGradient>
<linearGradient id="paint7_linear_2_18261" x1="355.754" y1="14.6216" x2="355.754" y2="27.047" gradientUnits="userSpaceOnUse">
<stop offset="0.4" stop-color="#9DBC43"/>
<stop offset="0.905" stop-color="#FCEB75"/>
</linearGradient>
<linearGradient id="paint8_linear_2_18261" x1="431" y1="68.6481" x2="408.371" y2="65.0541" gradientUnits="userSpaceOnUse">
<stop offset="0.1" stop-color="#9CBC43"/>
<stop offset="0.8" stop-color="#4C766D"/>
</linearGradient>
<linearGradient id="paint9_linear_2_18261" x1="548" y1="98.502" x2="548" y2="-3.85093" gradientUnits="userSpaceOnUse">
<stop offset="0.095" stop-color="#FCEB75"/>
<stop offset="0.6" stop-color="#9DBC43"/>
</linearGradient>
<linearGradient id="paint10_linear_2_18261" x1="485.083" y1="12.8276" x2="502.816" y2="16.3171" gradientUnits="userSpaceOnUse">
<stop offset="0.4" stop-color="#9DBC43"/>
<stop offset="0.905" stop-color="#FCEB75"/>
</linearGradient>
<linearGradient id="paint11_linear_2_18261" x1="492" y1="24.9995" x2="502.5" y2="20.9995" gradientUnits="userSpaceOnUse">
<stop offset="0.4" stop-color="#9DBC43"/>
<stop offset="0.905" stop-color="#FCEB75"/>
</linearGradient>
<linearGradient id="paint12_linear_2_18261" x1="484.25" y1="89.6044" x2="484.25" y2="23.7221" gradientUnits="userSpaceOnUse">
<stop offset="0.095" stop-color="#FCEB75"/>
<stop offset="0.6" stop-color="#9DBC43"/>
</linearGradient>
<clipPath id="clip0_2_18261">
<rect x="105" y="1" width="90" height="90" rx="45" fill="white"/>
</clipPath>
<clipPath id="clip1_2_18261">
<rect width="68" height="90" fill="white" transform="translate(207 1)"/>
</clipPath>
<clipPath id="clip2_2_18261">
<rect x="377" y="1" width="90" height="90" rx="45" fill="white"/>
</clipPath>
</defs>
</svg>
