<svg width="451" height="136" viewBox="0 0 451 136" fill="none" xmlns="http://www.w3.org/2000/svg">
<path d="M47.4966 38.8429H3.44461L3.00003 39.2875V80.8879C2.9954 83.2713 3.52951 85.6248 4.56243 87.7726C8.48325 94.3017 13.5261 97.5662 19.691 97.5662H20.3516L20.7961 97.1216V55.5211H25.242V80.926C25.2373 83.3093 25.7715 85.6629 26.8044 87.8108C30.7252 94.306 35.7511 97.5535 41.8822 97.5535H42.5427L42.9873 97.109V55.5211H47.4458V80.926C47.4368 83.3084 47.9666 85.662 48.9955 87.8108C52.9164 94.3398 57.9592 97.6043 64.1241 97.6043H64.7847L65.2292 97.1598V55.5211C65.2273 53.9399 65.005 52.3666 64.5687 50.8466C61.3 42.8441 55.6093 38.8429 47.4966 38.8429Z" fill="#314559"/>
<path d="M112.267 38.8429H82.2381L81.7935 39.2875V69.316C81.9561 74.6173 83.5732 79.7719 86.468 84.216C93.0648 93.1077 100.923 97.5535 110.044 97.5535H140.072L140.517 97.109V67.309C140.517 59.967 137.477 53.1458 131.397 46.8454C125.172 41.5104 118.796 38.8429 112.267 38.8429ZM123.61 70.599C121.391 77.416 117.314 80.8287 111.378 80.8372L108.481 80.6085C101.817 78.3051 98.4803 74.1514 98.4718 68.1474C98.566 64.9198 99.83 61.8365 102.029 59.4717C104.713 56.9312 107.385 55.6609 110.044 55.6609H112.267C113.585 55.6919 114.882 55.9945 116.077 56.55C121.26 59.0905 123.856 62.8717 123.864 67.8934L123.61 70.599Z" fill="#314559"/>
<path d="M261.559 97.5535C264.513 97.4722 267.438 96.9455 270.234 95.9912C277.508 93.363 283.485 88.0241 286.913 81.0911H286.697L286.468 80.8752H261.559L257.113 80.4307C250.889 78.0511 247.772 73.9694 247.764 68.1855C247.816 65.3363 248.838 62.5899 250.66 60.3989C252.591 57.1471 257.041 55.517 264.01 55.5085H289.415L289.86 55.0639V39.2875L289.415 38.8429H259.78C253.404 38.8429 247.324 41.142 241.54 45.7403C234.562 52.1169 231.077 59.3827 231.086 67.5377V97.1216L231.53 97.5662L261.559 97.5535Z" fill="#314559"/>
<path d="M333.619 97.5535H363.647L364.092 97.109V67.309C364.092 59.967 361.052 53.1458 354.972 46.8454C348.748 41.5104 342.371 38.8429 335.842 38.8429H305.813L305.369 39.2875V69.316C305.537 74.6164 307.154 79.7693 310.043 84.216C316.64 93.1077 324.499 97.5535 333.619 97.5535ZM325.616 59.4462C328.284 56.9057 330.951 55.6355 333.619 55.6355H335.842C337.16 55.6654 338.457 55.9681 339.653 56.5247C344.835 59.0652 347.431 62.8462 347.439 67.8679L347.211 70.5354C344.992 77.3524 340.914 80.7651 334.978 80.7736L332.082 80.545C325.417 78.2416 322.081 74.0879 322.072 68.0839C322.186 64.8968 323.444 61.8573 325.616 59.5224V59.4462Z" fill="#314559"/>
<path d="M442.326 50.8466C439.023 42.8441 433.316 38.8429 425.203 38.8429H381.151L380.706 39.2875V80.8879C380.714 83.2742 381.261 85.6279 382.307 87.7726C386.228 94.3017 391.271 97.5662 397.435 97.5662H398.096L398.541 97.1216V55.5211L409.668 55.7498H414.063L425.19 55.5211V80.926C425.201 83.2968 425.739 85.6354 426.765 87.7726C430.695 94.2932 435.733 97.5535 441.881 97.5535H442.554L442.999 97.109V55.5211C442.993 53.9393 442.766 52.366 442.326 50.8466Z" fill="#314559"/>
<path d="M184.657 55.1412H187.553C187.96 55.2682 188.316 55.4206 188.697 55.5604V38.0056H184.988C184.138 38.0166 183.29 38.076 182.447 38.1834C179.351 38.5716 176.343 39.4867 173.555 40.8891C172.317 41.4924 171.113 42.1623 169.948 42.896C161.353 49.3827 157.051 57.0974 157.042 66.0399V76.2018L156.814 125.741H157.042L157.271 125.97H157.931L161.272 125.525C169.427 122.333 173.505 116.994 173.505 109.508V64.2869C175.334 59.117 178.293 56.132 182.396 55.3952C183.14 55.2384 183.897 55.1533 184.657 55.1412Z" fill="#314559"/>
<path d="M215.029 38.4501L214.584 38.0056H197.614V70.2062C195.759 75.5667 192.8 78.7423 188.722 79.7966C187.694 80.0698 186.636 80.2106 185.572 80.2158L182.905 79.9998C182.727 79.9363 182.587 79.8602 182.422 79.8093V97.3514H187.503C187.922 97.3514 188.341 97.3514 188.773 97.2752C191.853 97.097 194.87 96.3339 197.665 95.0268C201.039 93.403 204.138 91.2599 206.849 88.6756C212.319 82.6716 215.063 76.2188 215.08 69.3171L215.029 38.4501Z" fill="#314559"/>
<path d="M427.02 104.49C423.115 104.624 419.409 106.243 416.656 109.017C413.904 111.79 412.314 115.509 412.209 119.415V135.039L412.451 135.268H428.189C432.965 135.268 437.085 132.935 440.548 128.269C442.063 125.937 442.911 123.236 443 120.457V104.719L442.759 104.49H427.02Z" fill="#314559"/>
<path d="M19.0178 30.7907C23.7939 30.7907 27.9137 28.4577 31.3772 23.7916C32.8916 21.46 33.7394 18.7585 33.8288 15.9797V0.241349L33.5875 0H17.811C13.8974 0.141267 10.1852 1.77114 7.43261 4.5568C4.68 7.34246 3.09455 11.0738 3 14.9889V30.6128L3.24135 30.8542L19.0178 30.7907Z" fill="#314559"/>
<path d="M187.731 129.806C187.607 129.681 187.51 129.532 187.447 129.368C187.383 129.204 187.355 129.029 187.363 128.853C187.358 127.993 187.625 127.153 188.125 126.453C188.596 125.764 189.165 125.147 189.814 124.623C190.767 123.88 191.759 123.189 192.787 122.553C193.752 121.943 194.552 121.397 195.2 120.914C195.766 120.591 196.248 120.14 196.61 119.597C196.972 119.055 197.202 118.436 197.283 117.789C197.309 117.36 197.234 116.931 197.064 116.537C196.894 116.142 196.634 115.792 196.305 115.516C195.445 114.938 194.417 114.666 193.384 114.741C191.922 114.734 190.476 115.037 189.141 115.63C188.995 115.705 188.835 115.748 188.671 115.757C188.543 115.755 188.416 115.729 188.298 115.678C188.18 115.627 188.073 115.554 187.983 115.462C187.893 115.37 187.823 115.261 187.775 115.142C187.728 115.022 187.704 114.895 187.706 114.766C187.7 114.569 187.75 114.375 187.852 114.206C187.953 114.037 188.101 113.901 188.277 113.814C189.986 112.966 191.87 112.531 193.777 112.543C194.782 112.521 195.778 112.735 196.686 113.166C197.532 113.56 198.253 114.18 198.769 114.957C199.272 115.746 199.532 116.664 199.519 117.599C199.526 118.576 199.228 119.53 198.668 120.33C198.137 121.109 197.5 121.81 196.775 122.413C195.73 123.243 194.641 124.015 193.511 124.725C192.24 125.589 191.351 126.237 190.818 126.668C190.349 127.026 189.964 127.481 189.687 128.002H198.274C198.416 128 198.557 128.028 198.688 128.082C198.819 128.137 198.938 128.218 199.036 128.32C199.142 128.419 199.225 128.54 199.282 128.673C199.339 128.806 199.368 128.95 199.367 129.095C199.367 129.236 199.338 129.375 199.281 129.505C199.224 129.634 199.141 129.749 199.036 129.844C198.833 130.046 198.56 130.16 198.274 130.162H188.696C188.52 130.173 188.342 130.147 188.176 130.086C188.01 130.025 187.858 129.929 187.731 129.806Z" fill="#314559"/>
<path d="M204.143 128.04C202.995 126.046 202.391 123.786 202.391 121.485C202.391 119.185 202.995 116.925 204.143 114.931C204.713 114.152 205.468 113.527 206.339 113.112C207.211 112.698 208.172 112.506 209.135 112.556C210.094 112.512 211.049 112.704 211.916 113.113C212.784 113.523 213.539 114.138 214.115 114.906C215.28 116.9 215.894 119.169 215.894 121.479C215.894 123.789 215.28 126.058 214.115 128.053C213.512 128.793 212.752 129.391 211.889 129.801C211.027 130.211 210.084 130.424 209.129 130.424C208.174 130.424 207.231 130.211 206.369 129.801C205.506 129.391 204.746 128.793 204.143 128.053V128.04ZM212.413 126.503C213.181 124.944 213.581 123.23 213.581 121.492C213.581 119.754 213.181 118.039 212.413 116.481C212.057 115.938 211.571 115.493 211 115.185C210.429 114.876 209.791 114.715 209.142 114.715C208.493 114.715 207.854 114.876 207.283 115.185C206.712 115.493 206.227 115.938 205.871 116.481C205.102 118.039 204.702 119.754 204.702 121.492C204.702 123.23 205.102 124.944 205.871 126.503C206.225 127.048 206.709 127.496 207.281 127.806C207.852 128.117 208.492 128.279 209.142 128.279C209.792 128.279 210.431 128.117 211.003 127.806C211.574 127.496 212.059 127.048 212.413 126.503Z" fill="#314559"/>
<path d="M218.89 129.806C218.766 129.681 218.67 129.532 218.606 129.368C218.543 129.204 218.514 129.029 218.522 128.853C218.517 127.993 218.784 127.153 219.284 126.452C219.755 125.763 220.324 125.147 220.974 124.623C221.927 123.88 222.919 123.189 223.946 122.553C224.911 121.943 225.712 121.397 226.36 120.914C226.925 120.59 227.408 120.14 227.769 119.597C228.131 119.055 228.361 118.436 228.443 117.789C228.468 117.36 228.393 116.931 228.223 116.537C228.053 116.142 227.794 115.792 227.465 115.516C226.605 114.938 225.576 114.666 224.543 114.741C223.082 114.734 221.636 115.037 220.3 115.63C220.154 115.704 219.994 115.748 219.83 115.757C219.702 115.755 219.575 115.728 219.457 115.678C219.339 115.627 219.232 115.554 219.143 115.462C219.053 115.37 218.982 115.261 218.935 115.141C218.887 115.022 218.863 114.895 218.865 114.766C218.859 114.569 218.91 114.375 219.011 114.206C219.113 114.037 219.26 113.901 219.437 113.813C221.149 112.964 223.038 112.529 224.95 112.543C225.95 112.522 226.942 112.736 227.846 113.166C228.691 113.56 229.412 114.18 229.929 114.957C230.431 115.745 230.692 116.664 230.678 117.599C230.691 118.576 230.393 119.533 229.827 120.33C229.3 121.112 228.663 121.813 227.935 122.413C226.89 123.243 225.8 124.015 224.67 124.725C223.4 125.589 222.511 126.236 221.977 126.668C221.509 127.026 221.123 127.481 220.847 128.002H229.433C229.577 128 229.72 128.027 229.853 128.082C229.987 128.136 230.107 128.217 230.208 128.32C230.31 128.422 230.39 128.543 230.444 128.676C230.499 128.808 230.527 128.951 230.526 129.095C230.526 129.234 230.498 129.373 230.443 129.502C230.389 129.63 230.309 129.747 230.208 129.844C230.001 130.046 229.723 130.16 229.433 130.162H219.856C219.5 130.175 219.153 130.048 218.89 129.806Z" fill="#314559"/>
<path d="M242.442 129.958C242.336 129.851 242.252 129.724 242.195 129.585C242.139 129.445 242.11 129.296 242.111 129.145V125.805H234.566C234.375 125.807 234.186 125.771 234.009 125.699C233.833 125.627 233.672 125.52 233.537 125.385C233.398 125.253 233.287 125.094 233.213 124.916C233.139 124.739 233.102 124.549 233.105 124.357V124.141C233.099 123.81 233.207 123.487 233.41 123.226L241.197 113.267C241.352 113.087 241.542 112.94 241.756 112.835C241.975 112.734 242.213 112.682 242.454 112.683H242.962C243.156 112.676 243.349 112.709 243.53 112.78C243.71 112.851 243.874 112.958 244.011 113.095C244.148 113.232 244.256 113.396 244.326 113.576C244.397 113.757 244.43 113.95 244.423 114.144V123.747H246.278C246.414 123.747 246.55 123.774 246.676 123.826C246.803 123.878 246.917 123.955 247.014 124.052C247.111 124.149 247.188 124.263 247.24 124.39C247.292 124.516 247.319 124.652 247.319 124.788C247.322 124.923 247.298 125.056 247.248 125.18C247.197 125.305 247.122 125.418 247.027 125.512C246.928 125.608 246.81 125.684 246.682 125.734C246.553 125.784 246.416 125.808 246.278 125.805H244.423V129.145C244.426 129.298 244.395 129.45 244.334 129.591C244.272 129.731 244.182 129.856 244.067 129.958C243.85 130.169 243.558 130.287 243.255 130.287C242.951 130.287 242.66 130.169 242.442 129.958ZM242.06 115.732C242.053 115.71 242.039 115.692 242.021 115.678C242.003 115.665 241.981 115.657 241.959 115.655C241.959 115.655 241.845 115.655 241.768 115.808L235.862 123.429C235.862 123.505 235.76 123.556 235.76 123.607C235.76 123.658 235.849 123.785 236.04 123.785H242.111V115.935C242.118 115.899 242.117 115.863 242.108 115.828C242.099 115.793 242.083 115.76 242.06 115.732Z" fill="#314559"/>
<path d="M264.861 116.468C264.861 116.964 264.061 118.094 262.46 119.847V131.279C262.489 131.625 262.4 131.97 262.206 132.257C262.104 132.36 261.98 132.439 261.844 132.49C261.708 132.54 261.563 132.561 261.418 132.55C261.272 132.563 261.124 132.543 260.986 132.493C260.848 132.442 260.722 132.362 260.618 132.257C260.43 131.968 260.345 131.623 260.377 131.279V122.007C259.88 122.527 259.35 123.015 258.789 123.467C258.531 123.704 258.208 123.858 257.862 123.912C257.731 123.925 257.599 123.907 257.475 123.861C257.352 123.815 257.241 123.741 257.15 123.645C256.981 123.405 256.9 123.113 256.922 122.82C256.922 122.426 257.239 121.981 257.862 121.549C259.749 120.053 261.391 118.27 262.727 116.265C262.835 116.078 262.985 115.92 263.166 115.803C263.348 115.686 263.554 115.613 263.768 115.592C264.492 115.554 264.861 115.859 264.861 116.468ZM257.239 115.439C257.08 115.204 257.004 114.923 257.023 114.639C257.023 114.245 257.43 113.826 258.294 113.369C259.65 112.595 260.926 111.688 262.104 110.663C262.396 110.366 262.766 110.159 263.171 110.066C263.458 110.051 263.741 110.146 263.959 110.333C264.058 110.432 264.134 110.552 264.183 110.683C264.231 110.815 264.25 110.955 264.238 111.095C264.238 111.514 263.349 112.365 261.558 113.725C260.537 114.659 259.303 115.331 257.963 115.681C257.837 115.692 257.709 115.677 257.588 115.635C257.468 115.593 257.358 115.527 257.265 115.439H257.239ZM279.545 118.907C279.545 119.58 279.138 119.923 278.275 119.923H275.62V129.577C275.68 129.957 275.66 130.345 275.561 130.717C275.463 131.089 275.288 131.436 275.048 131.737C274.761 131.983 274.424 132.166 274.06 132.271C273.696 132.376 273.314 132.402 272.94 132.346H270.856C269.993 132.346 269.586 131.978 269.586 131.229C269.586 130.479 270.018 130.149 270.856 130.149H272.343C272.674 130.175 273.002 130.07 273.257 129.857C273.367 129.735 273.451 129.593 273.503 129.438C273.556 129.282 273.576 129.118 273.562 128.955V119.923H266.881C266.093 119.923 265.687 119.58 265.687 118.907C265.687 118.234 266.093 117.916 266.881 117.916H278.313C279.164 117.878 279.57 118.247 279.57 118.907H279.545ZM267.084 112.886C266.984 112.79 266.906 112.673 266.856 112.543C266.806 112.414 266.784 112.275 266.792 112.137C266.783 111.996 266.805 111.856 266.856 111.724C266.906 111.593 266.984 111.474 267.084 111.375C267.316 111.188 267.612 111.097 267.909 111.121H277.64C278.389 111.121 278.757 111.451 278.757 112.137C278.757 112.823 278.389 113.153 277.64 113.153H267.986C267.829 113.17 267.671 113.155 267.52 113.109C267.37 113.063 267.23 112.987 267.109 112.886H267.084Z" fill="#314559"/>
<path d="M294.115 130.466L284.588 131.558H283.813C283.14 131.558 282.797 131.278 282.797 130.567C282.797 129.856 283.267 129.589 284.194 129.551L288.551 129.246V127.531H284.499C283.89 127.531 283.585 127.252 283.585 126.693C283.585 126.134 283.89 125.855 284.499 125.855H288.564V124.508H285.846C285.314 124.547 284.788 124.384 284.372 124.051C284.207 123.884 284.078 123.686 283.993 123.467C283.908 123.249 283.868 123.015 283.877 122.781V118.97C283.861 118.72 283.895 118.47 283.978 118.235C284.061 117.999 284.191 117.782 284.36 117.598C284.76 117.263 285.274 117.094 285.795 117.128H288.564V115.858H283.737C283.127 115.858 282.823 115.566 282.823 114.981C282.823 114.397 283.127 114.118 283.737 114.143H288.551V112.72L287.891 112.796L284.41 113.051C283.737 113.051 283.394 112.796 283.394 112.136C283.381 111.947 283.433 111.76 283.542 111.605C283.651 111.45 283.809 111.337 283.991 111.285H285.261C287.972 111.272 290.67 110.914 293.289 110.218H293.772C294.458 110.218 294.814 110.497 294.814 111.234C294.814 111.704 294.369 112.022 293.543 112.212C293.315 112.212 292.565 112.377 291.282 112.555L290.368 112.682V114.245H294.661C295.284 114.245 295.601 114.537 295.601 115.108C295.609 115.223 295.593 115.338 295.556 115.447C295.519 115.556 295.461 115.657 295.385 115.743C295.179 115.902 294.921 115.979 294.661 115.959H290.368V117.23H293.277C294.547 117.23 295.182 117.827 295.182 119.021V122.831C295.182 124.102 294.534 124.661 293.226 124.661H290.368V126.007H294.382C294.642 125.98 294.904 126.048 295.118 126.198C295.195 126.286 295.254 126.389 295.291 126.5C295.328 126.611 295.343 126.728 295.334 126.845C295.344 126.962 295.33 127.08 295.293 127.192C295.256 127.303 295.197 127.406 295.118 127.493C294.904 127.643 294.642 127.711 294.382 127.684H290.368V129.348L294.115 128.979C294.216 128.968 294.319 128.98 294.416 129.013C294.512 129.046 294.6 129.099 294.674 129.17C294.75 129.254 294.808 129.352 294.846 129.459C294.883 129.566 294.898 129.679 294.89 129.792C294.868 129.981 294.776 130.154 294.633 130.279C294.489 130.403 294.305 130.47 294.115 130.466ZM285.681 120.05H288.551V118.652H286.278C285.871 118.652 285.681 118.868 285.681 119.275V120.05ZM286.278 122.971H288.551V121.536H285.681V122.374C285.67 122.454 285.678 122.536 285.704 122.613C285.73 122.69 285.774 122.759 285.832 122.816C285.89 122.873 285.961 122.915 286.038 122.94C286.115 122.965 286.197 122.971 286.278 122.958V122.971ZM293.162 118.805C293.1 118.75 293.028 118.709 292.949 118.682C292.87 118.656 292.788 118.646 292.705 118.652H290.292V120.05H293.289V119.275C293.305 119.108 293.26 118.941 293.162 118.805ZM293.289 121.536H290.292V122.958H292.705C292.785 122.969 292.867 122.961 292.944 122.935C293.021 122.908 293.09 122.865 293.147 122.807C293.204 122.749 293.246 122.678 293.271 122.601C293.296 122.524 293.302 122.442 293.289 122.361V121.536ZM304.658 117.446L304.455 122.526C304.412 124.994 304.199 127.456 303.82 129.894C303.741 130.263 303.588 130.613 303.37 130.921C303.151 131.229 302.872 131.489 302.549 131.685C301.757 132.133 300.855 132.349 299.945 132.307C299.799 132.33 299.649 132.319 299.508 132.274C299.367 132.229 299.238 132.151 299.132 132.048C299.026 131.944 298.945 131.817 298.897 131.677C298.848 131.537 298.833 131.387 298.853 131.24C298.837 131.064 298.873 130.887 298.956 130.732C299.04 130.576 299.167 130.448 299.323 130.364C299.735 130.239 300.163 130.174 300.593 130.173C301.571 130.173 302.117 129.36 302.206 127.912C302.41 125.296 302.549 123.073 302.638 121.231L302.727 118.411C302.727 117.801 302.422 117.496 301.813 117.496H299.831C299.763 119.97 299.496 122.434 299.031 124.864C298.695 126.644 298.078 128.359 297.202 129.945C296.338 131.406 295.614 132.13 295.042 132.13C294.471 132.13 294.128 131.812 294.128 131.164C294.128 131.019 294.173 130.877 294.255 130.758C294.39 130.561 294.539 130.375 294.699 130.199C296.791 127.828 297.896 123.594 298.015 117.496H296.44C295.715 117.496 295.36 117.166 295.36 116.518C295.346 116.386 295.362 116.253 295.406 116.128C295.45 116.003 295.521 115.889 295.614 115.794C295.848 115.612 296.144 115.525 296.44 115.553H298.154V113.254C298.154 112.25 298.154 111.501 298.154 110.993C298.154 110.485 298.485 109.977 299.069 109.977C299.653 109.977 299.996 110.319 299.996 111.018V115.553H302.448C303.972 115.527 304.709 116.163 304.658 117.446Z" fill="#314559"/>
<path d="M312.254 131.508V121.905C311.791 123.405 311.173 124.852 310.412 126.224C309.637 127.66 309.027 128.384 308.583 128.384C308.138 128.384 307.681 127.99 307.681 127.19C307.765 126.764 307.963 126.369 308.253 126.046C309.948 123.742 311.237 121.164 312.063 118.425H308.964C308.189 118.425 307.795 118.095 307.795 117.434C307.795 116.774 308.189 116.456 308.964 116.456H312.292V113.052C310.437 113.268 309.358 113.369 309.066 113.369C308.93 113.39 308.791 113.379 308.66 113.337C308.529 113.295 308.409 113.223 308.311 113.127C308.212 113.031 308.137 112.913 308.092 112.784C308.047 112.654 308.032 112.515 308.049 112.378C308.047 112.243 308.084 112.109 308.156 111.994C308.228 111.879 308.332 111.787 308.456 111.731C308.855 111.552 309.288 111.461 309.726 111.464C311.879 111.34 314.011 110.965 316.077 110.346C316.28 110.262 316.494 110.211 316.712 110.194C316.848 110.179 316.985 110.195 317.113 110.241C317.241 110.287 317.357 110.363 317.452 110.461C317.546 110.559 317.617 110.678 317.658 110.808C317.7 110.937 317.711 111.075 317.69 111.21C317.69 111.858 316.573 112.366 314.337 112.747V116.418H316.662C317.424 116.418 317.805 116.761 317.805 117.421C317.805 118.082 317.424 118.387 316.662 118.387H314.337V120.991C314.399 120.874 314.493 120.778 314.608 120.713C314.722 120.648 314.853 120.616 314.985 120.622C315.251 120.668 315.496 120.797 315.684 120.991C316.061 121.304 316.398 121.662 316.687 122.058C317.219 122.588 317.627 123.231 317.881 123.938C317.9 124.069 317.889 124.203 317.847 124.329C317.805 124.455 317.734 124.569 317.641 124.663C317.547 124.757 317.433 124.827 317.307 124.869C317.181 124.911 317.047 124.922 316.916 124.903C316.774 124.894 316.638 124.848 316.52 124.77C316.402 124.692 316.306 124.585 316.242 124.459C315.925 123.989 315.595 123.506 315.226 123.049C314.898 122.648 314.601 122.224 314.337 121.778V131.483C314.337 132.194 314.007 132.55 313.346 132.55C312.571 132.575 312.254 132.22 312.254 131.508ZM325.375 131.407V125.5L317.602 127.063C317.468 127.08 317.333 127.066 317.206 127.022C317.079 126.978 316.964 126.905 316.871 126.809C316.777 126.713 316.707 126.596 316.666 126.468C316.626 126.34 316.615 126.204 316.636 126.072C316.636 125.551 316.966 125.221 317.602 125.106L325.375 123.519V111.045C325.375 110.295 325.706 109.927 326.366 109.927C327.027 109.927 327.332 110.295 327.332 111.045V123.125L328.945 122.769H329.44C330.025 122.769 330.304 123.036 330.304 123.696C330.317 123.938 330.235 124.175 330.075 124.357C329.872 124.553 329.616 124.686 329.339 124.738L327.332 125.183V131.407C327.332 132.131 327.014 132.499 326.366 132.499C325.718 132.499 325.375 132.131 325.375 131.407ZM320.764 120.838C320.279 120.368 319.752 119.942 319.189 119.568C318.643 119.187 318.376 118.831 318.376 118.514C318.376 117.904 318.719 117.599 319.418 117.599C319.95 117.715 320.444 117.964 320.853 118.323C321.45 118.755 321.984 119.162 322.441 119.593C322.605 119.701 322.743 119.843 322.846 120.01C322.95 120.177 323.015 120.364 323.038 120.559C323.038 121.232 322.683 121.575 321.971 121.575C321.499 121.468 321.075 121.209 320.764 120.838ZM321.527 115.084C321.031 114.665 320.422 114.182 319.697 113.623C319.531 113.528 319.389 113.396 319.281 113.237C319.174 113.079 319.103 112.898 319.075 112.709C319.075 112.074 319.405 111.756 320.091 111.756C320.849 112.002 321.55 112.399 322.149 112.925C323.191 113.674 323.711 114.195 323.711 114.69C323.711 115.351 323.343 115.681 322.619 115.681C322.203 115.596 321.823 115.388 321.527 115.084Z" fill="#314559"/>
<path d="M333.581 131.304C333.581 130.593 333.924 130.237 334.597 130.237H335.524C336.096 130.237 336.401 129.932 336.439 129.297V124.064L334.648 124.61L334 124.737C333.416 124.737 333.111 124.381 333.111 123.67C333.111 122.959 333.619 122.666 334.648 122.4L336.439 121.93V116.607H334.127C333.504 116.607 333.187 116.277 333.187 115.617C333.17 115.489 333.183 115.36 333.224 115.238C333.266 115.116 333.335 115.006 333.425 114.915C333.516 114.824 333.627 114.756 333.748 114.714C333.87 114.673 333.999 114.66 334.127 114.677H336.439V110.866C336.418 110.73 336.429 110.591 336.471 110.46C336.513 110.329 336.585 110.21 336.681 110.111C336.777 110.013 336.895 109.938 337.025 109.892C337.154 109.847 337.293 109.832 337.43 109.85C337.567 109.831 337.708 109.844 337.84 109.888C337.972 109.933 338.091 110.007 338.19 110.105C338.288 110.204 338.363 110.324 338.407 110.456C338.451 110.588 338.465 110.728 338.446 110.866V114.677H339.856C339.987 114.658 340.122 114.67 340.248 114.712C340.374 114.753 340.489 114.824 340.584 114.917C340.678 115.011 340.75 115.125 340.794 115.25C340.837 115.376 340.851 115.51 340.834 115.642C340.851 115.91 340.765 116.173 340.592 116.379C340.386 116.548 340.122 116.63 339.856 116.607H338.446V121.472L339.386 121.155C339.667 121.042 339.961 120.965 340.262 120.926C340.808 120.926 341.075 121.257 341.075 121.917C341.075 122.311 340.834 122.603 340.351 122.781L338.446 123.454V129.907C338.502 130.255 338.477 130.611 338.374 130.948C338.27 131.285 338.091 131.594 337.849 131.85C337.582 132.079 337.269 132.247 336.932 132.344C336.594 132.44 336.24 132.462 335.892 132.409H334.546C333.924 132.371 333.581 132.015 333.581 131.304ZM339.513 131.215C339.513 130.631 339.97 130.224 340.872 129.945C342.788 129.492 344.605 128.691 346.232 127.582C345.387 126.717 344.661 125.743 344.073 124.686C343.768 124.089 343.527 123.594 343.374 123.213C343.227 122.893 343.145 122.548 343.133 122.197C343.133 121.612 343.45 121.307 344.073 121.307C344.695 121.307 344.949 121.65 345.165 122.324C345.685 123.868 346.59 125.254 347.795 126.35C348.747 125.468 349.568 124.454 350.234 123.34C350.792 122.567 351.22 121.709 351.504 120.799C351.504 120.532 351.339 120.405 351.008 120.405H342.853C342.079 120.405 341.685 120.088 341.685 119.465C341.685 118.843 342.079 118.538 342.853 118.538H346.74V115.337H342.129C341.283 115.337 340.859 115.007 340.859 114.346C340.859 113.711 341.266 113.381 342.129 113.381H346.74V111.12C346.74 110.32 347.083 109.85 347.769 109.85C348.455 109.85 348.76 110.256 348.76 111.12V113.381H354.019C354.794 113.381 355.187 113.711 355.187 114.372C355.187 115.032 354.794 115.337 354.019 115.337H348.76V118.614H352.05C352.549 118.577 353.049 118.687 353.485 118.932C353.638 119.037 353.76 119.181 353.84 119.348C353.92 119.515 353.956 119.7 353.943 119.885C353.687 121.193 353.164 122.434 352.406 123.53C351.595 125.018 350.581 126.386 349.395 127.595C350.887 128.578 352.531 129.308 354.26 129.754C354.669 129.848 355.054 130.025 355.391 130.275C355.503 130.355 355.595 130.46 355.661 130.581C355.727 130.702 355.765 130.836 355.772 130.974C355.772 131.723 355.429 132.092 354.73 132.092C353.712 131.938 352.72 131.643 351.783 131.215C350.369 130.658 349.032 129.919 347.807 129.018C346.517 129.942 345.128 130.722 343.666 131.342C342.686 131.803 341.641 132.112 340.567 132.257C339.856 132.295 339.513 131.939 339.513 131.215Z" fill="#314559"/>
<path d="M381.343 126.02C381.343 126.68 380.919 127.011 380.072 127.011H372.146V131.19C372.146 132.037 371.79 132.46 371.079 132.46C370.368 132.46 370.025 132.041 370.025 131.19V127.011H359.596C358.821 127.011 358.427 126.68 358.427 126.02C358.427 125.359 358.821 125.055 359.596 125.055H362.225V120.787C362.166 120.431 362.183 120.068 362.275 119.719C362.367 119.371 362.532 119.047 362.759 118.767C363.03 118.533 363.349 118.362 363.694 118.265C364.038 118.169 364.4 118.149 364.753 118.208H370.025V114.512H363.547C362.87 115.721 362.088 116.869 361.209 117.941C360.536 118.716 359.939 119.097 359.596 119.097C358.923 119.097 358.58 118.78 358.58 118.132C358.728 117.556 359.026 117.03 359.444 116.607C360.89 114.863 362.087 112.927 363 110.853C363.28 110.218 363.661 109.913 364.156 109.913C364.855 109.913 365.211 110.205 365.211 110.802C365.1 111.409 364.881 111.99 364.563 112.517H379.069C379.384 112.497 379.697 112.582 379.958 112.759C380.062 112.847 380.143 112.959 380.196 113.085C380.249 113.21 380.272 113.347 380.263 113.483C380.27 113.62 380.246 113.758 380.194 113.886C380.141 114.013 380.06 114.127 379.958 114.219C379.698 114.401 379.385 114.49 379.069 114.473H372.146V118.17H378.358C378.485 118.164 378.612 118.183 378.732 118.227C378.852 118.271 378.962 118.338 379.056 118.424C379.148 118.517 379.22 118.628 379.266 118.751C379.312 118.874 379.331 119.005 379.323 119.135C379.337 119.404 379.246 119.669 379.069 119.872C378.975 119.962 378.863 120.031 378.74 120.075C378.618 120.119 378.487 120.136 378.358 120.126H372.146V125.017H380.161C380.936 125.055 381.343 125.385 381.343 126.02ZM369.987 125.055V120.164H365.312C365.177 120.147 365.04 120.162 364.911 120.206C364.782 120.251 364.665 120.325 364.57 120.422C364.474 120.519 364.402 120.636 364.359 120.766C364.315 120.895 364.303 121.033 364.321 121.168V125.055H369.987Z" fill="#314559"/>
<path d="M383.92 115.858C383.921 115.751 383.945 115.644 383.988 115.546C384.032 115.448 384.095 115.36 384.174 115.287C384.383 115.098 384.637 114.966 384.911 114.906C388.147 114.103 391.176 112.627 393.803 110.574C394.072 110.336 394.366 110.127 394.679 109.952C394.876 109.824 395.105 109.754 395.34 109.748C395.609 109.747 395.871 109.832 396.089 109.99C396.189 110.046 396.273 110.127 396.333 110.225C396.393 110.322 396.427 110.434 396.432 110.549C396.428 110.713 396.365 110.871 396.254 110.993L396.623 111.235C397.887 112.017 399.228 112.668 400.624 113.178C402.097 113.783 403.624 114.246 405.184 114.563C406.15 114.715 406.62 115.045 406.62 115.553C406.62 116.354 406.289 116.747 405.603 116.747C404.089 116.557 402.614 116.129 401.234 115.477H401.17C401.191 115.613 401.183 115.752 401.148 115.885C401.113 116.019 401.052 116.143 400.967 116.252C400.872 116.335 400.761 116.398 400.641 116.437C400.521 116.477 400.394 116.491 400.268 116.481H390.246C389.649 116.481 389.357 116.214 389.357 115.68V115.477C387.96 116.231 386.463 116.783 384.911 117.116C384.251 117.065 383.92 116.646 383.92 115.858ZM386.232 122.997C386.059 122.794 385.93 122.557 385.853 122.301C385.776 122.045 385.754 121.776 385.788 121.511V119.402C385.761 119.128 385.789 118.851 385.869 118.587C385.95 118.323 386.082 118.078 386.258 117.865C386.461 117.693 386.699 117.566 386.955 117.494C387.211 117.421 387.481 117.405 387.744 117.446H402.758C403.31 117.395 403.86 117.559 404.295 117.903C404.464 118.111 404.589 118.351 404.661 118.609C404.733 118.867 404.751 119.137 404.714 119.402V121.511C404.763 122.059 404.599 122.604 404.257 123.035C404.053 123.211 403.814 123.341 403.555 123.415C403.296 123.49 403.024 123.507 402.758 123.467H387.744C387.471 123.487 387.196 123.453 386.937 123.365C386.677 123.278 386.438 123.14 386.232 122.959V122.997ZM387.312 131.342C387.133 131.135 387.002 130.891 386.928 130.628C386.853 130.365 386.837 130.088 386.88 129.818V126.465C386.831 125.901 387.004 125.34 387.363 124.902C387.575 124.722 387.822 124.587 388.089 124.506C388.355 124.426 388.636 124.4 388.912 124.432H401.615C402.189 124.382 402.759 124.56 403.203 124.928C403.379 125.139 403.509 125.385 403.586 125.65C403.662 125.914 403.683 126.192 403.647 126.465V129.818C403.695 130.382 403.522 130.942 403.165 131.381C402.953 131.561 402.705 131.695 402.438 131.771C402.171 131.848 401.89 131.866 401.615 131.825H388.912C388.627 131.855 388.338 131.828 388.064 131.745C387.789 131.662 387.533 131.525 387.312 131.342ZM394.273 118.983H388.442C388.336 118.968 388.228 118.978 388.126 119.012C388.024 119.046 387.931 119.104 387.856 119.181C387.781 119.258 387.724 119.351 387.691 119.453C387.659 119.556 387.651 119.664 387.668 119.771V121.142C387.668 121.638 387.922 121.892 388.442 121.93H394.273V118.983ZM401.666 126.744C401.672 126.642 401.657 126.54 401.622 126.444C401.587 126.348 401.533 126.26 401.462 126.185C401.31 126.053 401.117 125.977 400.916 125.969H389.598C389.141 125.969 388.887 126.236 388.862 126.744V127.443H401.666V126.744ZM401.45 130.148C401.579 129.995 401.655 129.803 401.666 129.602V128.777H388.862V129.602C388.852 129.701 388.864 129.802 388.898 129.896C388.931 129.989 388.985 130.075 389.056 130.145C389.126 130.216 389.211 130.27 389.305 130.303C389.399 130.337 389.499 130.349 389.598 130.339H400.916C401.013 130.345 401.111 130.331 401.202 130.298C401.294 130.265 401.378 130.214 401.45 130.148ZM390.424 121.066C390.16 120.753 389.981 120.376 389.903 119.974C389.903 119.555 390.145 119.351 390.64 119.351C391.135 119.351 391.237 119.567 391.542 119.999C391.759 120.246 391.912 120.543 391.986 120.863C391.986 121.346 391.707 121.587 391.161 121.587C391.006 121.564 390.858 121.505 390.731 121.414C390.603 121.324 390.498 121.205 390.424 121.066ZM394.984 112.086C393.591 113.126 392.107 114.04 390.551 114.817H399.875C398.173 114.058 396.544 113.143 395.01 112.086H394.984ZM402.822 121.142V119.771C402.836 119.664 402.826 119.555 402.792 119.453C402.757 119.35 402.7 119.257 402.624 119.181C402.547 119.105 402.454 119.047 402.352 119.013C402.25 118.979 402.141 118.968 402.034 118.983H396.026V121.93H402.034C402.14 121.94 402.247 121.926 402.347 121.89C402.447 121.854 402.537 121.796 402.613 121.721C402.688 121.646 402.745 121.555 402.782 121.455C402.818 121.355 402.831 121.248 402.822 121.142ZM398.312 120.99C398.345 120.589 398.5 120.208 398.757 119.898C399.036 119.504 399.316 119.301 399.608 119.301C400.167 119.301 400.446 119.517 400.446 119.948C400.419 120.327 400.283 120.689 400.052 120.99C399.956 121.165 399.819 121.316 399.654 121.428C399.488 121.541 399.298 121.613 399.1 121.638C398.579 121.689 398.312 121.422 398.312 120.99Z" fill="#314559"/>
<path d="M45.5023 26.421C45.3699 26.2982 45.2651 26.1486 45.195 25.9822C45.1249 25.8157 45.0911 25.6362 45.0959 25.4556V7.13869C45.094 6.95665 45.129 6.77612 45.1989 6.608C45.2687 6.43989 45.372 6.28766 45.5023 6.16058C45.624 6.02578 45.773 5.91866 45.9396 5.84635C46.1061 5.77404 46.2862 5.7382 46.4677 5.74138C46.6514 5.73636 46.8339 5.77127 47.0028 5.84364C47.1716 5.91601 47.3228 6.02414 47.4458 6.16058C47.5823 6.2836 47.6904 6.4348 47.7628 6.60366C47.8351 6.77252 47.87 6.95505 47.865 7.13869V25.5064C47.8682 25.688 47.8324 25.868 47.7601 26.0346C47.6878 26.2011 47.5806 26.3502 47.4458 26.4718C47.3183 26.6015 47.166 26.7044 46.998 26.7742C46.83 26.844 46.6497 26.8794 46.4677 26.8783C46.2833 26.8767 46.1013 26.835 45.9346 26.7561C45.7679 26.6771 45.6204 26.5627 45.5023 26.421Z" fill="#314559"/>
<path d="M53.9872 26.421C53.8547 26.2983 53.7499 26.1487 53.6798 25.9822C53.6097 25.8157 53.5759 25.6362 53.5807 25.4556V7.67222C53.5774 7.41175 53.6275 7.15338 53.728 6.91305C53.8285 6.67272 53.9772 6.45557 54.165 6.27498C54.3401 6.08279 54.5541 5.93012 54.7929 5.82717C55.0316 5.72423 55.2896 5.67332 55.5495 5.67793H55.9306C56.2602 5.68478 56.5835 5.76881 56.8747 5.92323C57.1659 6.07765 57.4168 6.29817 57.6074 6.56711L68.5568 22.4959C68.6585 22.623 68.7347 22.6738 68.7982 22.6738C68.8617 22.6738 68.8744 22.6738 68.9125 22.5849C68.938 22.5195 68.938 22.447 68.9125 22.3817V7.13874C68.9106 6.9567 68.9457 6.77616 69.0155 6.60805C69.0854 6.43994 69.1886 6.28771 69.319 6.16063C69.4406 6.02583 69.5897 5.91871 69.7562 5.8464C69.9228 5.77409 70.1029 5.73825 70.2844 5.74143C70.468 5.73641 70.6506 5.77132 70.8194 5.84369C70.9883 5.91606 71.1395 6.02418 71.2625 6.16063C71.3989 6.28365 71.507 6.43485 71.5794 6.60371C71.6518 6.77257 71.6867 6.95509 71.6816 7.13874V24.9221C71.6863 25.1821 71.6354 25.4401 71.5324 25.6788C71.4295 25.9176 71.2768 26.1316 71.0846 26.3067C70.904 26.4944 70.6869 26.6431 70.4465 26.7436C70.2062 26.8441 69.9478 26.8943 69.6874 26.891H69.3317C69.0128 26.8905 68.6988 26.812 68.4171 26.6624C68.1442 26.5212 67.9057 26.3217 67.7185 26.078L56.6801 10.1238C56.5784 10.0095 56.5022 9.94601 56.4387 9.94601C56.3752 9.94601 56.3625 9.94594 56.3244 10.0349C56.2827 10.0991 56.2606 10.1742 56.2609 10.2509V25.4938C56.2641 25.6753 56.2283 25.8554 56.156 26.0219C56.0837 26.1884 55.9765 26.3376 55.8417 26.4592C55.7142 26.5889 55.5619 26.6917 55.3939 26.7615C55.2259 26.8314 55.0456 26.8667 54.8636 26.8656C54.6953 26.8534 54.5311 26.8079 54.3807 26.7315C54.2302 26.6552 54.0964 26.5496 53.9872 26.421Z" fill="#314559"/>
<path d="M76.9788 25.5954C76.7343 25.4828 76.5239 25.3076 76.3691 25.0873C76.2093 24.8744 76.1205 24.6167 76.1151 24.3506C76.1107 24.1822 76.14 24.0146 76.201 23.8576C76.2621 23.7006 76.3538 23.5573 76.4707 23.436C76.5894 23.3183 76.7302 23.2251 76.885 23.1619C77.0397 23.0987 77.2054 23.0667 77.3726 23.0676C77.5652 23.0629 77.7563 23.102 77.9315 23.182C79.7772 24.0115 81.7765 24.4442 83.8 24.4522C87.2551 24.4522 88.9826 23.3217 88.9826 21.0607C88.9907 20.783 88.9354 20.5072 88.8209 20.2541C88.7065 20.001 88.5359 19.7772 88.3221 19.5999C87.8923 19.2056 87.3866 18.9031 86.8359 18.7107C86.2389 18.4947 85.2608 18.2026 83.889 17.8469C82.5617 17.5127 81.2588 17.0883 79.9893 16.5767C78.9105 16.2121 77.9585 15.5465 77.2456 14.6586C76.6275 13.8071 76.3061 12.7762 76.331 11.7244C76.3218 10.6191 76.6305 9.53439 77.2202 8.59952C77.8744 7.59209 78.8237 6.81136 79.9385 6.36396C81.2469 5.82525 82.6521 5.56144 84.0668 5.58905C86.0863 5.564 88.0943 5.89512 89.9988 6.56716C90.2594 6.65777 90.4833 6.8307 90.6369 7.05986C90.7904 7.28903 90.8652 7.56198 90.8499 7.83741C90.8519 8.16885 90.7243 8.48796 90.4942 8.72659C90.3892 8.85298 90.2569 8.95403 90.1074 9.02221C89.9578 9.09039 89.7948 9.12394 89.6305 9.12037C89.4679 9.11271 89.3084 9.07387 89.1605 9.00601C87.6199 8.47445 86.0013 8.20398 84.3717 8.20575C83.0439 8.14676 81.7255 8.4544 80.5609 9.09494C80.1216 9.33792 79.7561 9.69533 79.5034 10.1292C79.2507 10.563 79.1202 11.0572 79.1256 11.5592C79.1083 11.8782 79.1633 12.1969 79.2865 12.4917C79.4097 12.7864 79.5978 13.0495 79.8369 13.2614C80.3119 13.7034 80.8684 14.0485 81.4755 14.2776C82.4371 14.6221 83.4219 14.8981 84.4225 15.1032C85.7167 15.3938 86.9899 15.7715 88.2332 16.2337C89.2368 16.6021 90.117 17.2447 90.7737 18.0883C91.4455 18.9974 91.7861 20.109 91.7391 21.2385C91.7432 22.3168 91.4101 23.3693 90.7864 24.2489C90.0981 25.192 89.1551 25.9191 88.0681 26.3449C86.8038 26.847 85.4523 27.0931 84.0922 27.0689C81.6447 27.0746 79.2226 26.5729 76.9788 25.5954Z" fill="#314559"/>
<path d="M96.2364 26.4204C96.1039 26.2976 95.9991 26.148 95.929 25.9815C95.8589 25.8151 95.8251 25.6355 95.8299 25.455V7.29049C95.8263 7.10632 95.8605 6.9234 95.9304 6.75298C96.0003 6.58256 96.1045 6.42822 96.2364 6.29966C96.358 6.16486 96.5071 6.05774 96.6736 5.98543C96.8402 5.91313 97.0203 5.87736 97.2018 5.88054H103.985C105.576 5.82096 107.158 6.14785 108.596 6.83322C109.646 7.35776 110.526 8.16783 111.136 9.17042C111.72 10.1899 112.014 11.3494 111.987 12.5239C112.002 13.6431 111.736 14.7482 111.213 15.7376C110.641 16.8518 109.716 17.7452 108.583 18.2781C107.153 18.9431 105.586 19.2608 104.01 19.2054H98.6244V25.5566C98.6276 25.7381 98.5919 25.9182 98.5195 26.0847C98.4472 26.2513 98.3401 26.4004 98.2053 26.522C97.946 26.7818 97.5942 26.928 97.2272 26.9285C97.0343 26.9246 96.8448 26.8768 96.6731 26.7888C96.5015 26.7007 96.3521 26.5747 96.2364 26.4204ZM107.808 15.4709C108.268 15.1241 108.636 14.6689 108.877 14.1459C109.119 13.6228 109.227 13.0482 109.193 12.4731C109.228 11.8997 109.121 11.3264 108.879 10.8051C108.637 10.2839 108.269 9.83119 107.808 9.48798C106.589 8.71992 105.156 8.3596 103.718 8.45909H98.9547C98.906 8.44999 98.8558 8.45289 98.8085 8.46754C98.7612 8.4822 98.7182 8.50818 98.6832 8.54321C98.6481 8.57824 98.6222 8.62126 98.6075 8.66858C98.5928 8.71589 98.5899 8.7661 98.599 8.8148V16.4363H103.68C105.118 16.5782 106.564 16.2577 107.808 15.5216V15.4709Z" fill="#314559"/>
<path d="M116.242 26.4207C116.109 26.2979 116.005 26.1484 115.934 25.9819C115.864 25.8154 115.831 25.6359 115.835 25.4553V7.13841C115.829 6.95574 115.862 6.77381 115.932 6.60501C116.002 6.43621 116.108 6.28448 116.242 6.1603C116.363 6.0255 116.513 5.91838 116.679 5.84608C116.846 5.77377 117.026 5.73792 117.207 5.7411C117.39 5.74085 117.571 5.77796 117.739 5.85003C117.908 5.9221 118.059 6.02765 118.185 6.1603C118.322 6.28332 118.43 6.43452 118.502 6.60338C118.575 6.77224 118.61 6.95477 118.605 7.13841V25.5062C118.608 25.6877 118.572 25.8678 118.5 26.0343C118.427 26.2008 118.32 26.3499 118.185 26.4715C117.926 26.7313 117.574 26.8775 117.207 26.878C117.023 26.8764 116.841 26.8348 116.674 26.7558C116.507 26.6768 116.36 26.5625 116.242 26.4207Z" fill="#314559"/>
<path d="M139.691 19.8285C140.28 21.1866 140.574 22.6543 140.554 24.1346V25.5065C140.559 25.6871 140.525 25.8665 140.455 26.033C140.385 26.1995 140.281 26.3491 140.148 26.4718C140.023 26.6012 139.873 26.704 139.707 26.7738C139.541 26.8437 139.363 26.8792 139.183 26.8783C138.996 26.8865 138.81 26.857 138.636 26.7915C138.461 26.726 138.301 26.6259 138.166 26.4973C138.035 26.3694 137.933 26.2146 137.867 26.0436C137.802 25.8725 137.774 25.6894 137.785 25.5065V24.6173C137.794 23.6868 137.7 22.7582 137.506 21.8482C137.332 20.9474 136.857 20.1323 136.159 19.5364C135.315 18.8859 134.263 18.5652 133.2 18.6345H127.064V25.5065C127.068 25.688 127.032 25.8681 126.96 26.0346C126.887 26.2012 126.78 26.3502 126.645 26.4718C126.386 26.7316 126.034 26.8778 125.667 26.8783C125.485 26.8795 125.305 26.8441 125.137 26.7743C124.969 26.7045 124.817 26.6016 124.689 26.4718C124.559 26.3479 124.457 26.1979 124.389 26.0315C124.321 25.8651 124.289 25.6861 124.295 25.5065V7.29119C124.292 7.10821 124.325 6.92645 124.393 6.75639C124.461 6.58633 124.561 6.43129 124.689 6.30036C124.812 6.16392 124.963 6.05579 125.132 5.98342C125.301 5.91105 125.484 5.87622 125.667 5.88124H132.603C134.74 5.74246 136.861 6.32875 138.624 7.54525C139.305 8.05795 139.852 8.72754 140.22 9.49714C140.587 10.2667 140.763 11.1135 140.732 11.9657C140.742 13.1312 140.391 14.2712 139.729 15.2302C139.035 16.227 138.037 16.9715 136.883 17.3515C137.508 17.5256 138.085 17.8389 138.571 18.2679C139.058 18.6969 139.44 19.2304 139.691 19.8285ZM136.515 14.9889C136.982 14.6873 137.362 14.2705 137.62 13.7787C137.879 13.2869 138.005 12.7368 137.989 12.1816C138.03 11.6519 137.935 11.1206 137.712 10.6381C137.49 10.1556 137.148 9.73802 136.718 9.42519C135.38 8.71942 133.87 8.40672 132.361 8.52329H127.509C127.46 8.51419 127.41 8.51716 127.363 8.53182C127.316 8.54647 127.273 8.57238 127.238 8.60741C127.202 8.64243 127.177 8.68545 127.162 8.73277C127.147 8.78009 127.144 8.8303 127.153 8.87899V16.0178H132.514C133.921 16.0836 135.315 15.7252 136.515 14.9889Z" fill="#314559"/>
<path d="M144.505 26.4209C144.379 26.2938 144.279 26.1431 144.212 25.9774C144.144 25.8117 144.11 25.6344 144.111 25.4555C144.127 25.2491 144.178 25.047 144.264 24.8585L151.885 6.93529C152.043 6.57259 152.287 6.25419 152.596 6.00804C152.901 5.79349 153.266 5.68218 153.638 5.69048H153.943C154.315 5.68218 154.68 5.79349 154.984 6.00804C155.294 6.25419 155.538 6.57259 155.696 6.93529L163.317 24.8585C163.403 25.047 163.454 25.2491 163.47 25.4555C163.473 25.6366 163.44 25.8165 163.372 25.9845C163.305 26.1525 163.204 26.3051 163.076 26.4332C162.947 26.5613 162.795 26.6623 162.627 26.73C162.459 26.7977 162.279 26.8308 162.098 26.8274C161.818 26.8316 161.544 26.752 161.31 26.5987C161.079 26.4417 160.898 26.2211 160.789 25.9636L158.744 21.4034H148.684L146.741 26.0144C146.638 26.2677 146.462 26.4849 146.236 26.6386C146.01 26.7923 145.744 26.8756 145.47 26.8781C145.286 26.8766 145.104 26.8349 144.937 26.7559C144.771 26.677 144.623 26.5626 144.505 26.4209ZM153.765 9.59014C153.663 9.59014 153.587 9.65361 153.524 9.79334L149.776 18.8121H157.754L154.006 9.79334C153.943 9.70442 153.867 9.64092 153.765 9.64092V9.59014Z" fill="#314559"/>
<path d="M171.104 26.4209C170.971 26.2981 170.866 26.1486 170.796 25.9821C170.726 25.8156 170.693 25.6361 170.697 25.4555V8.47235H164.664C164.327 8.47235 164.004 8.3385 163.765 8.10028C163.527 7.86207 163.393 7.53899 163.393 7.2021C163.389 7.03068 163.419 6.86016 163.483 6.7008C163.546 6.54143 163.641 6.39655 163.762 6.27485C163.88 6.151 164.022 6.05225 164.179 5.98458C164.336 5.91691 164.505 5.88173 164.676 5.88108H179.5C179.671 5.88173 179.84 5.91691 179.998 5.98458C180.155 6.05225 180.297 6.151 180.415 6.27485C180.54 6.39439 180.64 6.53831 180.707 6.69778C180.775 6.85724 180.81 7.02886 180.808 7.2021C180.812 7.37202 180.779 7.54075 180.711 7.69651C180.643 7.85227 180.542 7.99136 180.415 8.10401C180.294 8.22326 180.152 8.31729 179.995 8.38055C179.838 8.44381 179.669 8.475 179.5 8.47235H173.479V25.5064C173.484 25.6869 173.45 25.8664 173.38 26.0329C173.31 26.1993 173.205 26.3489 173.073 26.4717C172.942 26.6013 172.788 26.7039 172.618 26.7737C172.448 26.8434 172.266 26.8789 172.082 26.8782C171.896 26.8743 171.713 26.8317 171.544 26.753C171.376 26.6742 171.226 26.5611 171.104 26.4209Z" fill="#314559"/>
<path d="M184.417 26.421C184.284 26.2982 184.179 26.1486 184.109 25.9822C184.039 25.8157 184.005 25.6362 184.01 25.4556V7.13869C184.008 6.95665 184.043 6.77612 184.113 6.608C184.183 6.43989 184.286 6.28766 184.417 6.16058C184.538 6.02578 184.687 5.91866 184.854 5.84635C185.02 5.77404 185.2 5.7382 185.382 5.74138C185.566 5.73636 185.748 5.77127 185.917 5.84364C186.086 5.91601 186.237 6.02414 186.36 6.16058C186.496 6.2836 186.605 6.4348 186.677 6.60366C186.749 6.77252 186.784 6.95505 186.779 7.13869V25.5064C186.782 25.688 186.747 25.868 186.674 26.0346C186.602 26.2011 186.495 26.3502 186.36 26.4718C186.232 26.6015 186.08 26.7044 185.912 26.7742C185.744 26.844 185.564 26.8794 185.382 26.8783C185.197 26.8767 185.016 26.835 184.849 26.7561C184.682 26.6771 184.535 26.5627 184.417 26.421Z" fill="#314559"/>
<path d="M196.216 25.6585C194.677 24.7512 193.423 23.4311 192.596 21.8477C191.716 20.1321 191.256 18.2314 191.256 16.3031C191.256 14.3747 191.716 12.4741 192.596 10.7585C193.42 9.16039 194.691 7.83642 196.255 6.94773C197.946 6.04698 199.832 5.57592 201.748 5.57592C203.664 5.57592 205.551 6.04698 207.242 6.94773C208.783 7.85282 210.037 9.17347 210.862 10.7585C211.751 12.4626 212.214 14.356 212.214 16.2777C212.214 18.1995 211.751 20.0928 210.862 21.7969C210.025 23.3895 208.752 24.7112 207.191 25.6076C205.524 26.5385 203.638 27.0077 201.729 26.9668C199.808 27.0267 197.906 26.5753 196.216 25.6585ZM205.832 23.3593C206.979 22.6787 207.905 21.682 208.5 20.4886C209.142 19.1904 209.464 17.7575 209.44 16.3094C209.461 14.8672 209.143 13.4402 208.512 12.1431C207.912 10.9278 206.972 9.91287 205.807 9.22152C204.568 8.50847 203.158 8.14823 201.729 8.17991C200.284 8.13798 198.857 8.50801 197.614 9.24687C196.475 9.9378 195.552 10.9318 194.946 12.1176C194.308 13.4214 193.99 14.8583 194.019 16.3094C193.995 17.7505 194.309 19.1772 194.933 20.4759C195.525 21.6962 196.461 22.7163 197.626 23.4101C198.876 24.1178 200.294 24.4734 201.729 24.439C203.172 24.4747 204.594 24.1003 205.832 23.3593Z" fill="#314559"/>
<path d="M217.074 26.421C216.942 26.2983 216.837 26.1487 216.767 25.9822C216.697 25.8157 216.663 25.6362 216.668 25.4556V7.67222C216.665 7.41175 216.715 7.15338 216.815 6.91305C216.916 6.67272 217.065 6.45557 217.252 6.27498C217.427 6.08279 217.641 5.93012 217.88 5.82717C218.119 5.72423 218.377 5.67332 218.637 5.67793H219.018C219.347 5.68478 219.671 5.76881 219.962 5.92323C220.253 6.07765 220.504 6.29817 220.695 6.56711L231.67 22.4324C231.771 22.5595 231.847 22.6103 231.911 22.6103C231.974 22.6103 231.987 22.6103 232.038 22.5214C232.058 22.4552 232.058 22.3844 232.038 22.3182V7.07524C232.036 6.8932 232.071 6.71267 232.141 6.54455C232.211 6.37644 232.314 6.22421 232.444 6.09713C232.566 5.96233 232.715 5.85514 232.882 5.78283C233.048 5.71052 233.228 5.67475 233.41 5.67793C233.777 5.68756 234.127 5.83793 234.387 6.09791C234.647 6.35789 234.797 6.7077 234.807 7.07524V24.8587C234.812 25.1186 234.761 25.3765 234.658 25.6153C234.555 25.854 234.402 26.0681 234.21 26.2432C234.029 26.4309 233.812 26.5796 233.572 26.6801C233.332 26.7806 233.073 26.8308 232.813 26.8275H232.457C232.142 26.8286 231.832 26.75 231.555 26.5989C231.279 26.4578 231.036 26.2585 230.844 26.0145L219.805 10.0603C219.704 9.94596 219.628 9.88243 219.564 9.88243C219.501 9.88243 219.488 9.88244 219.45 9.97136C219.408 10.0356 219.386 10.1107 219.386 10.1873V25.4302C219.389 25.6117 219.354 25.7919 219.281 25.9584C219.209 26.1249 219.102 26.274 218.967 26.3956C218.84 26.5254 218.687 26.6282 218.519 26.698C218.351 26.7679 218.171 26.8032 217.989 26.8021C217.819 26.8031 217.65 26.7699 217.493 26.7044C217.336 26.6389 217.194 26.5426 217.074 26.421Z" fill="#314559"/>
</svg>
