<svg width="24" height="25" viewBox="0 0 24 25" fill="none" xmlns="http://www.w3.org/2000/svg">
<path d="M11.999 0.514161C11.9953 0.636757 11.9932 0.759806 11.9932 0.883301C11.9932 7.50846 17.362 12.8787 23.9863 12.8823V12.8833C17.486 12.8869 12.1947 18.0594 11.999 24.5132C11.9971 24.5132 11.9951 24.5142 11.9932 24.5142C11.9909 24.5142 11.9886 24.5132 11.9863 24.5132C11.7906 18.0595 6.50031 12.887 0 12.8833L0 12.8823C6.62425 12.8786 11.9932 7.50842 11.9932 0.883301C11.9932 0.759797 11.99 0.636766 11.9863 0.514161C11.9883 0.514161 11.9971 0.51416 11.999 0.514161Z" fill="white"/>
</svg>
