<svg width="193" height="91" viewBox="0 0 193 91" fill="none" xmlns="http://www.w3.org/2000/svg">
<path d="M7 3.5C7 5.433 5.433 7 3.5 7C1.567 7 0 5.433 0 3.5C0 1.567 1.567 0 3.5 0C5.433 0 7 1.567 7 3.5Z" fill="#E8EFFA"/>
<path d="M7 24.5C7 26.433 5.433 28 3.5 28C1.567 28 0 26.433 0 24.5C0 22.567 1.567 21 3.5 21C5.433 21 7 22.567 7 24.5Z" fill="#E8EFFA"/>
<path d="M7 45.5C7 47.433 5.433 49 3.5 49C1.567 49 0 47.433 0 45.5C0 43.567 1.567 42 3.5 42C5.433 42 7 43.567 7 45.5Z" fill="#E8EFFA"/>
<path d="M7 66.5C7 68.433 5.433 70 3.5 70C1.567 70 0 68.433 0 66.5C0 64.567 1.567 63 3.5 63C5.433 63 7 64.567 7 66.5Z" fill="#E8EFFA"/>
<path d="M7 87.5C7 89.433 5.433 91 3.5 91C1.567 91 0 89.433 0 87.5C0 85.567 1.567 84 3.5 84C5.433 84 7 85.567 7 87.5Z" fill="#E8EFFA"/>
<path d="M22.5 3.5C22.5 5.433 20.933 7 19 7C17.067 7 15.5 5.433 15.5 3.5C15.5 1.567 17.067 0 19 0C20.933 0 22.5 1.567 22.5 3.5Z" fill="#E8EFFA"/>
<path d="M22.5 24.5C22.5 26.433 20.933 28 19 28C17.067 28 15.5 26.433 15.5 24.5C15.5 22.567 17.067 21 19 21C20.933 21 22.5 22.567 22.5 24.5Z" fill="#E8EFFA"/>
<path d="M22.5 45.5C22.5 47.433 20.933 49 19 49C17.067 49 15.5 47.433 15.5 45.5C15.5 43.567 17.067 42 19 42C20.933 42 22.5 43.567 22.5 45.5Z" fill="#E8EFFA"/>
<path d="M22.5 66.5C22.5 68.433 20.933 70 19 70C17.067 70 15.5 68.433 15.5 66.5C15.5 64.567 17.067 63 19 63C20.933 63 22.5 64.567 22.5 66.5Z" fill="#E8EFFA"/>
<path d="M22.5 87.5C22.5 89.433 20.933 91 19 91C17.067 91 15.5 89.433 15.5 87.5C15.5 85.567 17.067 84 19 84C20.933 84 22.5 85.567 22.5 87.5Z" fill="#E8EFFA"/>
<path d="M38 3.5C38 5.433 36.433 7 34.5 7C32.567 7 31 5.433 31 3.5C31 1.567 32.567 0 34.5 0C36.433 0 38 1.567 38 3.5Z" fill="#E8EFFA"/>
<path d="M38 24.5C38 26.433 36.433 28 34.5 28C32.567 28 31 26.433 31 24.5C31 22.567 32.567 21 34.5 21C36.433 21 38 22.567 38 24.5Z" fill="#E8EFFA"/>
<path d="M38 45.5C38 47.433 36.433 49 34.5 49C32.567 49 31 47.433 31 45.5C31 43.567 32.567 42 34.5 42C36.433 42 38 43.567 38 45.5Z" fill="#E8EFFA"/>
<path d="M38 66.5C38 68.433 36.433 70 34.5 70C32.567 70 31 68.433 31 66.5C31 64.567 32.567 63 34.5 63C36.433 63 38 64.567 38 66.5Z" fill="#E8EFFA"/>
<path d="M38 87.5C38 89.433 36.433 91 34.5 91C32.567 91 31 89.433 31 87.5C31 85.567 32.567 84 34.5 84C36.433 84 38 85.567 38 87.5Z" fill="#E8EFFA"/>
<path d="M53.5 3.5C53.5 5.433 51.933 7 50 7C48.067 7 46.5 5.433 46.5 3.5C46.5 1.567 48.067 0 50 0C51.933 0 53.5 1.567 53.5 3.5Z" fill="#E8EFFA"/>
<path d="M53.5 24.5C53.5 26.433 51.933 28 50 28C48.067 28 46.5 26.433 46.5 24.5C46.5 22.567 48.067 21 50 21C51.933 21 53.5 22.567 53.5 24.5Z" fill="#E8EFFA"/>
<path d="M53.5 45.5C53.5 47.433 51.933 49 50 49C48.067 49 46.5 47.433 46.5 45.5C46.5 43.567 48.067 42 50 42C51.933 42 53.5 43.567 53.5 45.5Z" fill="#E8EFFA"/>
<path d="M53.5 66.5C53.5 68.433 51.933 70 50 70C48.067 70 46.5 68.433 46.5 66.5C46.5 64.567 48.067 63 50 63C51.933 63 53.5 64.567 53.5 66.5Z" fill="#E8EFFA"/>
<path d="M53.5 87.5C53.5 89.433 51.933 91 50 91C48.067 91 46.5 89.433 46.5 87.5C46.5 85.567 48.067 84 50 84C51.933 84 53.5 85.567 53.5 87.5Z" fill="#E8EFFA"/>
<path d="M69 3.5C69 5.433 67.433 7 65.5 7C63.567 7 62 5.433 62 3.5C62 1.567 63.567 0 65.5 0C67.433 0 69 1.567 69 3.5Z" fill="#E8EFFA"/>
<path d="M69 24.5C69 26.433 67.433 28 65.5 28C63.567 28 62 26.433 62 24.5C62 22.567 63.567 21 65.5 21C67.433 21 69 22.567 69 24.5Z" fill="#E8EFFA"/>
<path d="M69 45.5C69 47.433 67.433 49 65.5 49C63.567 49 62 47.433 62 45.5C62 43.567 63.567 42 65.5 42C67.433 42 69 43.567 69 45.5Z" fill="#E8EFFA"/>
<path d="M69 66.5C69 68.433 67.433 70 65.5 70C63.567 70 62 68.433 62 66.5C62 64.567 63.567 63 65.5 63C67.433 63 69 64.567 69 66.5Z" fill="#E8EFFA"/>
<path d="M69 87.5C69 89.433 67.433 91 65.5 91C63.567 91 62 89.433 62 87.5C62 85.567 63.567 84 65.5 84C67.433 84 69 85.567 69 87.5Z" fill="#E8EFFA"/>
<path d="M84.5 3.5C84.5 5.433 82.933 7 81 7C79.067 7 77.5 5.433 77.5 3.5C77.5 1.567 79.067 0 81 0C82.933 0 84.5 1.567 84.5 3.5Z" fill="#E8EFFA"/>
<path d="M84.5 24.5C84.5 26.433 82.933 28 81 28C79.067 28 77.5 26.433 77.5 24.5C77.5 22.567 79.067 21 81 21C82.933 21 84.5 22.567 84.5 24.5Z" fill="#E8EFFA"/>
<path d="M84.5 45.5C84.5 47.433 82.933 49 81 49C79.067 49 77.5 47.433 77.5 45.5C77.5 43.567 79.067 42 81 42C82.933 42 84.5 43.567 84.5 45.5Z" fill="#E8EFFA"/>
<path d="M84.5 66.5C84.5 68.433 82.933 70 81 70C79.067 70 77.5 68.433 77.5 66.5C77.5 64.567 79.067 63 81 63C82.933 63 84.5 64.567 84.5 66.5Z" fill="#E8EFFA"/>
<path d="M84.5 87.5C84.5 89.433 82.933 91 81 91C79.067 91 77.5 89.433 77.5 87.5C77.5 85.567 79.067 84 81 84C82.933 84 84.5 85.567 84.5 87.5Z" fill="#E8EFFA"/>
<path d="M100 3.5C100 5.433 98.433 7 96.5 7C94.567 7 93 5.433 93 3.5C93 1.567 94.567 0 96.5 0C98.433 0 100 1.567 100 3.5Z" fill="#E8EFFA"/>
<path d="M100 24.5C100 26.433 98.433 28 96.5 28C94.567 28 93 26.433 93 24.5C93 22.567 94.567 21 96.5 21C98.433 21 100 22.567 100 24.5Z" fill="#E8EFFA"/>
<path d="M100 45.5C100 47.433 98.433 49 96.5 49C94.567 49 93 47.433 93 45.5C93 43.567 94.567 42 96.5 42C98.433 42 100 43.567 100 45.5Z" fill="#E8EFFA"/>
<path d="M100 66.5C100 68.433 98.433 70 96.5 70C94.567 70 93 68.433 93 66.5C93 64.567 94.567 63 96.5 63C98.433 63 100 64.567 100 66.5Z" fill="#E8EFFA"/>
<path d="M100 87.5C100 89.433 98.433 91 96.5 91C94.567 91 93 89.433 93 87.5C93 85.567 94.567 84 96.5 84C98.433 84 100 85.567 100 87.5Z" fill="#E8EFFA"/>
<path d="M115.5 3.5C115.5 5.433 113.933 7 112 7C110.067 7 108.5 5.433 108.5 3.5C108.5 1.567 110.067 0 112 0C113.933 0 115.5 1.567 115.5 3.5Z" fill="#E8EFFA"/>
<path d="M115.5 24.5C115.5 26.433 113.933 28 112 28C110.067 28 108.5 26.433 108.5 24.5C108.5 22.567 110.067 21 112 21C113.933 21 115.5 22.567 115.5 24.5Z" fill="#E8EFFA"/>
<path d="M115.5 45.5C115.5 47.433 113.933 49 112 49C110.067 49 108.5 47.433 108.5 45.5C108.5 43.567 110.067 42 112 42C113.933 42 115.5 43.567 115.5 45.5Z" fill="#E8EFFA"/>
<path d="M115.5 66.5C115.5 68.433 113.933 70 112 70C110.067 70 108.5 68.433 108.5 66.5C108.5 64.567 110.067 63 112 63C113.933 63 115.5 64.567 115.5 66.5Z" fill="#E8EFFA"/>
<path d="M115.5 87.5C115.5 89.433 113.933 91 112 91C110.067 91 108.5 89.433 108.5 87.5C108.5 85.567 110.067 84 112 84C113.933 84 115.5 85.567 115.5 87.5Z" fill="#E8EFFA"/>
<path d="M131 3.5C131 5.433 129.433 7 127.5 7C125.567 7 124 5.433 124 3.5C124 1.567 125.567 0 127.5 0C129.433 0 131 1.567 131 3.5Z" fill="#E8EFFA"/>
<path d="M131 24.5C131 26.433 129.433 28 127.5 28C125.567 28 124 26.433 124 24.5C124 22.567 125.567 21 127.5 21C129.433 21 131 22.567 131 24.5Z" fill="#E8EFFA"/>
<path d="M131 45.5C131 47.433 129.433 49 127.5 49C125.567 49 124 47.433 124 45.5C124 43.567 125.567 42 127.5 42C129.433 42 131 43.567 131 45.5Z" fill="#E8EFFA"/>
<path d="M131 66.5C131 68.433 129.433 70 127.5 70C125.567 70 124 68.433 124 66.5C124 64.567 125.567 63 127.5 63C129.433 63 131 64.567 131 66.5Z" fill="#E8EFFA"/>
<path d="M131 87.5C131 89.433 129.433 91 127.5 91C125.567 91 124 89.433 124 87.5C124 85.567 125.567 84 127.5 84C129.433 84 131 85.567 131 87.5Z" fill="#E8EFFA"/>
<path d="M146.5 3.5C146.5 5.433 144.933 7 143 7C141.067 7 139.5 5.433 139.5 3.5C139.5 1.567 141.067 0 143 0C144.933 0 146.5 1.567 146.5 3.5Z" fill="#E8EFFA"/>
<path d="M146.5 24.5C146.5 26.433 144.933 28 143 28C141.067 28 139.5 26.433 139.5 24.5C139.5 22.567 141.067 21 143 21C144.933 21 146.5 22.567 146.5 24.5Z" fill="#E8EFFA"/>
<path d="M146.5 45.5C146.5 47.433 144.933 49 143 49C141.067 49 139.5 47.433 139.5 45.5C139.5 43.567 141.067 42 143 42C144.933 42 146.5 43.567 146.5 45.5Z" fill="#E8EFFA"/>
<path d="M146.5 66.5C146.5 68.433 144.933 70 143 70C141.067 70 139.5 68.433 139.5 66.5C139.5 64.567 141.067 63 143 63C144.933 63 146.5 64.567 146.5 66.5Z" fill="#E8EFFA"/>
<path d="M146.5 87.5C146.5 89.433 144.933 91 143 91C141.067 91 139.5 89.433 139.5 87.5C139.5 85.567 141.067 84 143 84C144.933 84 146.5 85.567 146.5 87.5Z" fill="#E8EFFA"/>
<path d="M162 3.5C162 5.433 160.433 7 158.5 7C156.567 7 155 5.433 155 3.5C155 1.567 156.567 0 158.5 0C160.433 0 162 1.567 162 3.5Z" fill="#E8EFFA"/>
<path d="M162 24.5C162 26.433 160.433 28 158.5 28C156.567 28 155 26.433 155 24.5C155 22.567 156.567 21 158.5 21C160.433 21 162 22.567 162 24.5Z" fill="#E8EFFA"/>
<path d="M162 45.5C162 47.433 160.433 49 158.5 49C156.567 49 155 47.433 155 45.5C155 43.567 156.567 42 158.5 42C160.433 42 162 43.567 162 45.5Z" fill="#E8EFFA"/>
<path d="M162 66.5C162 68.433 160.433 70 158.5 70C156.567 70 155 68.433 155 66.5C155 64.567 156.567 63 158.5 63C160.433 63 162 64.567 162 66.5Z" fill="#E8EFFA"/>
<path d="M162 87.5C162 89.433 160.433 91 158.5 91C156.567 91 155 89.433 155 87.5C155 85.567 156.567 84 158.5 84C160.433 84 162 85.567 162 87.5Z" fill="#E8EFFA"/>
<path d="M177.5 3.5C177.5 5.433 175.933 7 174 7C172.067 7 170.5 5.433 170.5 3.5C170.5 1.567 172.067 0 174 0C175.933 0 177.5 1.567 177.5 3.5Z" fill="#E8EFFA"/>
<path d="M177.5 24.5C177.5 26.433 175.933 28 174 28C172.067 28 170.5 26.433 170.5 24.5C170.5 22.567 172.067 21 174 21C175.933 21 177.5 22.567 177.5 24.5Z" fill="#E8EFFA"/>
<path d="M177.5 45.5C177.5 47.433 175.933 49 174 49C172.067 49 170.5 47.433 170.5 45.5C170.5 43.567 172.067 42 174 42C175.933 42 177.5 43.567 177.5 45.5Z" fill="#E8EFFA"/>
<path d="M177.5 66.5C177.5 68.433 175.933 70 174 70C172.067 70 170.5 68.433 170.5 66.5C170.5 64.567 172.067 63 174 63C175.933 63 177.5 64.567 177.5 66.5Z" fill="#E8EFFA"/>
<path d="M177.5 87.5C177.5 89.433 175.933 91 174 91C172.067 91 170.5 89.433 170.5 87.5C170.5 85.567 172.067 84 174 84C175.933 84 177.5 85.567 177.5 87.5Z" fill="#E8EFFA"/>
<path d="M193 3.5C193 5.433 191.433 7 189.5 7C187.567 7 186 5.433 186 3.5C186 1.567 187.567 0 189.5 0C191.433 0 193 1.567 193 3.5Z" fill="#E8EFFA"/>
<path d="M193 24.5C193 26.433 191.433 28 189.5 28C187.567 28 186 26.433 186 24.5C186 22.567 187.567 21 189.5 21C191.433 21 193 22.567 193 24.5Z" fill="#E8EFFA"/>
<path d="M193 45.5C193 47.433 191.433 49 189.5 49C187.567 49 186 47.433 186 45.5C186 43.567 187.567 42 189.5 42C191.433 42 193 43.567 193 45.5Z" fill="#E8EFFA"/>
<path d="M193 66.5C193 68.433 191.433 70 189.5 70C187.567 70 186 68.433 186 66.5C186 64.567 187.567 63 189.5 63C191.433 63 193 64.567 193 66.5Z" fill="#E8EFFA"/>
<path d="M193 87.5C193 89.433 191.433 91 189.5 91C187.567 91 186 89.433 186 87.5C186 85.567 187.567 84 189.5 84C191.433 84 193 85.567 193 87.5Z" fill="#E8EFFA"/>
</svg>
