<svg width="194" height="92" viewBox="0 0 194 92" fill="none" xmlns="http://www.w3.org/2000/svg">
<path fill-rule="evenodd" clip-rule="evenodd" d="M9.44086 5.22043C9.44086 7.55147 7.55024 9.44086 5.22123 9.44086C2.89063 9.44086 1 7.55147 1 5.22043C1 2.88939 2.89063 1 5.22123 1C7.55024 1 9.44086 2.88939 9.44086 5.22043Z" stroke="#E9E3D7"/>
<path fill-rule="evenodd" clip-rule="evenodd" d="M9.44086 25.6613C9.44086 27.9923 7.55024 29.8817 5.22123 29.8817C2.89063 29.8817 1 27.9923 1 25.6613C1 23.3302 2.89063 21.4409 5.22123 21.4409C7.55024 21.4409 9.44086 23.3302 9.44086 25.6613Z" stroke="#E9E3D7"/>
<path fill-rule="evenodd" clip-rule="evenodd" d="M9.44086 46.1021C9.44086 48.4332 7.55024 50.3226 5.22123 50.3226C2.89063 50.3226 1 48.4332 1 46.1021C1 43.7711 2.89063 41.8817 5.22123 41.8817C7.55024 41.8817 9.44086 43.7711 9.44086 46.1021Z" stroke="#E9E3D7"/>
<path fill-rule="evenodd" clip-rule="evenodd" d="M9.44086 66.543C9.44086 68.8741 7.55024 70.7634 5.22123 70.7634C2.89063 70.7634 1 68.8741 1 66.543C1 64.212 2.89063 62.3226 5.22123 62.3226C7.55024 62.3226 9.44086 64.212 9.44086 66.543Z" stroke="#E9E3D7"/>
<path fill-rule="evenodd" clip-rule="evenodd" d="M9.44086 86.9839C9.44086 89.3149 7.55024 91.2043 5.22123 91.2043C2.89063 91.2043 1 89.3149 1 86.9839C1 84.6528 2.89063 82.7634 5.22123 82.7634C7.55024 82.7634 9.44086 84.6528 9.44086 86.9839Z" stroke="#E9E3D7"/>
<path fill-rule="evenodd" clip-rule="evenodd" d="M29.8817 5.22043C29.8817 7.55147 27.9911 9.44086 25.6621 9.44086C23.3315 9.44086 21.4409 7.55147 21.4409 5.22043C21.4409 2.88939 23.3315 1 25.6621 1C27.9911 1 29.8817 2.88939 29.8817 5.22043Z" stroke="#E9E3D7"/>
<path fill-rule="evenodd" clip-rule="evenodd" d="M29.8817 25.6613C29.8817 27.9923 27.9911 29.8817 25.6621 29.8817C23.3315 29.8817 21.4409 27.9923 21.4409 25.6613C21.4409 23.3302 23.3315 21.4409 25.6621 21.4409C27.9911 21.4409 29.8817 23.3302 29.8817 25.6613Z" stroke="#E9E3D7"/>
<path fill-rule="evenodd" clip-rule="evenodd" d="M29.8817 46.1021C29.8817 48.4332 27.9911 50.3226 25.6621 50.3226C23.3315 50.3226 21.4409 48.4332 21.4409 46.1021C21.4409 43.7711 23.3315 41.8817 25.6621 41.8817C27.9911 41.8817 29.8817 43.7711 29.8817 46.1021Z" stroke="#E9E3D7"/>
<path fill-rule="evenodd" clip-rule="evenodd" d="M29.8817 66.543C29.8817 68.8741 27.9911 70.7634 25.6621 70.7634C23.3315 70.7634 21.4409 68.8741 21.4409 66.543C21.4409 64.212 23.3315 62.3226 25.6621 62.3226C27.9911 62.3226 29.8817 64.212 29.8817 66.543Z" stroke="#E9E3D7"/>
<path fill-rule="evenodd" clip-rule="evenodd" d="M29.8817 86.9839C29.8817 89.3149 27.9911 91.2043 25.6621 91.2043C23.3315 91.2043 21.4409 89.3149 21.4409 86.9839C21.4409 84.6528 23.3315 82.7634 25.6621 82.7634C27.9911 82.7634 29.8817 84.6528 29.8817 86.9839Z" stroke="#E9E3D7"/>
<path fill-rule="evenodd" clip-rule="evenodd" d="M50.3226 5.22043C50.3226 7.55147 48.432 9.44086 46.103 9.44086C43.7723 9.44086 41.8817 7.55147 41.8817 5.22043C41.8817 2.88939 43.7723 1 46.103 1C48.432 1 50.3226 2.88939 50.3226 5.22043Z" stroke="#E9E3D7"/>
<path fill-rule="evenodd" clip-rule="evenodd" d="M50.3226 25.6613C50.3226 27.9923 48.432 29.8817 46.103 29.8817C43.7723 29.8817 41.8817 27.9923 41.8817 25.6613C41.8817 23.3302 43.7723 21.4409 46.103 21.4409C48.432 21.4409 50.3226 23.3302 50.3226 25.6613Z" stroke="#E9E3D7"/>
<path fill-rule="evenodd" clip-rule="evenodd" d="M50.3226 46.1021C50.3226 48.4332 48.432 50.3226 46.103 50.3226C43.7723 50.3226 41.8817 48.4332 41.8817 46.1021C41.8817 43.7711 43.7723 41.8817 46.103 41.8817C48.432 41.8817 50.3226 43.7711 50.3226 46.1021Z" stroke="#E9E3D7"/>
<path fill-rule="evenodd" clip-rule="evenodd" d="M50.3226 66.543C50.3226 68.8741 48.432 70.7634 46.103 70.7634C43.7723 70.7634 41.8817 68.8741 41.8817 66.543C41.8817 64.212 43.7723 62.3226 46.103 62.3226C48.432 62.3226 50.3226 64.212 50.3226 66.543Z" stroke="#E9E3D7"/>
<path fill-rule="evenodd" clip-rule="evenodd" d="M50.3226 86.9839C50.3226 89.3149 48.432 91.2043 46.103 91.2043C43.7723 91.2043 41.8817 89.3149 41.8817 86.9839C41.8817 84.6528 43.7723 82.7634 46.103 82.7634C48.432 82.7634 50.3226 84.6528 50.3226 86.9839Z" stroke="#E9E3D7"/>
<path fill-rule="evenodd" clip-rule="evenodd" d="M70.7634 5.22043C70.7634 7.55147 68.8728 9.44086 66.5438 9.44086C64.2132 9.44086 62.3226 7.55147 62.3226 5.22043C62.3226 2.88939 64.2132 1 66.5438 1C68.8728 1 70.7634 2.88939 70.7634 5.22043Z" stroke="#E9E3D7"/>
<path fill-rule="evenodd" clip-rule="evenodd" d="M70.7634 25.6613C70.7634 27.9923 68.8728 29.8817 66.5438 29.8817C64.2132 29.8817 62.3226 27.9923 62.3226 25.6613C62.3226 23.3302 64.2132 21.4409 66.5438 21.4409C68.8728 21.4409 70.7634 23.3302 70.7634 25.6613Z" stroke="#E9E3D7"/>
<path fill-rule="evenodd" clip-rule="evenodd" d="M70.7634 46.1021C70.7634 48.4332 68.8728 50.3226 66.5438 50.3226C64.2132 50.3226 62.3226 48.4332 62.3226 46.1021C62.3226 43.7711 64.2132 41.8817 66.5438 41.8817C68.8728 41.8817 70.7634 43.7711 70.7634 46.1021Z" stroke="#E9E3D7"/>
<path fill-rule="evenodd" clip-rule="evenodd" d="M70.7634 66.543C70.7634 68.8741 68.8728 70.7634 66.5438 70.7634C64.2132 70.7634 62.3226 68.8741 62.3226 66.543C62.3226 64.212 64.2132 62.3226 66.5438 62.3226C68.8728 62.3226 70.7634 64.212 70.7634 66.543Z" stroke="#E9E3D7"/>
<path fill-rule="evenodd" clip-rule="evenodd" d="M70.7634 86.9839C70.7634 89.3149 68.8728 91.2043 66.5438 91.2043C64.2132 91.2043 62.3226 89.3149 62.3226 86.9839C62.3226 84.6528 64.2132 82.7634 66.5438 82.7634C68.8728 82.7634 70.7634 84.6528 70.7634 86.9839Z" stroke="#E9E3D7"/>
<path fill-rule="evenodd" clip-rule="evenodd" d="M91.2043 5.22043C91.2043 7.55147 89.3137 9.44086 86.9847 9.44086C84.6541 9.44086 82.7634 7.55147 82.7634 5.22043C82.7634 2.88939 84.6541 1 86.9847 1C89.3137 1 91.2043 2.88939 91.2043 5.22043Z" stroke="#E9E3D7"/>
<path fill-rule="evenodd" clip-rule="evenodd" d="M91.2043 25.6613C91.2043 27.9923 89.3137 29.8817 86.9847 29.8817C84.6541 29.8817 82.7634 27.9923 82.7634 25.6613C82.7634 23.3302 84.6541 21.4409 86.9847 21.4409C89.3137 21.4409 91.2043 23.3302 91.2043 25.6613Z" stroke="#E9E3D7"/>
<path fill-rule="evenodd" clip-rule="evenodd" d="M91.2043 46.1021C91.2043 48.4332 89.3137 50.3226 86.9847 50.3226C84.6541 50.3226 82.7634 48.4332 82.7634 46.1021C82.7634 43.7711 84.6541 41.8817 86.9847 41.8817C89.3137 41.8817 91.2043 43.7711 91.2043 46.1021Z" stroke="#E9E3D7"/>
<path fill-rule="evenodd" clip-rule="evenodd" d="M91.2043 66.543C91.2043 68.8741 89.3137 70.7634 86.9847 70.7634C84.6541 70.7634 82.7634 68.8741 82.7634 66.543C82.7634 64.212 84.6541 62.3226 86.9847 62.3226C89.3137 62.3226 91.2043 64.212 91.2043 66.543Z" stroke="#E9E3D7"/>
<path fill-rule="evenodd" clip-rule="evenodd" d="M91.2043 86.9839C91.2043 89.3149 89.3137 91.2043 86.9847 91.2043C84.6541 91.2043 82.7634 89.3149 82.7634 86.9839C82.7634 84.6528 84.6541 82.7634 86.9847 82.7634C89.3137 82.7634 91.2043 84.6528 91.2043 86.9839Z" stroke="#E9E3D7"/>
<path fill-rule="evenodd" clip-rule="evenodd" d="M111.645 5.22043C111.645 7.55147 109.755 9.44086 107.426 9.44086C105.095 9.44086 103.204 7.55147 103.204 5.22043C103.204 2.88939 105.095 1 107.426 1C109.755 1 111.645 2.88939 111.645 5.22043Z" stroke="#E9E3D7"/>
<path fill-rule="evenodd" clip-rule="evenodd" d="M111.645 25.6613C111.645 27.9923 109.755 29.8817 107.426 29.8817C105.095 29.8817 103.204 27.9923 103.204 25.6613C103.204 23.3302 105.095 21.4409 107.426 21.4409C109.755 21.4409 111.645 23.3302 111.645 25.6613Z" stroke="#E9E3D7"/>
<path fill-rule="evenodd" clip-rule="evenodd" d="M111.645 46.1021C111.645 48.4332 109.755 50.3226 107.426 50.3226C105.095 50.3226 103.204 48.4332 103.204 46.1021C103.204 43.7711 105.095 41.8817 107.426 41.8817C109.755 41.8817 111.645 43.7711 111.645 46.1021Z" stroke="#E9E3D7"/>
<path fill-rule="evenodd" clip-rule="evenodd" d="M111.645 66.543C111.645 68.8741 109.755 70.7634 107.426 70.7634C105.095 70.7634 103.204 68.8741 103.204 66.543C103.204 64.212 105.095 62.3226 107.426 62.3226C109.755 62.3226 111.645 64.212 111.645 66.543Z" stroke="#E9E3D7"/>
<path fill-rule="evenodd" clip-rule="evenodd" d="M111.645 86.9839C111.645 89.3149 109.755 91.2043 107.426 91.2043C105.095 91.2043 103.204 89.3149 103.204 86.9839C103.204 84.6528 105.095 82.7634 107.426 82.7634C109.755 82.7634 111.645 84.6528 111.645 86.9839Z" stroke="#E9E3D7"/>
<path fill-rule="evenodd" clip-rule="evenodd" d="M132.086 5.22043C132.086 7.55147 130.195 9.44086 127.866 9.44086C125.536 9.44086 123.645 7.55147 123.645 5.22043C123.645 2.88939 125.536 1 127.866 1C130.195 1 132.086 2.88939 132.086 5.22043Z" stroke="#E9E3D7"/>
<path fill-rule="evenodd" clip-rule="evenodd" d="M132.086 25.6613C132.086 27.9923 130.195 29.8817 127.866 29.8817C125.536 29.8817 123.645 27.9923 123.645 25.6613C123.645 23.3302 125.536 21.4409 127.866 21.4409C130.195 21.4409 132.086 23.3302 132.086 25.6613Z" stroke="#E9E3D7"/>
<path fill-rule="evenodd" clip-rule="evenodd" d="M132.086 46.1021C132.086 48.4332 130.195 50.3226 127.866 50.3226C125.536 50.3226 123.645 48.4332 123.645 46.1021C123.645 43.7711 125.536 41.8817 127.866 41.8817C130.195 41.8817 132.086 43.7711 132.086 46.1021Z" stroke="#E9E3D7"/>
<path fill-rule="evenodd" clip-rule="evenodd" d="M132.086 66.543C132.086 68.8741 130.195 70.7634 127.866 70.7634C125.536 70.7634 123.645 68.8741 123.645 66.543C123.645 64.212 125.536 62.3226 127.866 62.3226C130.195 62.3226 132.086 64.212 132.086 66.543Z" stroke="#E9E3D7"/>
<path fill-rule="evenodd" clip-rule="evenodd" d="M132.086 86.9839C132.086 89.3149 130.195 91.2043 127.866 91.2043C125.536 91.2043 123.645 89.3149 123.645 86.9839C123.645 84.6528 125.536 82.7634 127.866 82.7634C130.195 82.7634 132.086 84.6528 132.086 86.9839Z" stroke="#E9E3D7"/>
<path fill-rule="evenodd" clip-rule="evenodd" d="M152.527 5.22043C152.527 7.55147 150.636 9.44086 148.307 9.44086C145.977 9.44086 144.086 7.55147 144.086 5.22043C144.086 2.88939 145.977 1 148.307 1C150.636 1 152.527 2.88939 152.527 5.22043Z" stroke="#E9E3D7"/>
<path fill-rule="evenodd" clip-rule="evenodd" d="M152.527 25.6613C152.527 27.9923 150.636 29.8817 148.307 29.8817C145.977 29.8817 144.086 27.9923 144.086 25.6613C144.086 23.3302 145.977 21.4409 148.307 21.4409C150.636 21.4409 152.527 23.3302 152.527 25.6613Z" stroke="#E9E3D7"/>
<path fill-rule="evenodd" clip-rule="evenodd" d="M152.527 46.1021C152.527 48.4332 150.636 50.3226 148.307 50.3226C145.977 50.3226 144.086 48.4332 144.086 46.1021C144.086 43.7711 145.977 41.8817 148.307 41.8817C150.636 41.8817 152.527 43.7711 152.527 46.1021Z" stroke="#E9E3D7"/>
<path fill-rule="evenodd" clip-rule="evenodd" d="M152.527 66.543C152.527 68.8741 150.636 70.7634 148.307 70.7634C145.977 70.7634 144.086 68.8741 144.086 66.543C144.086 64.212 145.977 62.3226 148.307 62.3226C150.636 62.3226 152.527 64.212 152.527 66.543Z" stroke="#E9E3D7"/>
<path fill-rule="evenodd" clip-rule="evenodd" d="M152.527 86.9839C152.527 89.3149 150.636 91.2043 148.307 91.2043C145.977 91.2043 144.086 89.3149 144.086 86.9839C144.086 84.6528 145.977 82.7634 148.307 82.7634C150.636 82.7634 152.527 84.6528 152.527 86.9839Z" stroke="#E9E3D7"/>
<path fill-rule="evenodd" clip-rule="evenodd" d="M172.968 5.22043C172.968 7.55147 171.077 9.44086 168.748 9.44086C166.417 9.44086 164.527 7.55147 164.527 5.22043C164.527 2.88939 166.417 1 168.748 1C171.077 1 172.968 2.88939 172.968 5.22043Z" stroke="#E9E3D7"/>
<path fill-rule="evenodd" clip-rule="evenodd" d="M172.968 25.6613C172.968 27.9923 171.077 29.8817 168.748 29.8817C166.417 29.8817 164.527 27.9923 164.527 25.6613C164.527 23.3302 166.417 21.4409 168.748 21.4409C171.077 21.4409 172.968 23.3302 172.968 25.6613Z" stroke="#E9E3D7"/>
<path fill-rule="evenodd" clip-rule="evenodd" d="M172.968 46.1021C172.968 48.4332 171.077 50.3226 168.748 50.3226C166.417 50.3226 164.527 48.4332 164.527 46.1021C164.527 43.7711 166.417 41.8817 168.748 41.8817C171.077 41.8817 172.968 43.7711 172.968 46.1021Z" stroke="#E9E3D7"/>
<path fill-rule="evenodd" clip-rule="evenodd" d="M172.968 66.543C172.968 68.8741 171.077 70.7634 168.748 70.7634C166.417 70.7634 164.527 68.8741 164.527 66.543C164.527 64.212 166.417 62.3226 168.748 62.3226C171.077 62.3226 172.968 64.212 172.968 66.543Z" stroke="#E9E3D7"/>
<path fill-rule="evenodd" clip-rule="evenodd" d="M172.968 86.9839C172.968 89.3149 171.077 91.2043 168.748 91.2043C166.417 91.2043 164.527 89.3149 164.527 86.9839C164.527 84.6528 166.417 82.7634 168.748 82.7634C171.077 82.7634 172.968 84.6528 172.968 86.9839Z" stroke="#E9E3D7"/>
<path fill-rule="evenodd" clip-rule="evenodd" d="M193.409 5.22043C193.409 7.55147 191.518 9.44086 189.189 9.44086C186.858 9.44086 184.968 7.55147 184.968 5.22043C184.968 2.88939 186.858 1 189.189 1C191.518 1 193.409 2.88939 193.409 5.22043Z" stroke="#E9E3D7"/>
<path fill-rule="evenodd" clip-rule="evenodd" d="M193.409 25.6613C193.409 27.9923 191.518 29.8817 189.189 29.8817C186.858 29.8817 184.968 27.9923 184.968 25.6613C184.968 23.3302 186.858 21.4409 189.189 21.4409C191.518 21.4409 193.409 23.3302 193.409 25.6613Z" stroke="#E9E3D7"/>
<path fill-rule="evenodd" clip-rule="evenodd" d="M193.409 46.1021C193.409 48.4332 191.518 50.3226 189.189 50.3226C186.858 50.3226 184.968 48.4332 184.968 46.1021C184.968 43.7711 186.858 41.8817 189.189 41.8817C191.518 41.8817 193.409 43.7711 193.409 46.1021Z" stroke="#E9E3D7"/>
<path fill-rule="evenodd" clip-rule="evenodd" d="M193.409 66.543C193.409 68.8741 191.518 70.7634 189.189 70.7634C186.858 70.7634 184.968 68.8741 184.968 66.543C184.968 64.212 186.858 62.3226 189.189 62.3226C191.518 62.3226 193.409 64.212 193.409 66.543Z" stroke="#E9E3D7"/>
<path fill-rule="evenodd" clip-rule="evenodd" d="M193.409 86.9839C193.409 89.3149 191.518 91.2043 189.189 91.2043C186.858 91.2043 184.968 89.3149 184.968 86.9839C184.968 84.6528 186.858 82.7634 189.189 82.7634C191.518 82.7634 193.409 84.6528 193.409 86.9839Z" stroke="#E9E3D7"/>
</svg>
