<svg width="1440" height="527" viewBox="0 0 1440 527" fill="none" xmlns="http://www.w3.org/2000/svg">
<path d="M-190.179 38.0399C-111.44 -23.2053 16.6302 -5.25246 75.6496 75.0038C108.912 120.272 119.927 177.587 128.679 232.998C141.043 311.371 156.945 423.246 239.85 459.96C272.408 474.355 311.179 473.949 343.374 458.759C392.062 435.805 420.62 384.384 464.393 353.343C513.109 318.735 569.09 311.378 621.801 338.329C672.022 363.937 715.938 400.238 766.815 424.546C853.91 466.158 958.768 467.609 1047.85 431.044C1150.92 388.633 1237.37 312.065 1349.77 291.473C1393.27 283.423 1437.73 287.394 1478.31 305.544C1551.63 338.292 1614.73 389.16 1675.03 441.772M-187.234 51.9107C-129.942 10.8912 -46.459 10.255 17.6481 42.3194C40.5495 53.8945 61.0446 69.6157 76.7521 89.4894C92.3971 109.129 103.435 131.245 111.903 154.545C121.752 181.611 127.978 210.14 133.642 238.443C137.483 257.085 141.416 277.958 146.591 299.252C161.968 363.048 187.03 431.66 248.048 459.661C280.082 474.445 318.072 474.873 349.994 461.008C398.213 440.058 427.69 391.147 471.564 360.956C497.516 343.041 525.4 332.377 553.499 330.047C578.046 328.035 603.012 332.299 627.201 343.532C676.736 366.567 720.247 399.469 770.376 420.969C856.138 458.052 958.96 457.037 1047.67 421.447C1052.67 419.493 1057.52 417.454 1062.46 415.266C1153.93 375.436 1234.22 313.903 1332.66 293.638C1337.64 292.565 1342.69 291.726 1347.73 290.887C1390.7 284.107 1434.45 288.764 1474.45 307.07C1546.83 340.067 1609.25 390.739 1668.85 443.039M-184.405 65.8127C-127.787 28.8544 -45.5461 29.6754 18.2964 59.8062C41.1279 70.6485 61.6077 85.3718 77.6202 104.037C93.4219 122.383 105.085 143.081 114.03 164.876C124.559 190.258 131.73 217.159 138.371 243.95C142.844 261.673 147.528 281.594 153.25 302.117C170.501 363.536 196.134 430.995 256.073 459.658C287.554 474.715 324.825 476.211 356.473 463.67C404.339 444.692 434.62 398.324 478.478 369.014C504.32 351.629 531.853 341.058 559.796 338.143C584.101 335.694 608.614 339.202 632.461 349.148C681.31 369.611 724.385 398.996 773.711 417.954C858.109 450.389 959.042 446.996 1047.15 412.442C1052.03 410.52 1057 408.449 1061.85 406.409C1152.96 368.053 1233.46 310.597 1330.54 293.2C1335.43 292.275 1340.39 291.585 1345.47 290.863C1387.86 285.236 1430.96 290.695 1470.37 309.157C1541.73 342.551 1603.44 392.911 1662.44 444.867M-181.546 79.8316C-125.57 47.0517 -44.5708 49.3298 19.1242 77.4959C41.8857 87.6053 62.3504 101.331 78.6367 118.671C94.7434 135.808 106.735 154.916 116.423 175.261C127.632 198.96 135.717 224.115 143.365 249.511C148.471 266.315 153.874 285.169 160.259 304.888C179.385 363.931 205.441 430.151 264.302 459.475C295.259 474.922 331.78 477.369 363.155 466.153C410.669 449.147 441.722 405.204 485.595 376.892C511.358 360.154 538.626 349.529 566.21 346.208C590.156 343.354 614.334 346.073 637.838 354.733C686.149 372.709 728.672 398.609 777.249 414.76C860.166 442.579 959.211 436.807 1046.96 403.227C1051.84 401.305 1056.72 399.382 1061.6 397.459C1152.2 360.49 1232.94 307.229 1328.77 292.669C1333.61 292.009 1338.56 291.318 1343.44 290.776C1385.29 286.419 1427.69 292.564 1466.52 311.181C1536.82 344.855 1597.85 395.02 1656.26 446.633M-178.718 93.7336C-123.415 65.015 -43.6578 68.7502 19.9208 95.0685C42.6124 104.445 63.179 117.141 79.6219 133.188C96.0025 149 108.385 166.751 118.698 185.678C130.704 207.662 139.617 231.219 148.242 255.104C153.981 270.988 160.251 288.86 167.183 307.808C188.184 364.474 214.692 429.571 272.562 459.41C302.965 475.13 338.736 478.527 369.868 468.753C416.913 453.751 448.917 412.435 492.743 384.887C518.428 368.796 545.461 358.233 572.655 354.39C596.359 351.099 620.054 352.945 643.129 360.466C690.754 375.869 732.872 398.37 780.584 411.745C862.136 434.917 959.176 426.797 1046.44 394.223C1051.35 392.417 1056.11 390.525 1060.99 388.603C1151.09 353.021 1232.04 303.837 1326.64 292.231C1331.51 291.688 1336.27 291.177 1341.17 290.751C1382.46 287.548 1424.08 294.527 1462.46 313.385C1531.75 347.456 1592.07 397.309 1649.88 448.579M-175.773 107.604C-121.026 82.916 -42.6278 88.1394 20.8033 112.493C43.4561 121.254 63.9764 132.835 80.6931 147.556C97.2304 162.075 110.238 178.407 121.028 195.83C133.683 216.014 143.542 237.942 153.291 260.4C159.78 275.334 166.565 292.317 174.162 310.463C196.834 364.932 224.116 428.696 280.908 459.197C310.788 475.306 345.692 479.685 376.636 471.088C423.36 458.175 456.104 419.168 499.946 392.617C525.521 377.056 552.32 366.555 579.124 362.19C602.438 358.376 625.828 359.552 648.56 365.787C695.617 378.585 737.151 397.484 784.177 408.286C864.334 426.693 959.516 416.311 1046.29 384.743C1051.09 382.968 1055.88 381.193 1060.79 379.388C1150.38 345.193 1231.57 300.204 1324.96 291.552C1329.74 291.157 1334.53 290.762 1339.23 290.516C1379.94 288.466 1420.9 296.248 1458.7 315.262C1527.05 349.581 1586.57 399.27 1643.79 450.196M-172.914 121.623C-118.84 100.996 -41.6526 107.794 21.631 130.183C44.2139 138.211 64.719 148.794 81.8267 162.159C98.6378 175.352 112.005 190.212 123.538 206.185C136.872 224.685 147.676 244.984 158.402 265.931C165.524 279.944 173.145 295.829 181.288 313.204C205.835 365.296 233.571 427.938 289.255 458.984C318.61 475.482 352.765 480.811 383.435 473.54C429.807 462.599 463.472 426.103 507.18 400.464C532.677 385.55 559.21 374.995 585.655 370.224C608.728 365.973 631.665 366.392 654.054 371.341C700.425 381.566 741.554 397.065 787.746 405.208C866.539 418.969 959.716 406.239 1046.12 375.645C1050.95 373.987 1055.74 372.212 1060.42 370.469C1149.65 337.748 1231.05 296.836 1323.07 291.052C1327.77 290.805 1332.47 290.559 1337.23 290.546C1377.41 289.767 1417.66 298.234 1454.88 317.403C1522.2 352.12 1581.02 401.496 1637.65 452.079M-170.086 135.525C-116.685 118.96 -40.7397 127.214 22.4277 147.755C44.9406 155.05 65.4305 164.636 82.812 176.676C99.9281 188.661 113.772 202.016 125.813 216.601C139.827 233.418 151.577 252.089 163.279 271.523C171.151 284.586 179.405 299.552 188.095 316.155C214.517 365.87 242.823 427.359 297.397 458.949C326.199 475.72 359.603 482 390.031 476.172C435.933 467.234 470.518 433.248 514.211 408.491C539.598 394.107 565.897 383.613 591.983 378.437C614.697 373.781 637.416 373.381 659.345 377.074C705.178 384.812 745.724 396.709 791.198 402.162C868.627 411.275 959.767 396.081 1045.72 366.609C1050.43 364.982 1055.26 363.325 1059.93 361.581C1148.65 330.247 1230.23 293.296 1321.06 290.583C1325.68 290.484 1330.29 290.386 1335.08 290.49C1374.69 290.864 1414.28 300.134 1450.91 319.459C1517.18 354.456 1575.32 403.637 1631.35 453.877M-167.141 149.396C-114.413 136.892 -39.6785 146.72 23.3102 165.18C45.7844 171.859 66.345 180.299 83.8832 191.044C101.156 201.735 115.508 213.703 128.143 226.753C142.954 241.855 155.501 258.811 168.211 276.851C176.716 288.994 185.72 303.009 195.042 318.693C223.339 366.031 252.098 426.397 305.564 458.533C333.842 475.694 366.497 482.925 396.619 478.304C442.17 471.338 477.526 439.778 521.234 416.018C546.426 402.312 572.608 391.85 598.39 386.003C620.861 380.91 643.097 379.637 664.714 382.16C709.978 387.294 750.002 395.823 794.612 398.5C870.559 402.997 959.928 385.393 1045.4 356.926C1050.11 355.299 1054.85 353.79 1059.55 352.163C1147.77 322.217 1229.67 289.312 1319.28 289.553C1323.81 289.602 1328.45 289.621 1333.05 289.904C1372.08 291.432 1410.89 301.535 1447.09 321.102C1512.33 356.496 1569.76 405.364 1625.17 455.144M-164.313 163.298C-112.258 154.855 -38.7656 166.141 24.1067 182.753C46.5109 188.699 67.0564 196.141 84.8685 205.561C102.415 214.927 117.127 225.421 130.387 237.053C145.91 250.588 159.371 265.799 173.026 282.21C182.281 293.403 191.917 306.498 201.904 321.379C231.958 366.372 261.405 425.553 313.793 458.351C341.517 475.784 373.335 484.114 403.301 480.787C448.499 475.793 484.659 446.775 528.351 423.896C553.433 410.721 579.381 400.321 604.804 394.068C626.917 388.569 648.817 386.509 670.091 387.745C714.669 390.306 754.257 395.319 798.15 395.306C872.763 395.273 960.096 375.203 1045.08 347.742C1049.82 346.232 1054.44 344.754 1059.15 343.127C1146.86 314.568 1229 285.858 1317.36 288.936C1321.92 289.102 1326.36 289.3 1330.98 289.7C1369.48 292.498 1407.6 303.288 1443.09 323.041C1507.4 358.683 1564.03 407.388 1618.84 456.824M-161.453 177.317C-110.072 172.935 -37.8215 185.678 24.9033 200.325C47.1205 205.57 67.7679 211.983 85.885 220.195C103.705 228.235 118.926 237.343 132.81 247.556C149.013 259.408 163.536 272.958 178.052 287.888C188.056 298.13 198.294 310.189 208.859 324.415C240.788 367.032 270.688 425.091 322.084 458.403C349.285 476.225 380.322 485.389 410.045 483.504C454.774 480.514 491.854 454.006 535.53 432.008C560.534 419.48 586.216 409.025 611.249 402.25C633.12 396.314 654.685 393.466 675.499 393.447C719.508 393.404 758.458 395.08 801.602 392.26C874.734 387.61 960.179 365.162 1044.8 338.675C1049.42 337.197 1054.16 335.687 1058.81 334.325C1146.16 307.24 1228.51 282.607 1315.5 288.553C1319.98 288.867 1324.48 289.299 1328.87 289.761C1366.79 293.713 1404.25 305.305 1439.15 325.213C1502.44 361.253 1558.36 409.645 1612.58 458.738M-158.625 191.219C-107.917 190.899 -36.8774 205.216 25.7 217.898C47.8784 222.527 68.5964 227.794 86.8702 234.712C104.879 241.575 120.576 249.178 135.054 257.856C151.937 268.024 167.375 279.829 182.897 293.364C193.535 302.687 204.523 313.795 215.72 327.101C249.555 367.458 279.994 424.247 330.165 458.135C356.811 476.23 387.13 486.461 416.579 485.901C460.987 485 498.808 460.801 542.498 439.801C567.393 427.802 592.872 417.527 617.515 410.229C639.027 403.888 660.225 400.135 680.579 398.861C723.988 396.096 762.448 394.521 804.875 389.011C876.643 379.714 960.199 354.887 1044.22 329.436C1048.87 328.075 1053.49 326.596 1058.15 325.235C1144.98 299.537 1227.54 278.981 1313.32 287.881C1317.7 288.343 1322.12 288.923 1326.54 289.503C1363.93 294.725 1400.69 307.002 1435.01 327.066C1497.24 363.386 1552.48 411.583 1606.11 460.332M-155.68 205.09C-105.528 208.8 -35.8474 224.605 26.4965 235.471C48.605 239.366 69.3079 243.635 87.8555 249.228C106.138 254.767 122.195 260.896 137.298 268.156C154.861 276.64 171.361 286.785 187.743 298.84C199.131 307.212 210.751 317.4 222.613 329.904C258.322 367.884 289.215 423.551 338.425 458.07C364.548 476.554 394.086 487.619 423.261 488.384C467.317 489.455 505.941 467.798 549.615 447.679C574.4 436.21 599.645 425.997 623.929 418.294C645.199 411.516 665.945 407.007 685.956 404.446C728.796 399.077 766.703 394.016 808.295 385.848C878.582 371.935 960.25 344.729 1043.9 320.253C1048.55 318.891 1053.09 317.561 1057.77 316.316C1144.1 292.005 1226.9 275.644 1311.43 287.381C1315.73 287.991 1320.06 288.719 1324.4 289.447C1361.21 295.822 1397.31 308.902 1431.07 329.239C1492.28 365.956 1546.93 413.809 1599.85 462.246M-152.821 219.109C-103.342 226.88 -34.8721 244.259 27.2931 253.043C49.3316 256.206 70.0194 259.477 88.8408 263.745C107.397 267.958 123.962 272.7 139.691 278.541C158.05 285.311 175.379 293.858 192.738 304.401C204.875 311.822 217.128 321.091 229.505 332.707C267.09 368.311 298.553 422.823 346.654 457.887C372.253 476.761 401.041 488.777 429.943 490.868C473.529 493.942 513.042 474.678 556.849 455.526C581.556 444.705 606.536 434.437 630.429 426.21C651.34 419.027 671.836 413.582 691.419 409.883C733.69 401.91 770.982 393.13 811.919 382.505C880.998 364.53 960.504 334.391 1043.67 310.921C1048.21 309.59 1052.89 308.346 1057.46 307.132C1143.39 284.178 1226.44 272.011 1309.59 286.616C1313.81 287.374 1318.17 288.219 1322.42 289.095C1358.55 296.655 1393.98 310.538 1427.28 330.999C1487.58 368.081 1541.4 415.653 1593.72 463.747M-149.993 233.011C-101.156 244.96 -33.9592 263.68 28.0897 270.616C50.0894 273.163 70.848 275.288 89.8261 278.262C108.539 281.181 125.612 284.536 141.935 288.841C160.974 293.928 179.334 300.698 197.701 309.846C210.556 316.199 223.56 324.518 236.515 335.479C275.974 368.706 307.891 422.096 354.883 457.705C379.928 476.852 407.88 489.966 436.625 493.351C479.859 498.397 520.175 481.675 563.966 463.404C588.563 453.113 613.309 442.907 636.96 434.244C657.629 426.624 677.798 420.891 696.913 415.437C738.304 403.69 775.479 393.063 815.575 379.28C883.047 356.221 960.875 324.023 1043.59 301.674C1048.15 300.461 1052.72 299.248 1057.29 298.034C1142.72 276.467 1226 268.495 1307.91 285.936C1312.15 286.812 1316.32 287.836 1320.59 288.829C1356.18 297.659 1390.92 312.227 1423.63 332.844C1482.88 370.207 1536.02 417.584 1587.75 465.334M-147.165 246.913C-99.001 262.924 -33.0463 283.1 28.8863 288.189C50.8161 290.003 71.5594 291.13 90.8114 292.779C109.829 294.49 127.348 296.223 144.179 299.141C163.867 302.427 183.29 307.537 202.547 315.321C216.152 320.724 229.788 328.123 243.291 338.313C284.624 369.163 317.111 421.4 362.995 457.554C387.516 477.09 414.687 491.038 443.158 495.748C486.041 502.767 527.128 488.47 570.934 471.197C595.453 461.552 619.964 451.409 643.226 442.223C663.536 434.198 683.331 427.061 702.141 420.936C743.213 407.521 779.585 392.473 818.878 376.148C885.017 348.558 960.809 313.896 1043.04 292.553C1047.49 291.371 1052.09 290.274 1056.69 289.178C1141.64 269.115 1225.13 265.22 1305.78 285.499C1309.95 286.522 1314.14 287.663 1318.21 288.835C1353.23 298.819 1387.3 314.19 1419.43 334.962C1477.65 372.722 1530.08 419.786 1581.22 467.193M-144.188 260.901C-96.6978 280.973 -31.9539 302.723 29.8 305.73C51.6598 306.812 72.388 306.941 91.9138 307.264C111.205 307.65 129.115 308.027 146.688 309.496C167.174 311.067 187.541 314.548 207.658 320.852C221.896 325.335 236.282 331.783 250.417 341.054C293.626 369.527 326.566 420.642 371.489 457.427C395.456 477.235 421.909 492.25 450.106 498.286C492.519 507.308 534.527 495.522 578.317 479.13C602.726 470.015 627.003 459.934 649.875 450.226C669.943 441.764 689.254 433.753 707.752 426.459C748.255 410.439 784.106 392.023 822.651 372.891C887.426 340.655 961.212 303.644 1043.07 283.276C1047.55 282.21 1052.04 281.145 1056.63 280.048C1141.08 261.373 1224.9 261.524 1304.22 284.788C1308.29 285.96 1312.4 287.249 1316.5 288.538C1350.98 299.792 1384.39 315.966 1415.93 336.893C1473.1 374.933 1524.85 421.802 1575.4 468.866M-141.36 274.803C-94.5429 298.936 -31.041 322.144 30.5966 323.303C52.4176 323.768 73.2166 322.752 92.8991 321.781C112.347 320.873 130.882 319.831 148.932 319.795C170.098 319.683 191.38 321.419 212.473 326.211C227.461 329.743 242.449 335.155 257.279 343.739C302.362 369.836 335.873 419.798 379.569 457.159C403.014 477.357 428.716 493.323 456.639 500.683C498.7 511.677 541.48 502.316 585.285 486.922C609.585 478.338 633.628 468.319 656.14 458.205C675.85 449.337 694.825 440.539 712.981 431.959C752.884 413.217 788.127 391.581 825.923 369.643C889.248 332.907 961.232 293.369 1042.61 274.006C1047.09 272.94 1051.57 271.875 1056.12 271.044C1140.17 253.724 1224.02 258.249 1302.18 284.202C1306.17 285.522 1310.19 286.959 1314.21 288.396C1348.12 300.804 1380.86 317.78 1411.7 338.894C1467.96 377.3 1518.89 423.888 1568.84 470.608M-138.532 288.705C-92.388 316.899 -30.0969 341.681 31.3932 340.876C53.0272 340.639 73.928 338.594 93.8843 336.298C113.606 334.064 132.501 331.55 151.176 330.095C173.022 328.3 195.335 328.259 217.319 331.686C233.026 334.151 248.794 338.729 264.023 346.457C310.95 370.06 344.914 418.899 387.65 456.891C410.54 477.361 435.492 494.278 463.173 503.08C504.913 516.164 548.55 509.08 592.254 494.715C616.475 486.777 640.284 476.82 662.375 466.067C681.811 456.646 700.451 447.06 718.178 437.341C757.364 415.91 792.351 390.96 829.282 366.245C891.273 324.979 961.221 282.977 1042.11 264.619C1046.48 263.585 1050.99 262.636 1055.42 261.836C1138.96 245.904 1223.06 254.624 1299.96 283.414C1303.98 284.85 1307.92 286.435 1311.88 288.137C1345.22 301.699 1377.18 319.508 1407.55 340.747C1462.76 379.433 1513.01 425.826 1562.48 472.172M-135.587 302.576C-89.9989 334.8 -29.0669 361.07 32.2757 358.3C53.8397 357.331 74.7254 354.287 94.9867 350.784C115.014 347.342 134.385 343.323 153.686 340.45C176.211 336.971 199.439 335.184 222.43 337.217C238.887 338.731 255.289 342.39 271.181 349.314C319.983 370.541 354.517 418.226 396.058 456.911C418.542 477.74 442.51 495.67 470.003 505.649C511.274 520.736 555.8 516.046 599.519 502.679C623.514 495.302 647.088 485.408 668.937 474.218C688.015 464.391 706.288 453.9 723.586 443.043C762.141 418.774 796.668 390.69 832.734 363.199C893.392 317.403 961.42 272.905 1041.83 255.552C1046.22 254.635 1050.62 253.718 1055.05 252.917C1138.11 238.49 1222.53 251.255 1298.07 282.913C1302.04 284.615 1305.85 286.231 1309.73 288.081C1342.53 302.913 1373.8 321.409 1403.58 342.803C1457.77 381.886 1507.31 427.966 1556.19 473.969M-132.728 316.594C-87.8128 352.881 -28.1228 380.608 33.1035 375.99C54.6288 374.405 75.5851 370.215 96.0031 365.417C116.187 360.682 136.066 355.275 155.961 350.867C179.284 345.673 203.425 342.14 227.307 342.809C244.483 343.256 261.517 345.995 277.988 352.265C328.664 371.115 363.652 417.678 404.201 456.877C426.162 478.095 449.38 496.976 476.599 508.281C517.517 525.339 562.847 523.191 606.55 510.705C630.435 503.859 653.775 494.026 675.265 482.431C694.101 472.167 711.891 460.803 728.877 448.776C766.831 421.786 800.752 390.482 836.217 360.27C895.512 309.826 961.534 262.981 1041.46 246.633C1045.85 245.716 1050.16 244.947 1054.62 244.263C1137.3 231.192 1221.81 248.067 1296.16 282.795C1300.04 284.645 1303.92 286.495 1307.68 288.376C1339.91 304.362 1370.51 323.66 1399.71 345.21C1452.85 384.572 1501.7 430.458 1549.99 476.117M-129.9 330.496C-85.658 370.844 -27.1787 400.145 33.8689 393.446C76.5452 388.872 116.9 372.766 158.174 361.05C199.448 349.334 243.906 342.032 284.818 354.834C365.846 380.274 406.38 474.459 483.219 510.53C545.758 540.005 621.814 524.684 681.734 490.231C741.654 455.777 789.675 404.446 839.662 356.725C900.693 298.681 968.583 247.081 1054.24 234.846C1136.41 223.162 1221.16 244.23 1294.26 281.796C1388.58 330.258 1466.91 404.383 1543.69 477.415" stroke="#AEBECF" stroke-opacity="0.2" stroke-width="1.25" stroke-miterlimit="10"/>
</svg>
