<svg width="41" height="40" viewBox="0 0 41 40" fill="none" xmlns="http://www.w3.org/2000/svg">
<path d="M20.7505 6.30235e-07C20.7443 0.203669 20.7407 0.40812 20.7407 0.613282C20.7407 11.6052 29.6541 20.5151 40.6509 20.5205V20.5215C29.8596 20.5268 21.0751 29.1086 20.7505 39.8164C20.7474 39.8164 20.7438 39.8174 20.7407 39.8174C20.7375 39.8174 20.7342 39.8164 20.731 39.8164C20.4064 29.1087 11.6227 20.5268 0.831543 20.5215V20.5205C11.8283 20.5151 20.7407 11.6051 20.7407 0.613282C20.7407 0.408111 20.7371 0.203678 20.731 6.30235e-07C20.7341 6.30235e-07 20.7474 -7.87794e-07 20.7505 6.30235e-07Z" fill="white"/>
</svg>
